{
  "accessors": [
    {
      "bufferView": 2,
      "componentType": 5126,
      "count": 32709,
      "max": [
        1.3931000232696533,
        0.98803001642227173,
        0.48726001381874084
      ],
      "min": [
        -0.98803001642227173,
        -0.98803001642227173,
        -0.90966999530792236
      ],
      "type": "VEC3"
    },
    {
      "bufferView": 2,
      "byteOffset": 392508,
      "componentType": 5126,
      "count": 32709,
      "max": [
        1,
        0.99999982118606567,
        0.99982666969299316
      ],
      "min": [
        -1,
        -0.99999982118606567,
        -1
      ],
      "type": "VEC3"
    },
    {
      "bufferView": 3,
      "componentType": 5126,
      "count": 32709,
      "max": [
        0.98064368963241577,
        0.99920856952667236,
        0.99996358156204224,
        1
      ],
      "min": [
        -0.99252182245254517,
        -0.96685141324996948,
        -0.99993711709976196,
        1
      ],
      "type": "VEC4"
    },
    {
      "bufferView": 1,
      "componentType": 5126,
      "count": 32709,
      "max": [
        0.74536001682281494,
        0.74190998077392578
      ],
      "min": [
        0,
        0
      ],
      "type": "VEC2"
    },
    {
      "bufferView": 0,
      "componentType": 5125,
      "count": 195840,
      "max": [
        32708
      ],
      "min": [
        0
      ],
      "type": "SCALAR"
    },
    {
      "bufferView": 2,
      "byteOffset": 785016,
      "componentType": 5126,
      "count": 3009,
      "max": [
        0.83565998077392578,
        0.8237299919128418,
        0.75058001279830933
      ],
      "min": [
        -0.83578997850418091,
        -0.8477100133895874,
        0.43869999051094055
      ],
      "type": "VEC3"
    },
    {
      "bufferView": 2,
      "byteOffset": 821124,
      "componentType": 5126,
      "count": 3009,
      "max": [
        0.72333645820617676,
        0.72333645820617676,
        1
      ],
      "min": [
        -0.72333645820617676,
        -0.72333645820617676,
        0.69048798084259033
      ],
      "type": "VEC3"
    },
    {
      "bufferView": 3,
      "byteOffset": 523344,
      "componentType": 5126,
      "count": 3009,
      "max": [
        -0.095316119492053986,
        0.96366012096405029,
        0.72332346439361572,
        1
      ],
      "min": [
        -0.39395484328269958,
        0.65251791477203369,
        -0.7233283519744873,
        1
      ],
      "type": "VEC4"
    },
    {
      "bufferView": 1,
      "byteOffset": 261672,
      "componentType": 5126,
      "count": 3009,
      "max": [
        0.99914002418518066,
        0.99821001291275024
      ],
      "min": [
        0.00073999998858198524,
        0.00073000002885237336
      ],
      "type": "VEC2"
    },
    {
      "bufferView": 0,
      "byteOffset": 783360,
      "componentType": 5125,
      "count": 17664,
      "max": [
        3008
      ],
      "min": [
        0
      ],
      "type": "SCALAR"
    },
    {
      "bufferView": 2,
      "byteOffset": 857232,
      "componentType": 5126,
      "count": 3521,
      "max": [
        0.82846999168395996,
        0.81654000282287598,
        0.42519000172615051
      ],
      "min": [
        -0.82859998941421509,
        -0.84052002429962158,
        0.12007000297307968
      ],
      "type": "VEC3"
    },
    {
      "bufferView": 2,
      "byteOffset": 899484,
      "componentType": 5126,
      "count": 3521,
      "max": [
        0.68264740705490112,
        0.68264740705490112,
        1
      ],
      "min": [
        -0.68263137340545654,
        -0.68264740705490112,
        0.73074793815612793
      ],
      "type": "VEC3"
    },
    {
      "bufferView": 3,
      "byteOffset": 571488,
      "componentType": 5126,
      "count": 3521,
      "max": [
        0.29076814651489258,
        -0.73071056604385376,
        0.68261253833770752,
        1
      ],
      "min": [
        -0.27898657321929932,
        -0.9999881386756897,
        -0.68264186382293701,
        1
      ],
      "type": "VEC4"
    },
    {
      "bufferView": 1,
      "byteOffset": 285744,
      "componentType": 5126,
      "count": 3521,
      "max": [
        0.92893999814987183,
        0.94084000587463379
      ],
      "min": [
        0.071220003068447113,
        0.083010002970695496
      ],
      "type": "VEC2"
    },
    {
      "bufferView": 0,
      "byteOffset": 854016,
      "componentType": 5125,
      "count": 20736,
      "max": [
        3520
      ],
      "min": [
        0
      ],
      "type": "SCALAR"
    },
    {
      "bufferView": 2,
      "byteOffset": 941736,
      "componentType": 5126,
      "count": 3970,
      "max": [
        0.41091999411582947,
        0.045639999210834503,
        0.61426997184753418
      ],
      "min": [
        -0.72868001461029053,
        -0.4229699969291687,
        0.35354000329971313
      ],
      "type": "VEC3"
    },
    {
      "bufferView": 2,
      "byteOffset": 989376,
      "componentType": 5126,
      "count": 3970,
      "max": [
        1,
        1,
        1
      ],
      "min": [
        -1,
        -1,
        -1
      ],
      "type": "VEC3"
    },
    {
      "bufferView": 3,
      "byteOffset": 627824,
      "componentType": 5126,
      "count": 3970,
      "max": [
        0,
        0,
        0,
        1
      ],
      "min": [
        0,
        0,
        0,
        1
      ],
      "type": "VEC4"
    },
    {
      "bufferView": 0,
      "byteOffset": 936960,
      "componentType": 5125,
      "count": 23808,
      "max": [
        3969
      ],
      "min": [
        0
      ],
      "type": "SCALAR"
    }
  ],
  "asset": {
    "extras": {
      "author": "Robin Butler (https://sketchfab.com/StarTrekGuy)",
      "license": "CC-BY-NC-4.0 (http://creativecommons.org/licenses/by-nc/4.0/)",
      "source": "https://sketchfab.com/models/4d253a5aa014454f808e61c7d2d3ecbe",
      "title": "Old Pocket Watch"
    },
    "generator": "Sketchfab-3.30.3",
    "version": "2.0"
  },
  "bufferViews": [
    {
      "buffer": 0,
      "byteLength": 1032192,
      "byteOffset": 0,
      "name": "floatBufferViews",
      "target": 34963
    },
    {
      "buffer": 0,
      "byteLength": 313912,
      "byteOffset": 1032192,
      "byteStride": 8,
      "name": "floatBufferViews",
      "target": 34962
    },
    {
      "buffer": 0,
      "byteLength": 1037016,
      "byteOffset": 1346104,
      "byteStride": 12,
      "name": "floatBufferViews",
      "target": 34962
    },
    {
      "buffer": 0,
      "byteLength": 691344,
      "byteOffset": 2383120,
      "byteStride": 16,
      "name": "floatBufferViews",
      "target": 34962
    }
  ],
  "buffers": [
    {
      "byteLength": 3074464,
      "uri": "scene.bin"
    }
  ],
  "images": [
    {
      "uri": "textures/Material.002_metallicRoughness.png"
    },
    {
      "uri": "textures/Material.001_metallicRoughness.png"
    },
    {
      "uri": "textures/Material.003_baseColor.jpeg"
    }
  ],
  "materials": [
    {
      "doubleSided": false,
      "name": "Material.001",
      "pbrMetallicRoughness": {
        "baseColorFactor": [
          1,
          0.93038346630000002,
          0.51908165939999995,
          1
        ],
        "metallicFactor": 1,
        "metallicRoughnessTexture": {
          "index": 1,
          "texCoord": 0
        },
        "roughnessFactor": 0.31269054880000002
      }
    },
    {
      "alphaMode": "BLEND",
      "doubleSided": false,
      "name": "Material.002",
      "pbrMetallicRoughness": {
        "baseColorFactor": [
          0,
          0,
          0,
          0.14805640240000001
        ],
        "metallicFactor": 0,
        "metallicRoughnessTexture": {
          "index": 0,
          "texCoord": 0
        },
        "roughnessFactor": 1
      }
    },
    {
      "doubleSided": false,
      "name": "Material.003",
      "pbrMetallicRoughness": {
        "baseColorFactor": [
          0.5,
          0.5,
          0.5,
          0.5
        ],
        "baseColorTexture": {
          "index": 2,
          "texCoord": 0
        },
        "metallicFactor": 0,
        "roughnessFactor": 1
      }
    },
    {
      "doubleSided": false,
      "name": "Material.004",
      "pbrMetallicRoughness": {
        "baseColorFactor": [
          0,
          0,
          0,
          1
        ],
        "metallicFactor": 0,
        "roughnessFactor": 0
      }
    }
  ],
  "meshes": [
    {
      "name": "Sphere_0",
      "primitives": [
        {
          "attributes": {
            "NORMAL": 1,
            "POSITION": 0,
            "TANGENT": 2,
            "TEXCOORD_0": 3
          },
          "indices": 4,
          "material": 0,
          "mode": 4
        }
      ]
    },
    {
      "name": "Sphere_1",
      "primitives": [
        {
          "attributes": {
            "NORMAL": 6,
            "POSITION": 5,
            "TANGENT": 7,
            "TEXCOORD_0": 8
          },
          "indices": 9,
          "material": 1,
          "mode": 4
        }
      ]
    },
    {
      "name": "Sphere_2",
      "primitives": [
        {
          "attributes": {
            "NORMAL": 11,
            "POSITION": 10,
            "TANGENT": 12,
            "TEXCOORD_0": 13
          },
          "indices": 14,
          "material": 2,
          "mode": 4
        }
      ]
    },
    {
      "name": "Sphere_3",
      "primitives": [
        {
          "attributes": {
            "NORMAL": 16,
            "POSITION": 15,
            "TANGENT": 17
          },
          "indices": 18,
          "material": 3,
          "mode": 4
        }
      ]
    }
  ],
  "nodes": [
    {
      "children": [
        1
      ],
      "name": "RootNode (gltf orientation matrix)",
      "rotation": [
        -0.70710678118654746,
        -0,
        -0,
        0.70710678118654757
      ]
    },
    {
      "children": [
        2
      ],
      "name": "RootNode (model correction matrix)"
    },
    {
      "children": [
        3
      ],
      "name": "Root"
    },
    {
      "children": [
        4,
        5,
        6,
        7
      ],
      "matrix": [
        1,
        0,
        0,
        0,
        0,
        1,
        0,
        0,
        0,
        0,
        0.19171000000000005,
        0,
        0,
        0,
        0,
        1
      ],
      "name": "Sphere"
    },
    {
      "mesh": 0,
      "name": "Sphere_0"
    },
    {
      "mesh": 1,
      "name": "Sphere_1"
    },
    {
      "mesh": 2,
      "name": "Sphere_2"
    },
    {
      "mesh": 3,
      "name": "Sphere_3"
    }
  ],
  "samplers": [
    {
      "magFilter": 9729,
      "minFilter": 9987,
      "wrapS": 10497,
      "wrapT": 10497
    }
  ],
  "scene": 0,
  "scenes": [
    {
      "name": "OSG_Scene",
      "nodes": [
        0
      ]
    }
  ],
  "textures": [
    {
      "sampler": 0,
      "source": 0
    },
    {
      "sampler": 0,
      "source": 1
    },
    {
      "sampler": 0,
      "source": 2
    }
  ]
}

