<svg width="386" height="440" viewBox="0 0 386 440" xmlns="http://www.w3.org/2000/svg"><title>Group</title><g fill="none" fill-rule="evenodd"><path d="M385.698 320.494V119.506a18.638 18.638 0 0 0-9.319-16.141L202.319 2.871a18.64 18.64 0 0 0-18.638 0L9.62 103.365a18.636 18.636 0 0 0-9.319 16.141v200.988a18.638 18.638 0 0 0 9.319 16.141l174.061 100.494a18.64 18.64 0 0 0 18.638 0L376.38 336.635a18.639 18.639 0 0 0 9.318-16.141z" fill="#1D74F2"/><g transform="translate(20 26)" fill="#FFF"><path d="M173 382.893L7.134 285.771V103.24l165.86-98.134.238.135 165.634 94.085V285.77l-.234.136L173 382.893zM8.078 285.231L173 381.801l164.922-96.57V99.876L173.006 6.197 8.078 103.778v181.453z"/><path d="M169.227 59.106h7.546v323.241h-7.546z"/><circle cx="173" cy="59.735" r="11.881"/><path d="M169.389 147.44l-36.271-22.913V80.568h7.546v39.8l32.756 20.691z"/><g transform="translate(171 176)"><path d="M4.893 122.151l-4.032-6.38L125.006 37.35V20.19h7.546v21.319z"/><circle cx="128.779" cy="12.21" r="11.881"/></g><path d="M231.749 169.156h7.546v88.045h-7.546zm-61.558 68.423L78.298 187.07v-40.275h7.547v35.935l88.142 48.326z"/><circle cx="82.072" cy="143.449" r="11.881"/><circle cx="136.892" cy="89.508" r="11.881"/><g transform="translate(171 121)"><path d="M77.729 19.919v17.16L.263 86.013c.06 2.913.163 5.834.266 8.758l84.747-53.534V19.919h-7.547z"/><circle cx="81.503" cy="11.939" r="11.881"/></g><path d="M175.621 169.156l36.271-22.913v-43.959h-7.546v39.8l-32.756 20.692z"/><circle cx="208.118" cy="102.284" r="11.881"/><circle cx="135.083" cy="165.296" r="11.881"/><path d="M131.31 168.139h7.546v47.445h-7.546z"/><g transform="translate(35 188)"><path d="M135.954 111.142l4.031-6.38L15.841 37.069v-17.16H8.294v21.318z"/><circle cx="12.067" cy="11.929" r="11.881"/></g><path d="M92.062 194h6.759v61.012h-6.759z"/><circle cx="173" cy="381.105" r="6.626"/><g transform="translate(0 98)"><circle cx="7.134" cy="187.771" r="6.626"/><circle cx="7.134" cy="7.074" r="6.626"/></g><g transform="translate(332 98)"><circle cx="6.866" cy="187.348" r="6.626"/><circle cx="6.866" cy="6.651" r="6.626"/></g><circle cx="172.994" cy="6.895" r="6.626"/></g></g></svg>