<svg id="Layer_1" xmlns="http://www.w3.org/2000/svg" viewBox="0 0 400 452"><style>.st0{fill:#2e5fdc}.st1{fill:#2856af}.st2{fill:#67a1fc}.st3{fill:#4e8fff}.st4{fill:#3c75fd}</style><g id="Warstwa_4"><path class="st0" d="M200.003 204.64v141.961l93.47 48.97v-141.96z"/><path class="st1" d="M106.532 253.161v97.94l.197 43.92 93.274-48.871V204.19z"/><path class="st2" d="M293.647 57.189l-93.644 49.061-94.245-49.375-92.711 53.316 93.485 45.029 93.471 48.97 93.47-48.97 93.471-43.97z"/><path class="st3" d="M106.532 155.22l-93.485-45.029.015 93.999v97.941l-.023 38.365 93.69 54.525-.197-43.92v-97.94l93.471 48.97V204.19z"/><path class="st4" d="M293.473 155.22l-93.47 48.97v97.941l93.47-48.97v142.41l92.471-53.421 1-40.019V111.25z"/></g></svg>