<svg id="Layer_1" xmlns="http://www.w3.org/2000/svg" viewBox="0 0 756 452"><style>.st0{fill:#1d74f2}.st1{fill:#fff}</style><path class="st0" d="M394.333 323.712V128.174a18.638 18.638 0 0 0-9.319-16.141L215.673 14.264a18.64 18.64 0 0 0-18.638 0L27.694 112.033a18.636 18.636 0 0 0-9.319 16.141v195.538a18.638 18.638 0 0 0 9.319 16.141l169.341 97.769a18.64 18.64 0 0 0 18.638 0l169.341-97.769a18.639 18.639 0 0 0 9.319-16.141z"/><path class="st1" d="M206.354 410.21L44.551 315.467v-178.06l161.798-95.73.232.132 161.577 91.78v181.878l-.228.133-161.576 94.61zM45.471 314.939l160.883 94.205 160.883-94.205V134.124L206.359 42.74 45.471 137.931v177.008z"/><path class="st1" d="M202.673 94.354h7.362v315.324h-7.362z"/><circle class="st1" cx="206.354" cy="94.967" r="11.59"/><path class="st1" d="M202.831 180.523l-35.383-22.352v-42.882h7.362v38.826l31.954 20.184zm6.345 147.02l-3.933-6.224 121.104-76.5V228.08h7.362v20.796z"/><circle class="st1" cx="330.028" cy="220.295" r="11.59"/><path class="st1" d="M263.664 201.707h7.362v85.889h-7.362zm-60.05 66.747l-89.642-49.271v-39.289h7.362v35.055l85.982 47.143z"/><circle class="st1" cx="117.654" cy="176.63" r="11.59"/><circle class="st1" cx="171.13" cy="124.011" r="11.59"/><path class="st1" d="M280.229 174.162v16.74l-75.568 47.736c.058 2.841.159 5.691.259 8.544l82.671-52.223v-20.796h-7.362z"/><circle class="st1" cx="283.91" cy="166.377" r="11.59"/><path class="st1" d="M208.911 201.707l35.383-22.351v-42.882h-7.362v38.825l-31.954 20.184z"/><circle class="st1" cx="240.612" cy="136.474" r="11.59"/><circle class="st1" cx="169.365" cy="197.943" r="11.59"/><path class="st1" d="M165.685 200.716h7.362v46.283h-7.362zm38.673 127.794l3.933-6.224-121.104-66.035v-16.74h-7.362v20.797z"/><circle class="st1" cx="83.506" cy="231.727" r="11.59"/><path class="st1" d="M127.398 225.943h6.594v59.517h-6.594z"/><circle class="st1" cx="206.354" cy="408.466" r="6.464"/><circle class="st1" cx="44.551" cy="315.467" r="6.464"/><circle class="st1" cx="44.551" cy="139.195" r="6.464"/><circle class="st1" cx="368.157" cy="315.054" r="6.464"/><circle class="st1" cx="368.157" cy="138.783" r="6.464"/><circle class="st1" cx="206.349" cy="43.421" r="6.464"/><path class="st1" d="M464.953 139.363v166.273h-18.528V139.363h18.528zm55.343 0c26.129 0 37.293 15.439 37.293 40.618v19.953c0 26.367-12.352 40.143-38.718 40.143h-16.39v65.56h-18.528V139.363h36.343zm-1.425 84.087c13.776 0 20.428-6.414 20.428-22.328v-22.091c0-15.202-5.463-22.803-19.003-22.803h-17.814v67.222h16.389zm53.92 82.187V139.363h18.528v149.408h47.507v16.865h-66.035zm119.005-166.274c25.891 0 37.768 15.677 37.768 41.331v83.849c0 25.417-11.877 41.094-37.768 41.094H652.84V139.363h38.956zm-.237 149.408c13.302 0 19.715-8.313 19.715-23.516v-85.512c0-15.202-6.413-23.516-19.953-23.516h-19.952V288.77h20.19z"/></svg>