{
	"accessors": [{
		"name": "arch20_07005-Mesh_positions",
		"componentType": 5126,
		"count": 8093,
		"min": [-28.622356414794922, 96.52885437011719, -4.964800834655762],
		"max": [28.39596939086914, 100, 2.258634090423584],
		"type": "VEC3",
		"bufferView": 0,
		"byteOffset": 0
	}, {
		"name": "arch20_07005-Mesh_normals",
		"componentType": 5126,
		"count": 8093,
		"min": [-0.9995999932289124, -0.9998999834060669, -0.9873999953269958],
		"max": [0.9995999932289124, 0.9998999834060669, 0.9878000020980835],
		"type": "VEC3",
		"bufferView": 0,
		"byteOffset": 190692
	}, {
		"name": "arch20_07005-Mesh_texcoords",
		"componentType": 5126,
		"count": 8093,
		"min": [0, 0.025599999353289604],
		"max": [1, 1],
		"type": "VEC2",
		"bufferView": 1,
		"byteOffset": 0
	}, {
		"name": "arch20_07005-Mesh_0_indices",
		"componentType": 5123,
		"count": 21600,
		"min": [0],
		"max": [8092],
		"type": "SCALAR",
		"bufferView": 2,
		"byteOffset": 0
	}, {
		"name": "arch20_07007-Mesh_positions",
		"componentType": 5126,
		"count": 4832,
		"min": [-30.790287017822266, 9.801246643066406, -4.0135579109191895],
		"max": [31.52212142944336, 98.74702453613281, 17.975914001464844],
		"type": "VEC3",
		"bufferView": 0,
		"byteOffset": 97116
	}, {
		"name": "arch20_07007-Mesh_normals",
		"componentType": 5126,
		"count": 4832,
		"min": [-0.9980000257492065, -0.9998000264167786, -0.9811000227928162],
		"max": [0.9980000257492065, 0.9836000204086304, 0.9810000061988831],
		"type": "VEC3",
		"bufferView": 0,
		"byteOffset": 287808
	}, {
		"name": "arch20_07007-Mesh_texcoords",
		"componentType": 5126,
		"count": 4832,
		"min": [0.0005000000237487257, 0.0005000000237487257],
		"max": [0.9994999766349792, 0.9994999766349792],
		"type": "VEC2",
		"bufferView": 1,
		"byteOffset": 64744
	}, {
		"name": "arch20_07007-Mesh_0_indices",
		"componentType": 5123,
		"count": 18048,
		"min": [0],
		"max": [4831],
		"type": "SCALAR",
		"bufferView": 2,
		"byteOffset": 43200
	}, {
		"name": "arch20_07004-Mesh_positions",
		"componentType": 5126,
		"count": 2660,
		"min": [-31.747461318969727, 9.727294921875, -18.198467254638672],
		"max": [30.35495948791504, 98.87957763671875, 0.013259000144898891],
		"type": "VEC3",
		"bufferView": 0,
		"byteOffset": 155100
	}, {
		"name": "arch20_07004-Mesh_normals",
		"componentType": 5126,
		"count": 2660,
		"min": [-0.9980000257492065, -0.9896000027656555, -0.9873999953269958],
		"max": [0.9980000257492065, 0.9896000027656555, 0.9873999953269958],
		"type": "VEC3",
		"bufferView": 0,
		"byteOffset": 345792
	}, {
		"name": "arch20_07004-Mesh_texcoords",
		"componentType": 5126,
		"count": 2660,
		"min": [0.0005000000237487257, 0.0005000000237487257],
		"max": [0.9994999766349792, 0.9994999766349792],
		"type": "VEC2",
		"bufferView": 1,
		"byteOffset": 103400
	}, {
		"name": "arch20_07004-Mesh_0_indices",
		"componentType": 5123,
		"count": 12144,
		"min": [0],
		"max": [2659],
		"type": "SCALAR",
		"bufferView": 2,
		"byteOffset": 79296
	}, {
		"name": "arch20_07006-Mesh_positions",
		"componentType": 5126,
		"count": 306,
		"min": [-31.80780792236328, 0, -13.617720603942871],
		"max": [31.80780792236328, 97.25685119628906, 18.198467254638672],
		"type": "VEC3",
		"bufferView": 0,
		"byteOffset": 187020
	}, {
		"name": "arch20_07006-Mesh_normals",
		"componentType": 5126,
		"count": 306,
		"min": [-0.9980999827384949, -0.9879000186920166, -0.9977999925613403],
		"max": [0.998199999332428, 0.9965999722480774, 0.9977999925613403],
		"type": "VEC3",
		"bufferView": 0,
		"byteOffset": 377712
	}, {
		"name": "arch20_07006-Mesh_texcoords",
		"componentType": 5126,
		"count": 306,
		"min": [0.0005000000237487257, 0.0005000000237487257],
		"max": [0.9994999766349792, 0.9994999766349792],
		"type": "VEC2",
		"bufferView": 1,
		"byteOffset": 124680
	}, {
		"name": "arch20_07006-Mesh_0_indices",
		"componentType": 5123,
		"count": 1632,
		"min": [0],
		"max": [305],
		"type": "SCALAR",
		"bufferView": 2,
		"byteOffset": 103584
	}],
	"asset": {
		"generator": "obj2gltf",
		"version": "2.0"
	},
	"buffers": [{
		"name": "input",
		"byteLength": 615360,
		"uri": "data:application/octet-stream;base64,"
	}],
	"bufferViews": [{
		"name": "bufferView_0",
		"buffer": 0,
		"byteLength": 381384,
		"byteOffset": 0,
		"byteStride": 12,
		"target": 34962
	}, {
		"name": "bufferView_1",
		"buffer": 0,
		"byteLength": 127128,
		"byteOffset": 381384,
		"byteStride": 8,
		"target": 34962
	}, {
		"name": "bufferView_2",
		"buffer": 0,
		"byteLength": 106848,
		"byteOffset": 508512,
		"target": 34963
	}],
	"materials": [{
		"name": "wire_000000000",
		"pbrMetallicRoughness": {
			"baseColorFactor": [0.5, 0.5, 0.5, 1],
			"metallicFactor": 0,
			"roughnessFactor": 1
		},
		"emissiveFactor": [0, 0, 0],
		"alphaMode": "OPAQUE",
		"doubleSided": false
	}, {
		"name": "15___Default",
		"pbrMetallicRoughness": {
			"baseColorFactor": [0.5, 0.5, 0.5, 1],
			"metallicFactor": 0,
			"roughnessFactor": 1
		},
		"emissiveFactor": [0, 0, 0],
		"alphaMode": "OPAQUE",
		"doubleSided": false
	}, {
		"name": "_",
		"pbrMetallicRoughness": {
			"baseColorFactor": [0.5, 0.5, 0.5, 1],
			"metallicFactor": 0,
			"roughnessFactor": 1
		},
		"emissiveFactor": [0, 0, 0],
		"alphaMode": "OPAQUE",
		"doubleSided": false
	}],
	"meshes": [{
		"name": "arch20_07005-Mesh",
		"primitives": [{
			"attributes": {
				"POSITION": 0,
				"NORMAL": 1,
				"TEXCOORD_0": 2
			},
			"indices": 3,
			"material": 0,
			"mode": 4
		}]
	}, {
		"name": "arch20_07007-Mesh",
		"primitives": [{
			"attributes": {
				"POSITION": 4,
				"NORMAL": 5,
				"TEXCOORD_0": 6
			},
			"indices": 7,
			"material": 1,
			"mode": 4
		}]
	}, {
		"name": "arch20_07004-Mesh",
		"primitives": [{
			"attributes": {
				"POSITION": 8,
				"NORMAL": 9,
				"TEXCOORD_0": 10
			},
			"indices": 11,
			"material": 2,
			"mode": 4
		}]
	}, {
		"name": "arch20_07006-Mesh",
		"primitives": [{
			"attributes": {
				"POSITION": 12,
				"NORMAL": 13,
				"TEXCOORD_0": 14
			},
			"indices": 15,
			"material": 0,
			"mode": 4
		}]
	}],
	"nodes": [{
		"name": "arch20_07005",
		"mesh": 0
	}, {
		"name": "arch20_07007",
		"mesh": 1
	}, {
		"name": "arch20_07004",
		"mesh": 2
	}, {
		"name": "arch20_07006",
		"mesh": 3
	}],
	"scene": 0,
	"scenes": [{
		"nodes": [0, 1, 2, 3]
	}]
}