{
    "accessors": [{
        "name": "arch20_071_07-Mesh_positions",
        "componentType": 5126,
        "count": 15870,
        "min": [-44.21806335449219, 43.594871520996094, -24.021669387817383],
        "max": [41.80796813964844, 46.471961975097656, 20.339330673217773],
        "type": "VEC3",
        "bufferView": 0,
        "byteOffset": 0
    }, {
        "name": "arch20_071_07-Mesh_normals",
        "componentType": 5126,
        "count": 15870,
        "min": [-0.954200029373169, -0.9998999834060669, -0.9474999904632568],
        "max": [0.954200029373169, 0.9998999834060669, 0.9473999738693237],
        "type": "VEC3",
        "bufferView": 0,
        "byteOffset": 326052
    }, {
        "name": "arch20_071_07-Mesh_texcoords",
        "componentType": 5126,
        "count": 15870,
        "min": [0, 0.025599999353289604],
        "max": [1, 1],
        "type": "VEC2",
        "bufferView": 1,
        "byteOffset": 0
    }, {
        "name": "arch20_071_07-Mesh_0_indices",
        "componentType": 5123,
        "count": 42336,
        "min": [0],
        "max": [15869],
        "type": "SCALAR",
        "bufferView": 2,
        "byteOffset": 0
    }, {
        "name": "arch20_071_06-Mesh_positions",
        "componentType": 5126,
        "count": 2733,
        "min": [-50, 3.2898058891296387, -33.20953369140625],
        "max": [42.670654296875, 45.414276123046875, 19.213485717773438],
        "type": "VEC3",
        "bufferView": 0,
        "byteOffset": 190440
    }, {
        "name": "arch20_071_06-Mesh_normals",
        "componentType": 5126,
        "count": 2733,
        "min": [-0.8984000086784363, -0.9804999828338623, -0.881600022315979],
        "max": [0.8981999754905701, 0.9800000190734863, 0.881600022315979],
        "type": "VEC3",
        "bufferView": 0,
        "byteOffset": 516492
    }, {
        "name": "arch20_071_06-Mesh_texcoords",
        "componentType": 5126,
        "count": 2733,
        "min": [0.0005000000237487257, 0.0005000000237487257],
        "max": [0.9994999766349792, 0.9674999713897705],
        "type": "VEC2",
        "bufferView": 1,
        "byteOffset": 126960
    }, {
        "name": "arch20_071_06-Mesh_0_indices",
        "componentType": 5123,
        "count": 9144,
        "min": [0],
        "max": [2732],
        "type": "SCALAR",
        "bufferView": 2,
        "byteOffset": 84672
    }, {
        "name": "arch20_071_04-Mesh_positions",
        "componentType": 5126,
        "count": 8194,
        "min": [-45.42973327636719, 3.8905959129333496, -23.937103271484375],
        "max": [49.562660217285156, 45.28679656982422, 33.20953369140625],
        "type": "VEC3",
        "bufferView": 0,
        "byteOffset": 223236
    }, {
        "name": "arch20_071_04-Mesh_normals",
        "componentType": 5126,
        "count": 8194,
        "min": [-0.8985999822616577, -0.9921000003814697, -0.8496000170707703],
        "max": [0.8992000222206116, 0.9473999738693237, 0.8492000102996826],
        "type": "VEC3",
        "bufferView": 0,
        "byteOffset": 549288
    }, {
        "name": "arch20_071_04-Mesh_texcoords",
        "componentType": 5126,
        "count": 8194,
        "min": [0.0005000000237487257, 0.0005000000237487257],
        "max": [0.9994999766349792, 0.9994999766349792],
        "type": "VEC2",
        "bufferView": 1,
        "byteOffset": 148824
    }, {
        "name": "arch20_071_04-Mesh_0_indices",
        "componentType": 5123,
        "count": 28236,
        "min": [0],
        "max": [8193],
        "type": "SCALAR",
        "bufferView": 2,
        "byteOffset": 102960
    }, {
        "name": "arch20_071_05-Mesh_positions",
        "componentType": 5126,
        "count": 374,
        "min": [-49.521018981933594, 0, -31.589555740356445],
        "max": [50, 45.46413040161133, 33.14579772949219],
        "type": "VEC3",
        "bufferView": 0,
        "byteOffset": 321564
    }, {
        "name": "arch20_071_05-Mesh_normals",
        "componentType": 5126,
        "count": 374,
        "min": [-0.9988999962806702, -0.9879999756813049, -0.9991999864578247],
        "max": [0.9995999932289124, 0.9965999722480774, 0.9451000094413757],
        "type": "VEC3",
        "bufferView": 0,
        "byteOffset": 647616
    }, {
        "name": "arch20_071_05-Mesh_texcoords",
        "componentType": 5126,
        "count": 374,
        "min": [0.0005000000237487257, 0.0005000000237487257],
        "max": [0.9994999766349792, 0.9994999766349792],
        "type": "VEC2",
        "bufferView": 1,
        "byteOffset": 214376
    }, {
        "name": "arch20_071_05-Mesh_0_indices",
        "componentType": 5123,
        "count": 2040,
        "min": [0],
        "max": [373],
        "type": "SCALAR",
        "bufferView": 2,
        "byteOffset": 159432
    }],
    "asset": {
        "generator": "obj2gltf",
        "version": "2.0"
    },
    "buffers": [{
        "byteLength": 1032984,
        "uri": "data:application/octet-stream;base64,"
    }],
    "bufferViews": [{
        "name": "bufferView_0",
        "buffer": 0,
        "byteLength": 652104,
        "byteOffset": 0,
        "byteStride": 12,
        "target": 34962
    }, {
        "name": "bufferView_1",
        "buffer": 0,
        "byteLength": 217368,
        "byteOffset": 652104,
        "byteStride": 8,
        "target": 34962
    }, {
        "name": "bufferView_2",
        "buffer": 0,
        "byteLength": 163512,
        "byteOffset": 869472,
        "target": 34963
    }],
    "materials": [{
        "name": "wire_000000000",
        "pbrMetallicRoughness": {
            "baseColorFactor": [0.5, 0.5, 0.5, 1],
            "metallicFactor": 0,
            "roughnessFactor": 0.968627451
        },
        "emissiveFactor": [0, 0, 0],
        "alphaMode": "OPAQUE",
        "doubleSided": false
    }],
    "meshes": [{
        "name": "arch20_071_07-Mesh",
        "primitives": [{
            "attributes": {
                "POSITION": 0,
                "NORMAL": 1,
                "TEXCOORD_0": 2
            },
            "indices": 3,
            "material": 0,
            "mode": 4
        }]
    }, {
        "name": "arch20_071_06-Mesh",
        "primitives": [{
            "attributes": {
                "POSITION": 4,
                "NORMAL": 5,
                "TEXCOORD_0": 6
            },
            "indices": 7,
            "material": 0,
            "mode": 4
        }]
    }, {
        "name": "arch20_071_04-Mesh",
        "primitives": [{
            "attributes": {
                "POSITION": 8,
                "NORMAL": 9,
                "TEXCOORD_0": 10
            },
            "indices": 11,
            "material": 0,
            "mode": 4
        }]
    }, {
        "name": "arch20_071_05-Mesh",
        "primitives": [{
            "attributes": {
                "POSITION": 12,
                "NORMAL": 13,
                "TEXCOORD_0": 14
            },
            "indices": 15,
            "material": 0,
            "mode": 4
        }]
    }],
    "nodes": [{
        "name": "arch20_071_07",
        "mesh": 0
    }, {
        "name": "arch20_071_06",
        "mesh": 1
    }, {
        "name": "arch20_071_04",
        "mesh": 2
    }, {
        "name": "arch20_071_05",
        "mesh": 3
    }],
    "scene": 0,
    "scenes": [{
        "nodes": [0, 1, 2, 3]
    }]
}
