{"accessors":[{"name":"Digital_Camera_lcd_screen_1_positions","componentType":5126,"count":20,"min":[-3.033900022506714,1.7894999980926514,0.9165999889373779],"max":[6.328199863433838,1.8128000497817993,7.845799922943115],"type":"VEC3","bufferView":0,"byteOffset":0},{"name":"Digital_Camera_lcd_screen_1_normals","componentType":5126,"count":20,"min":[-0.5774000287055969,-0.5774000287055969,-0.5774000287055969],"max":[0.5774000287055969,0.5774000287055969,0.5774000287055969],"type":"VEC3","bufferView":0,"byteOffset":370740},{"name":"Digital_Camera_lcd_screen_1_texcoords","componentType":5126,"count":20,"min":[0,0],"max":[1,1],"type":"VEC2","bufferView":1,"byteOffset":0},{"name":"Digital_Camera_lcd_screen_1_0_indices","componentType":5123,"count":36,"min":[0],"max":[19],"type":"SCALAR","bufferView":2,"byteOffset":0},{"name":"Digital_Camera_roll_1_positions","componentType":5126,"count":4104,"min":[-6.598100185394287,1.3808000087738037,4.632199764251709],"max":[-4.182799816131592,1.8590999841690063,7.044400215148926],"type":"VEC3","bufferView":0,"byteOffset":240},{"name":"Digital_Camera_roll_1_normals","componentType":5126,"count":4104,"min":[-1,-0.5849999785423279,-0.9998000264167786],"max":[1,1,0.9998000264167786],"type":"VEC3","bufferView":0,"byteOffset":370980},{"name":"Digital_Camera_roll_1_texcoords","componentType":5126,"count":4104,"min":[0,0],"max":[1,1],"type":"VEC2","bufferView":1,"byteOffset":160},{"name":"Digital_Camera_roll_1_0_indices","componentType":5123,"count":9720,"min":[0],"max":[4103],"type":"SCALAR","bufferView":2,"byteOffset":72},{"name":"Digital_Camera_flash_lamp_metal_1_positions","componentType":5126,"count":648,"min":[-2.445499897003174,-1.5810999870300293,7.969600200653076],"max":[-0.2020999938249588,-1.2372000217437744,8.313400268554688],"type":"VEC3","bufferView":0,"byteOffset":49488},{"name":"Digital_Camera_flash_lamp_metal_1_normals","componentType":5126,"count":648,"min":[-1,-0.9501000046730042,-0.9501000046730042],"max":[1,0.9501000046730042,0.9501000046730042],"type":"VEC3","bufferView":0,"byteOffset":420228},{"name":"Digital_Camera_flash_lamp_metal_1_texcoords","componentType":5126,"count":648,"min":[0,0],"max":[1,1],"type":"VEC2","bufferView":1,"byteOffset":32992},{"name":"Digital_Camera_flash_lamp_metal_1_0_indices","componentType":5123,"count":1440,"min":[0],"max":[647],"type":"SCALAR","bufferView":2,"byteOffset":19512},{"name":"Digital_Camera_flash_lamp_glass1_1_positions","componentType":5126,"count":187,"min":[-2.3310999870300293,-1.5674999952316284,7.983099937438965],"max":[-0.3165000081062317,-1.2506999969482422,8.29990005493164],"type":"VEC3","bufferView":0,"byteOffset":57264},{"name":"Digital_Camera_flash_lamp_glass1_1_normals","componentType":5126,"count":187,"min":[-1,-1,-1],"max":[1,1,1],"type":"VEC3","bufferView":0,"byteOffset":428004},{"name":"Digital_Camera_flash_lamp_glass1_1_texcoords","componentType":5126,"count":187,"min":[0,0],"max":[1.0499999523162842,1],"type":"VEC2","bufferView":1,"byteOffset":38176},{"name":"Digital_Camera_flash_lamp_glass1_1_0_indices","componentType":5123,"count":840,"min":[0],"max":[186],"type":"SCALAR","bufferView":2,"byteOffset":22392},{"name":"Digital_Camera_glass_5_1_positions","componentType":5126,"count":12,"min":[-2.581899881362915,-1.611799955368042,7.813899993896484],"max":[-0.06469999998807907,-1.611799955368042,8.442899703979492],"type":"VEC3","bufferView":0,"byteOffset":59508},{"name":"Digital_Camera_glass_5_1_normals","componentType":5126,"count":12,"min":[0,-1,0],"max":[0,-1,0],"type":"VEC3","bufferView":0,"byteOffset":430248},{"name":"Digital_Camera_glass_5_1_texcoords","componentType":5126,"count":12,"min":[0.5921000242233276,0.415800005197525],"max":[0.9121000170707703,0.5842999815940857],"type":"VEC2","bufferView":1,"byteOffset":39672},{"name":"Digital_Camera_glass_5_1_0_indices","componentType":5123,"count":30,"min":[0],"max":[11],"type":"SCALAR","bufferView":2,"byteOffset":24072},{"name":"Digital_Camera_glass_4_1_positions","componentType":5126,"count":12,"min":[5.691100120544434,-1.6434999704360962,6.942999839782715],"max":[6.54610013961792,-1.6434999704360962,7.798099994659424],"type":"VEC3","bufferView":0,"byteOffset":59652},{"name":"Digital_Camera_glass_4_1_normals","componentType":5126,"count":12,"min":[0,-1,0],"max":[0,-1,0],"type":"VEC3","bufferView":0,"byteOffset":430392},{"name":"Digital_Camera_glass_4_1_texcoords","componentType":5126,"count":12,"min":[0,0],"max":[0.5,1],"type":"VEC2","bufferView":1,"byteOffset":39768},{"name":"Digital_Camera_glass_4_1_0_indices","componentType":5123,"count":24,"min":[0],"max":[11],"type":"SCALAR","bufferView":2,"byteOffset":24132},{"name":"Digital_Camera_glass_3_1_positions","componentType":5126,"count":145,"min":[5.803299903869629,-1.6030000448226929,7.05079984664917],"max":[6.438000202178955,-1.3402999639511108,7.685500144958496],"type":"VEC3","bufferView":0,"byteOffset":59796},{"name":"Digital_Camera_glass_3_1_normals","componentType":5126,"count":145,"min":[-0.9876000285148621,-1,-0.9941999912261963],"max":[0.9876000285148621,-0.0430000014603138,0.9941999912261963],"type":"VEC3","bufferView":0,"byteOffset":430536},{"name":"Digital_Camera_glass_3_1_texcoords","componentType":5126,"count":145,"min":[0.5,0.03500000014901161],"max":[1.000100016593933,0.9621999859809875],"type":"VEC2","bufferView":1,"byteOffset":39864},{"name":"Digital_Camera_glass_3_1_0_indices","componentType":5123,"count":792,"min":[0],"max":[144],"type":"SCALAR","bufferView":2,"byteOffset":24180},{"name":"Digital_Camera_glass_2_1_positions","componentType":5126,"count":167,"min":[2.222399950027466,-3.177299976348877,4.116600036621094],"max":[3.0868000984191895,-2.8194000720977783,4.981100082397461],"type":"VEC3","bufferView":0,"byteOffset":61536},{"name":"Digital_Camera_glass_2_1_normals","componentType":5126,"count":167,"min":[-0.9876000285148621,-1,-0.9941999912261963],"max":[0.9876000285148621,-0.0430000014603138,0.9941999912261963],"type":"VEC3","bufferView":0,"byteOffset":432276},{"name":"Digital_Camera_glass_2_1_texcoords","componentType":5126,"count":167,"min":[0.4999000132083893,0],"max":[1.000100016593933,1],"type":"VEC2","bufferView":1,"byteOffset":41024},{"name":"Digital_Camera_glass_2_1_0_indices","componentType":5123,"count":792,"min":[0],"max":[166],"type":"SCALAR","bufferView":2,"byteOffset":25764},{"name":"Digital_Camera_glass_1_positions","componentType":5126,"count":113,"min":[1.34660005569458,-4.153299808502197,3.2409000396728516],"max":[3.962599992752075,-3.604599952697754,5.856800079345703],"type":"VEC3","bufferView":0,"byteOffset":63540},{"name":"Digital_Camera_glass_1_normals","componentType":5126,"count":113,"min":[-0.8217999935150146,-1,-0.8391000032424927],"max":[0.8217999935150146,-0.5131000280380249,0.8391000032424927],"type":"VEC3","bufferView":0,"byteOffset":434280},{"name":"Digital_Camera_glass_1_texcoords","componentType":5126,"count":113,"min":[0.5605000257492065,0.12099999934434891],"max":[0.9394999742507935,0.8790000081062317],"type":"VEC2","bufferView":1,"byteOffset":42360},{"name":"Digital_Camera_glass_1_0_indices","componentType":5123,"count":588,"min":[0],"max":[112],"type":"SCALAR","bufferView":2,"byteOffset":27348},{"name":"Digital_Camera_buttons_1_positions","componentType":5126,"count":3048,"min":[-6.792600154876709,1.3723000288009644,0.4878999888896942],"max":[-4.197999954223633,1.8801000118255615,8.128600120544434],"type":"VEC3","bufferView":0,"byteOffset":64896},{"name":"Digital_Camera_buttons_1_normals","componentType":5126,"count":3048,"min":[-1,-1,-1],"max":[1,1,1],"type":"VEC3","bufferView":0,"byteOffset":435636},{"name":"Digital_Camera_buttons_1_texcoords","componentType":5126,"count":3048,"min":[0.00860000029206276,0.00839999970048666],"max":[0.9914000034332275,0.991599977016449],"type":"VEC2","bufferView":1,"byteOffset":43264},{"name":"Digital_Camera_buttons_1_0_indices","componentType":5123,"count":14160,"min":[0],"max":[3047],"type":"SCALAR","bufferView":2,"byteOffset":28524},{"name":"Digital_Camera_back_1_positions","componentType":5126,"count":6637,"min":[-7.552999973297119,0.23520000278949738,0.23999999463558197],"max":[7.552999973297119,1.7991000413894653,8.871999740600586],"type":"VEC3","bufferView":0,"byteOffset":101472},{"name":"Digital_Camera_back_1_normals","componentType":5126,"count":6637,"min":[-1,-1,-1],"max":[1,1,1],"type":"VEC3","bufferView":0,"byteOffset":472212},{"name":"Digital_Camera_back_1_texcoords","componentType":5126,"count":6637,"min":[0,0],"max":[1,1],"type":"VEC2","bufferView":1,"byteOffset":67648},{"name":"Digital_Camera_back_1_0_indices","componentType":5123,"count":23946,"min":[0],"max":[6636],"type":"SCALAR","bufferView":2,"byteOffset":56844},{"name":"Digital_Camera_Front_1_positions","componentType":5126,"count":5229,"min":[-7.552999973297119,-1.7056000232696533,0.23999999463558197],"max":[7.552999973297119,0,8.871999740600586],"type":"VEC3","bufferView":0,"byteOffset":181116},{"name":"Digital_Camera_Front_1_normals","componentType":5126,"count":5229,"min":[-1,-1,-1],"max":[1,1,1],"type":"VEC3","bufferView":0,"byteOffset":551856},{"name":"Digital_Camera_Front_1_texcoords","componentType":5126,"count":5229,"min":[0,0],"max":[1,1],"type":"VEC2","bufferView":1,"byteOffset":120744},{"name":"Digital_Camera_Front_1_0_indices","componentType":5123,"count":21492,"min":[0],"max":[5228],"type":"SCALAR","bufferView":2,"byteOffset":104736},{"name":"Digital_Camera_lcd_black_1_positions","componentType":5126,"count":888,"min":[-3.5566000938415527,1.6907000541687012,0.5789999961853027],"max":[6.600299835205078,1.8104000091552734,8.088600158691406],"type":"VEC3","bufferView":0,"byteOffset":243864},{"name":"Digital_Camera_lcd_black_1_normals","componentType":5126,"count":888,"min":[-1,-1,-1],"max":[1,1,1],"type":"VEC3","bufferView":0,"byteOffset":614604},{"name":"Digital_Camera_lcd_black_1_texcoords","componentType":5126,"count":888,"min":[0,0],"max":[1,1],"type":"VEC2","bufferView":1,"byteOffset":162576},{"name":"Digital_Camera_lcd_black_1_0_indices","componentType":5123,"count":2880,"min":[0],"max":[887],"type":"SCALAR","bufferView":2,"byteOffset":147720},{"name":"Digital_Camera_metal_line_1_positions","componentType":5126,"count":1662,"min":[-7.601200103759766,-0.0003000000142492354,0.19189999997615814],"max":[7.601200103759766,0.21719999611377716,8.92020034790039],"type":"VEC3","bufferView":0,"byteOffset":254520},{"name":"Digital_Camera_metal_line_1_normals","componentType":5126,"count":1662,"min":[-1,-1,-1],"max":[1,1,1],"type":"VEC3","bufferView":0,"byteOffset":625260},{"name":"Digital_Camera_metal_line_1_texcoords","componentType":5126,"count":1662,"min":[0,0],"max":[1,1],"type":"VEC2","bufferView":1,"byteOffset":169680},{"name":"Digital_Camera_metal_line_1_0_indices","componentType":5123,"count":5760,"min":[0],"max":[1661],"type":"SCALAR","bufferView":2,"byteOffset":153480},{"name":"Digital_Camera_Main_button_2_1_positions","componentType":5126,"count":533,"min":[-2.1029999256134033,-0.6682999730110168,8.755599975585938],"max":[-0.571399986743927,0,8.937800407409668],"type":"VEC3","bufferView":0,"byteOffset":274464},{"name":"Digital_Camera_Main_button_2_1_normals","componentType":5126,"count":533,"min":[-1,-1,-1],"max":[1,1,1],"type":"VEC3","bufferView":0,"byteOffset":645204},{"name":"Digital_Camera_Main_button_2_1_texcoords","componentType":5126,"count":533,"min":[0,0],"max":[1,1],"type":"VEC2","bufferView":1,"byteOffset":182976},{"name":"Digital_Camera_Main_button_2_1_0_indices","componentType":5123,"count":1920,"min":[0],"max":[532],"type":"SCALAR","bufferView":2,"byteOffset":165000},{"name":"Digital_Camera_Main_button_1_positions","componentType":5126,"count":533,"min":[-5.582300186157227,-0.9625999927520752,8.755599975585938],"max":[-3.3668999671936035,0,9.018199920654297],"type":"VEC3","bufferView":0,"byteOffset":280860},{"name":"Digital_Camera_Main_button_1_normals","componentType":5126,"count":533,"min":[-1,-1,-1],"max":[1,1,1],"type":"VEC3","bufferView":0,"byteOffset":651600},{"name":"Digital_Camera_Main_button_1_texcoords","componentType":5126,"count":533,"min":[0,0],"max":[1,1],"type":"VEC2","bufferView":1,"byteOffset":187240},{"name":"Digital_Camera_Main_button_1_0_indices","componentType":5123,"count":1920,"min":[0],"max":[532],"type":"SCALAR","bufferView":2,"byteOffset":168840},{"name":"Digital_Camera_lens_1_1_positions","componentType":5126,"count":1197,"min":[-0.14069999754428864,-3.0334999561309814,1.7516000270843506],"max":[5.448999881744385,-1.642699956893921,7.327499866485596],"type":"VEC3","bufferView":0,"byteOffset":287256},{"name":"Digital_Camera_lens_1_1_normals","componentType":5126,"count":1197,"min":[-1,-1,-1],"max":[1,1,1],"type":"VEC3","bufferView":0,"byteOffset":657996},{"name":"Digital_Camera_lens_1_1_texcoords","componentType":5126,"count":1197,"min":[0,0],"max":[1,1],"type":"VEC2","bufferView":1,"byteOffset":191504},{"name":"Digital_Camera_lens_1_1_0_indices","componentType":5123,"count":4224,"min":[0],"max":[1196],"type":"SCALAR","bufferView":2,"byteOffset":172680},{"name":"Digital_Camera_lens_2_1_positions","componentType":5126,"count":2548,"min":[0.05920000001788139,-4.15939998626709,1.9509999752044678],"max":[5.249199867248535,-2.677999973297119,7.128200054168701],"type":"VEC3","bufferView":0,"byteOffset":301620},{"name":"Digital_Camera_lens_2_1_normals","componentType":5126,"count":2548,"min":[-1,-1,-1],"max":[1,1,1],"type":"VEC3","bufferView":0,"byteOffset":672360},{"name":"Digital_Camera_lens_2_1_texcoords","componentType":5126,"count":2548,"min":[0,0],"max":[1,1],"type":"VEC2","bufferView":1,"byteOffset":201080},{"name":"Digital_Camera_lens_2_1_0_indices","componentType":5123,"count":9036,"min":[0],"max":[2547],"type":"SCALAR","bufferView":2,"byteOffset":181128},{"name":"Digital_Camera_lens_3_1_positions","componentType":5126,"count":3212,"min":[1.242799997329712,-3.8215999603271484,3.134999990463257],"max":[4.0655999183654785,-2.7358999252319336,5.959499835968018],"type":"VEC3","bufferView":0,"byteOffset":332196},{"name":"Digital_Camera_lens_3_1_normals","componentType":5126,"count":3212,"min":[-1,-1,-1],"max":[1,0,1],"type":"VEC3","bufferView":0,"byteOffset":702936},{"name":"Digital_Camera_lens_3_1_texcoords","componentType":5126,"count":3212,"min":[0,0],"max":[1,1],"type":"VEC2","bufferView":1,"byteOffset":221464},{"name":"Digital_Camera_lens_3_1_0_indices","componentType":5123,"count":9600,"min":[0],"max":[3211],"type":"SCALAR","bufferView":2,"byteOffset":199200}],"asset":{"generator":"obj2gltf","version":"2.0"},"buffers":[{"name":"input","byteLength":1207040,"uri":"data:application/octet-stream;base64,"}],"bufferViews":[{"name":"bufferView_0","buffer":0,"byteLength":741480,"byteOffset":0,"byteStride":12,"target":34962},{"name":"bufferView_1","buffer":0,"byteLength":247160,"byteOffset":741480,"byteStride":8,"target":34962},{"name":"bufferView_2","buffer":0,"byteLength":218400,"byteOffset":988640,"target":34963}],"materials":[{"name":"LCDScreen","pbrMetallicRoughness":{"baseColorFactor":[0.5,0.5,0.5,1],"metallicFactor":0,"roughnessFactor":1},"emissiveFactor":[0,0,0],"alphaMode":"OPAQUE","doubleSided":false},{"name":"ButtonSilver","pbrMetallicRoughness":{"baseColorFactor":[0.5,0.5,0.5,1],"metallicFactor":0,"roughnessFactor":1},"emissiveFactor":[0,0,0],"alphaMode":"OPAQUE","doubleSided":false},{"name":"LensGlass","pbrMetallicRoughness":{"baseColorFactor":[0.5,0.5,0.5,1],"metallicFactor":0,"roughnessFactor":1},"emissiveFactor":[0,0,0],"alphaMode":"OPAQUE","doubleSided":false},{"name":"PlasticBlack","pbrMetallicRoughness":{"baseColorFactor":[0.5,0.5,0.5,1],"metallicFactor":0,"roughnessFactor":1},"emissiveFactor":[0,0,0],"alphaMode":"OPAQUE","doubleSided":false},{"name":"ButtonsandModes","pbrMetallicRoughness":{"baseColorFactor":[0.5,0.5,0.5,1],"metallicFactor":0,"roughnessFactor":1},"emissiveFactor":[0,0,0],"alphaMode":"OPAQUE","doubleSided":false},{"name":"BodySilver","pbrMetallicRoughness":{"baseColorFactor":[0.5,0.5,0.5,1],"metallicFactor":0,"roughnessFactor":1},"emissiveFactor":[0,0,0],"alphaMode":"OPAQUE","doubleSided":false}],"meshes":[{"name":"Digital_Camera_lcd_screen_1","primitives":[{"attributes":{"POSITION":0,"NORMAL":1,"TEXCOORD_0":2},"indices":3,"material":0,"mode":4}]},{"name":"Digital_Camera_roll_1","primitives":[{"attributes":{"POSITION":4,"NORMAL":5,"TEXCOORD_0":6},"indices":7,"material":1,"mode":4}]},{"name":"Digital_Camera_flash_lamp_metal_1","primitives":[{"attributes":{"POSITION":8,"NORMAL":9,"TEXCOORD_0":10},"indices":11,"material":1,"mode":4}]},{"name":"Digital_Camera_flash_lamp_glass1_1","primitives":[{"attributes":{"POSITION":12,"NORMAL":13,"TEXCOORD_0":14},"indices":15,"material":2,"mode":4}]},{"name":"Digital_Camera_glass_5_1","primitives":[{"attributes":{"POSITION":16,"NORMAL":17,"TEXCOORD_0":18},"indices":19,"material":2,"mode":4}]},{"name":"Digital_Camera_glass_4_1","primitives":[{"attributes":{"POSITION":20,"NORMAL":21,"TEXCOORD_0":22},"indices":23,"material":2,"mode":4}]},{"name":"Digital_Camera_glass_3_1","primitives":[{"attributes":{"POSITION":24,"NORMAL":25,"TEXCOORD_0":26},"indices":27,"material":3,"mode":4}]},{"name":"Digital_Camera_glass_2_1","primitives":[{"attributes":{"POSITION":28,"NORMAL":29,"TEXCOORD_0":30},"indices":31,"material":3,"mode":4}]},{"name":"Digital_Camera_glass_1","primitives":[{"attributes":{"POSITION":32,"NORMAL":33,"TEXCOORD_0":34},"indices":35,"material":2,"mode":4}]},{"name":"Digital_Camera_buttons_1","primitives":[{"attributes":{"POSITION":36,"NORMAL":37,"TEXCOORD_0":38},"indices":39,"material":4,"mode":4}]},{"name":"Digital_Camera_back_1","primitives":[{"attributes":{"POSITION":40,"NORMAL":41,"TEXCOORD_0":42},"indices":43,"material":5,"mode":4}]},{"name":"Digital_Camera_Front_1","primitives":[{"attributes":{"POSITION":44,"NORMAL":45,"TEXCOORD_0":46},"indices":47,"material":5,"mode":4}]},{"name":"Digital_Camera_lcd_black_1","primitives":[{"attributes":{"POSITION":48,"NORMAL":49,"TEXCOORD_0":50},"indices":51,"material":3,"mode":4}]},{"name":"Digital_Camera_metal_line_1","primitives":[{"attributes":{"POSITION":52,"NORMAL":53,"TEXCOORD_0":54},"indices":55,"material":3,"mode":4}]},{"name":"Digital_Camera_Main_button_2_1","primitives":[{"attributes":{"POSITION":56,"NORMAL":57,"TEXCOORD_0":58},"indices":59,"material":1,"mode":4}]},{"name":"Digital_Camera_Main_button_1","primitives":[{"attributes":{"POSITION":60,"NORMAL":61,"TEXCOORD_0":62},"indices":63,"material":1,"mode":4}]},{"name":"Digital_Camera_lens_1_1","primitives":[{"attributes":{"POSITION":64,"NORMAL":65,"TEXCOORD_0":66},"indices":67,"material":5,"mode":4}]},{"name":"Digital_Camera_lens_2_1","primitives":[{"attributes":{"POSITION":68,"NORMAL":69,"TEXCOORD_0":70},"indices":71,"material":5,"mode":4}]},{"name":"Digital_Camera_lens_3_1","primitives":[{"attributes":{"POSITION":72,"NORMAL":73,"TEXCOORD_0":74},"indices":75,"material":3,"mode":4}]}],"nodes":[{"name":"Digital_Camera_lcd_screen","mesh":0},{"name":"Digital_Camera_roll","mesh":1},{"name":"Digital_Camera_flash_lamp_metal","mesh":2},{"name":"Digital_Camera_flash_lamp_glass1","mesh":3},{"name":"Digital_Camera_glass_5","mesh":4},{"name":"Digital_Camera_glass_4","mesh":5},{"name":"Digital_Camera_glass_3","mesh":6},{"name":"Digital_Camera_glass_2","mesh":7},{"name":"Digital_Camera_glass","mesh":8},{"name":"Digital_Camera_buttons","mesh":9},{"name":"Digital_Camera_back","mesh":10},{"name":"Digital_Camera_Front","mesh":11},{"name":"Digital_Camera_lcd_black","mesh":12},{"name":"Digital_Camera_metal_line","mesh":13},{"name":"Digital_Camera_Main_button_2","mesh":14},{"name":"Digital_Camera_Main_button","mesh":15},{"name":"Digital_Camera_lens_1","mesh":16},{"name":"Digital_Camera_lens_2","mesh":17},{"name":"Digital_Camera_lens_3","mesh":18}],"scene":0,"scenes":[{"nodes":[0,1,2,3,4,5,6,7,8,9,10,11,12,13,14,15,16,17,18]}]}
