{
	"accessors": {
		"accessor_0": {
			"bufferView": "bufferView_0",
			"byteOffset": 14824,
			"byteStride": 0,
			"componentType": 5123,
			"count": 3246,
			"min": [0, 0, 0],
			"max": [65535, 65535, 65535],
			"type": "VEC3",
			"extensions": {
				"WEB3D_quantized_attributes": {
					"decodedMin": [-2.482412099838257, 0.0966619998216629, -3.2814340591430664],
					"decodedMax": [2.443690061569214, 6.914234161376953, 3.0246500968933105],
					"decodeMatrix": [0.00007516750074628017, 0, 0, 0, 0, 0.00010402948289548013, 0, 0, 0, 0, 0.00009622467621936945, 0, -2.482412099838257, 0.0966619998216629, -3.2814340591430664, 1]
				}
			}
		},
		"accessor_1": {
			"bufferView": "bufferView_0",
			"byteOffset": 37060,
			"byteStride": 0,
			"componentType": 5121,
			"count": 3246,
			"min": [0, 0],
			"max": [255, 255],
			"type": "VEC2"
		},
		"accessor_2": {
			"bufferView": "bufferView_0",
			"byteOffset": 0,
			"byteStride": 0,
			"componentType": 5126,
			"count": 3246,
			"min": [0],
			"max": [16777215],
			"type": "SCALAR"
		},
		"accessor_3": {
			"bufferView": "bufferView_1",
			"byteOffset": 0,
			"byteStride": 0,
			"componentType": 5123,
			"count": 6132,
			"min": [0],
			"max": [3245],
			"type": "SCALAR"
		},
		"accessor_4": {
			"bufferView": "bufferView_0",
			"byteOffset": 34300,
			"byteStride": 0,
			"componentType": 5123,
			"count": 230,
			"min": [0, 0, 0],
			"max": [65535, 65535, 65535],
			"type": "VEC3",
			"extensions": {
				"WEB3D_quantized_attributes": {
					"decodedMin": [-1.113690972328186, 3.224713087081909, 1.6592780351638794],
					"decodedMax": [-0.4684549868106842, 3.7861669063568115, 1.8623989820480347],
					"decodeMatrix": [0.000009845670031548056, 0, 0, 0, 0, 0.00000856723612229957, 0, 0, 0, 0, 0.000003099426976183036, 0, -1.113690972328186, 3.224713087081909, 1.6592780351638794, 1]
				}
			}
		},
		"accessor_5": {
			"bufferView": "bufferView_0",
			"byteOffset": 43552,
			"byteStride": 0,
			"componentType": 5121,
			"count": 230,
			"min": [28, 20],
			"max": [230, 221],
			"type": "VEC2"
		},
		"accessor_6": {
			"bufferView": "bufferView_0",
			"byteOffset": 12984,
			"byteStride": 0,
			"componentType": 5126,
			"count": 230,
			"min": [204],
			"max": [16775167],
			"type": "SCALAR"
		},
		"accessor_7": {
			"bufferView": "bufferView_1",
			"byteOffset": 12264,
			"byteStride": 0,
			"componentType": 5123,
			"count": 960,
			"min": [0],
			"max": [188],
			"type": "SCALAR"
		},
		"accessor_8": {
			"bufferView": "bufferView_1",
			"byteOffset": 14184,
			"byteStride": 0,
			"componentType": 5123,
			"count": 180,
			"min": [168],
			"max": [229],
			"type": "SCALAR"
		},
		"accessor_9": {
			"bufferView": "bufferView_0",
			"byteOffset": 35680,
			"byteStride": 0,
			"componentType": 5123,
			"count": 230,
			"min": [0, 0, 0],
			"max": [65535, 65535, 65535],
			"type": "VEC3",
			"extensions": {
				"WEB3D_quantized_attributes": {
					"decodedMin": [0.4513390064239502, 3.2261829376220703, 1.6583850383758545],
					"decodedMax": [1.0965750217437744, 3.787484884262085, 1.8624980449676514],
					"decodeMatrix": [0.000009845670486302346, 0, 0, 0, 0, 0.00000856491869443831, 0, 0, 0, 0, 0.0000031145648369847695, 0, 0.4513390064239502, 3.2261829376220703, 1.6583850383758545, 1]
				}
			}
		},
		"accessor_10": {
			"bufferView": "bufferView_0",
			"byteOffset": 44012,
			"byteStride": 0,
			"componentType": 5121,
			"count": 230,
			"min": [28, 20],
			"max": [230, 221],
			"type": "VEC2"
		},
		"accessor_11": {
			"bufferView": "bufferView_0",
			"byteOffset": 13904,
			"byteStride": 0,
			"componentType": 5126,
			"count": 230,
			"min": [204],
			"max": [16775167],
			"type": "SCALAR"
		},
		"accessor_12": {
			"bufferView": "bufferView_1",
			"byteOffset": 14544,
			"byteStride": 0,
			"componentType": 5123,
			"count": 960,
			"min": [0],
			"max": [188],
			"type": "SCALAR"
		},
		"accessor_13": {
			"bufferView": "bufferView_1",
			"byteOffset": 16464,
			"byteStride": 0,
			"componentType": 5123,
			"count": 180,
			"min": [168],
			"max": [229],
			"type": "SCALAR"
		}
	},
	"asset": {
		"generator": "obj2gltf",
		"profile": {
			"api": "WebGL",
			"version": "1.0"
		},
		"version": "1.0",
		"premultipliedAlpha": true
	},
	"buffers": {
		"buffer": {
			"byteLength": 61296,
			"uri": "data:application/octet-stream;base64,",
			"type": "arraybuffer"
		}
	},
	"bufferViews": {
		"bufferView_0": {
			"buffer": "buffer",
			"byteLength": 44472,
			"byteOffset": 0,
			"target": 34962
		},
		"bufferView_1": {
			"buffer": "buffer",
			"byteLength": 16824,
			"byteOffset": 44472,
			"target": 34963
		}
	},
	"extensionsUsed": ["WEB3D_quantized_attributes"],
	"images": {},
	"materials": {
		"misss_fast_skin_maya2SG": {
			"technique": "technique0",
			"values": {
				"ambient": [0, 0, 0, 1],
				"diffuse": [0.5, 0.5, 0.5, 1],
				"emission": [0, 0, 0, 1],
				"specular": [0, 0, 0, 1],
				"shininess": 0,
				"transparency": 1
			}
		},
		"mia_material_x2SG": {
			"technique": "technique0",
			"values": {
				"ambient": [0, 0, 0, 1],
				"diffuse": [0.5, 0.5, 0.5, 1],
				"emission": [0, 0, 0, 1],
				"specular": [0, 0, 0, 1],
				"shininess": 0,
				"transparency": 1
			}
		},
		"mia_material_x1SG": {
			"technique": "technique0",
			"values": {
				"ambient": [0, 0, 0, 1],
				"diffuse": [0.5, 0.5, 0.5, 1],
				"emission": [0, 0, 0, 1],
				"specular": [0, 0, 0, 1],
				"shininess": 0,
				"transparency": 1
			}
		}
	},
	"meshes": {
		"polySurface12_1": {
			"name": "polySurface12_1",
			"primitives": [{
				"attributes": {
					"POSITION": "accessor_0",
					"NORMAL": "accessor_1",
					"TEXCOORD_0": "accessor_2"
				},
				"indices": "accessor_3",
				"material": "misss_fast_skin_maya2SG",
				"mode": 4
			}]
		},
		"pSphere2_1": {
			"name": "pSphere2_1",
			"primitives": [{
				"attributes": {
					"POSITION": "accessor_4",
					"NORMAL": "accessor_5",
					"TEXCOORD_0": "accessor_6"
				},
				"indices": "accessor_7",
				"material": "mia_material_x2SG",
				"mode": 4
			}, {
				"attributes": {
					"POSITION": "accessor_4",
					"NORMAL": "accessor_5",
					"TEXCOORD_0": "accessor_6"
				},
				"indices": "accessor_8",
				"material": "mia_material_x1SG",
				"mode": 4
			}]
		},
		"pSphere3_1": {
			"name": "pSphere3_1",
			"primitives": [{
				"attributes": {
					"POSITION": "accessor_9",
					"NORMAL": "accessor_10",
					"TEXCOORD_0": "accessor_11"
				},
				"indices": "accessor_12",
				"material": "mia_material_x2SG",
				"mode": 4
			}, {
				"attributes": {
					"POSITION": "accessor_9",
					"NORMAL": "accessor_10",
					"TEXCOORD_0": "accessor_11"
				},
				"indices": "accessor_13",
				"material": "mia_material_x1SG",
				"mode": 4
			}]
		}
	},
	"nodes": {
		"polySurface12": {
			"name": "polySurface12",
			"meshes": ["polySurface12_1"],
			"children": [],
			"matrix": [1, 0, 0, 0, 0, 1, 0, 0, 0, 0, 1, 0, 0, 0, 0, 1]
		},
		"pSphere2": {
			"name": "pSphere2",
			"meshes": ["pSphere2_1"],
			"children": [],
			"matrix": [1, 0, 0, 0, 0, 1, 0, 0, 0, 0, 1, 0, 0, 0, 0, 1]
		},
		"pSphere3": {
			"name": "pSphere3",
			"meshes": ["pSphere3_1"],
			"children": [],
			"matrix": [1, 0, 0, 0, 0, 1, 0, 0, 0, 0, 1, 0, 0, 0, 0, 1]
		}
	},
	"samplers": {},
	"scene": "scene",
	"scenes": {
		"scene": {
			"nodes": ["polySurface12", "pSphere2", "pSphere3"]
		}
	},
	"textures": {},
	"animations": {},
	"cameras": {},
	"programs": {
		"program0": {
			"attributes": ["a_position", "a_normal", "a_texcoord_0"],
			"fragmentShader": "fragmentShader0",
			"vertexShader": "vertexShader0"
		}
	},
	"shaders": {
		"vertexShader0": {
			"type": 35633,
			"uri": "data:text/plain;base64,"
		},
		"fragmentShader0": {
			"type": 35632,
			"uri": "data:text/plain;base64,"
		}
	},
	"skins": {},
	"techniques": {
		"technique0": {
			"attributes": {
				"a_position": "position",
				"a_normal": "normal",
				"a_texcoord_0": "texcoord_0"
			},
			"parameters": {
				"modelViewMatrix": {
					"semantic": "MODELVIEW",
					"type": 35676
				},
				"projectionMatrix": {
					"semantic": "PROJECTION",
					"type": 35676
				},
				"normalMatrix": {
					"semantic": "MODELVIEWINVERSETRANSPOSE",
					"type": 35675
				},
				"ambient": {
					"type": 35666
				},
				"diffuse": {
					"type": 35666
				},
				"emission": {
					"type": 35666
				},
				"specular": {
					"type": 35666
				},
				"shininess": {
					"type": 5126
				},
				"transparency": {
					"type": 5126
				},
				"position": {
					"semantic": "POSITION",
					"type": 35665
				},
				"normal": {
					"semantic": "NORMAL",
					"type": 35667
				},
				"texcoord_0": {
					"semantic": "TEXCOORD_0",
					"type": 5126
				}
			},
			"program": "program0",
			"states": {
				"enable": [2884, 2929]
			},
			"uniforms": {
				"u_modelViewMatrix": "modelViewMatrix",
				"u_projectionMatrix": "projectionMatrix",
				"u_normalMatrix": "normalMatrix",
				"u_ambient": "ambient",
				"u_diffuse": "diffuse",
				"u_emission": "emission",
				"u_specular": "specular",
				"u_shininess": "shininess",
				"u_transparency": "transparency"
			}
		}
	}
}