{"accessors":[{"name":"text_no_bevel.1-Mesh_positions","componentType":5126,"count":3840,"min":[78.28364562988281,-251.12721252441406,-227.50048828125],"max":[128.28366088867188,233.2638397216797,269.453369140625],"type":"VEC3","bufferView":0,"byteOffset":0},{"name":"text_no_bevel.1-Mesh_normals","componentType":5126,"count":3840,"min":[-0.9711217880249023,-0.8362376093864441,-0.8271949291229248],"max":[0.9711217284202576,0.8359812498092651,0.8272314071655273],"type":"VEC3","bufferView":0,"byteOffset":121296},{"name":"text_no_bevel.1-Mesh_texcoords","componentType":5126,"count":3840,"min":[0.007733449339866638,0.007693946361541748],"max":[0.9922665357589722,0.9923059940338135],"type":"VEC2","bufferView":1,"byteOffset":0},{"name":"text_no_bevel.1-Mesh_0_indices","componentType":5123,"count":10764,"min":[0],"max":[3839],"type":"SCALAR","bufferView":2,"byteOffset":0},{"name":"inner_text_bevle.1-Mesh_positions","componentType":5126,"count":5961,"min":[82.91710662841797,-260.3424072265625,-234.56858825683594],"max":[123.91712188720703,240.33383178710938,276.5277099609375],"type":"VEC3","bufferView":0,"byteOffset":46080},{"name":"inner_text_bevle.1-Mesh_normals","componentType":5126,"count":5961,"min":[-0.9993419051170349,-0.9316222071647644,-0.9771433472633362],"max":[0.9999995231628418,0.9981167316436768,0.9824796915054321],"type":"VEC3","bufferView":0,"byteOffset":167376},{"name":"inner_text_bevle.1-Mesh_texcoords","componentType":5126,"count":5961,"min":[0.007622812408953905,0.007639408111572266],"max":[0.9923771619796753,0.9923605918884277],"type":"VEC2","bufferView":1,"byteOffset":30720},{"name":"inner_text_bevle.1-Mesh_0_indices","componentType":5123,"count":21003,"min":[0],"max":[5960],"type":"SCALAR","bufferView":2,"byteOffset":21528},{"name":"IX_WHITE.1-Mesh_positions","componentType":5126,"count":197,"min":[15,-381.9240417480469,-354.89678955078125],"max":[105,364.148193359375,379.65313720703125],"type":"VEC3","bufferView":0,"byteOffset":117612},{"name":"IX_WHITE.1-Mesh_normals","componentType":5126,"count":197,"min":[-0.9985796213150024,-0.9363040924072266,-0.9360405802726746],"max":[0.9985796213150024,0.9360124468803406,0.9347343444824219],"type":"VEC3","bufferView":0,"byteOffset":238908},{"name":"IX_WHITE.1-Mesh_texcoords","componentType":5126,"count":197,"min":[0.008234888315200806,0.008515655994415283],"max":[0.9917650818824768,0.9914842844009399],"type":"VEC2","bufferView":1,"byteOffset":78408},{"name":"IX_WHITE.1-Mesh_0_indices","componentType":5123,"count":432,"min":[0],"max":[196],"type":"SCALAR","bufferView":2,"byteOffset":63536},{"name":"IX_BLACK.1-Mesh_positions","componentType":5126,"count":110,"min":[0,-375.22308349609375,-348.197265625],"max":[120,357.46392822265625,372.94329833984375],"type":"VEC3","bufferView":0,"byteOffset":119976},{"name":"IX_BLACK.1-Mesh_normals","componentType":5126,"count":110,"min":[-0.9950363636016846,-0.7786780595779419,-0.7805493474006653],"max":[0.9950363636016846,0.7772580981254578,0.7781656980514526],"type":"VEC3","bufferView":0,"byteOffset":241272},{"name":"IX_BLACK.1-Mesh_texcoords","componentType":5126,"count":110,"min":[0.008616483770310879,0.008391380310058594],"max":[0.9913834929466248,0.9916086196899414],"type":"VEC2","bufferView":1,"byteOffset":79984},{"name":"IX_BLACK.1-Mesh_0_indices","componentType":5123,"count":192,"min":[0],"max":[109],"type":"SCALAR","bufferView":2,"byteOffset":64400}],"asset":{"generator":"obj2gltf","version":"2.0"},"buffers":[{"name":"input","byteLength":388240,"uri":"data:application/octet-stream;base64,"}],"bufferViews":[{"name":"bufferView_0","buffer":0,"byteLength":242592,"byteOffset":0,"byteStride":12,"target":34962},{"name":"bufferView_1","buffer":0,"byteLength":80864,"byteOffset":242592,"byteStride":8,"target":34962},{"name":"bufferView_2","buffer":0,"byteLength":64784,"byteOffset":323456,"target":34963}],"materials":[{"name":"text no bevel","pbrMetallicRoughness":{"baseColorFactor":[0.5,0.5,0.5,1],"metallicFactor":0,"roughnessFactor":1},"emissiveFactor":[0,0,0],"alphaMode":"OPAQUE","doubleSided":false},{"name":"inner text bevle","pbrMetallicRoughness":{"baseColorFactor":[0.5,0.5,0.5,1],"metallicFactor":0,"roughnessFactor":1},"emissiveFactor":[0,0,0],"alphaMode":"OPAQUE","doubleSided":false},{"name":"IX WHITE","pbrMetallicRoughness":{"baseColorFactor":[0.5,0.5,0.5,1],"metallicFactor":0,"roughnessFactor":1},"emissiveFactor":[0,0,0],"alphaMode":"OPAQUE","doubleSided":false},{"name":"IX BLACK","pbrMetallicRoughness":{"baseColorFactor":[0.5,0.5,0.5,1],"metallicFactor":0,"roughnessFactor":1},"emissiveFactor":[0,0,0],"alphaMode":"OPAQUE","doubleSided":false}],"meshes":[{"name":"text_no_bevel.1-Mesh","primitives":[{"attributes":{"POSITION":0,"NORMAL":1,"TEXCOORD_0":2},"indices":3,"material":0,"mode":4}]},{"name":"inner_text_bevle.1-Mesh","primitives":[{"attributes":{"POSITION":4,"NORMAL":5,"TEXCOORD_0":6},"indices":7,"material":1,"mode":4}]},{"name":"IX_WHITE.1-Mesh","primitives":[{"attributes":{"POSITION":8,"NORMAL":9,"TEXCOORD_0":10},"indices":11,"material":2,"mode":4}]},{"name":"IX_BLACK.1-Mesh","primitives":[{"attributes":{"POSITION":12,"NORMAL":13,"TEXCOORD_0":14},"indices":15,"material":3,"mode":4}]}],"nodes":[{"name":"text_no_bevel.1","mesh":0},{"name":"inner_text_bevle.1","mesh":1},{"name":"IX_WHITE.1","mesh":2},{"name":"IX_BLACK.1","mesh":3}],"scene":0,"scenes":[{"nodes":[0,1,2,3]}]}
