<!-- <?xml version="1.0" encoding="UTF-8"?>
<!DOCTYPE svg PUBLIC "-//W3C//DTD SVG 1.1//EN" "http://www.w3.org/Graphics/SVG/1.1/DTD/svg11.dtd">
Creator: CorelDRAW X7 -->
<svg xmlns="http://www.w3.org/2000/svg" xml:space="preserve" width="158.675mm" height="162.866mm" version="1.1" style="shape-rendering:geometricPrecision; text-rendering:geometricPrecision; image-rendering:optimizeQuality; fill-rule:evenodd; clip-rule:evenodd"
viewBox="0 0 14727 15116"
 xmlns:xlink="http://www.w3.org/1999/xlink">
 <defs>
  <style type="text/css">
   <![CDATA[
    .fil0 {fill:white}
   ]]>
  </style>
 </defs>
 <g id="Layer_x0020_1">
  <!-- <metadata id="CorelCorpID_0Corel-Layer"/> -->
  <g id="_1879840815632">
   <path class="fil0" d="M7502 6435c67,-44 3721,-3714 4243,-4237 51,-51 57,-40 70,-75 -183,0 -2022,-11 -2062,5 -22,9 -87,106 -103,130 -64,94 -131,176 -198,270l-676 935c-35,49 -66,84 -100,134l-967 1333c-68,91 -134,180 -196,272 -21,-15 -26,-22 -49,-40 -19,-16 -34,-25 -51,-38l-2105 -1707c-364,-286 -740,-606 -1105,-895l-3064 -2482c-31,-26 -24,-30 -61,-40 14,50 348,365 392,408 580,581 5968,5984 6032,6027z"/>
   <path class="fil0" d="M13915 15083c-43,-65 -4600,-4607 -4798,-4805l-1501 -1500c-33,-33 -79,-61 -91,-109l-34 0c-14,54 -476,493 -525,542l-2690 2690c-182,182 -356,357 -539,539 -80,81 -502,492 -536,542l2023 0 565 -769c51,-62 93,-124 143,-190l1581 -2120c150,101 1184,953 1397,1126l797 649c70,57 135,104 204,162l1201 978c195,170 500,391 694,562 37,32 64,53 104,85 37,29 62,51 97,80l1394 1129c47,41 469,396 514,409z"/>
   <path class="fil0" d="M22 13904c64,-42 5502,-5496 6249,-6243 34,-33 61,-79 109,-92 -4,-50 -63,-90 -120,-147l-4045 -4046c-39,-38 -96,-117 -148,-131l0 1990 677 502c147,118 449,322 587,435l1261 940c68,51 130,97 198,146l191 143c62,50 132,102 198,146 -13,51 -273,349 -312,399 -364,459 -777,936 -1132,1390l-1048 1287c-30,33 -61,70 -86,103l-967 1189c-26,33 -52,63 -81,97l-888 1091c-23,29 -631,756 -643,801z"/>
   <path class="fil0" d="M12937 11859c0,-622 -5,-1245 0,-1867 2,-126 7,-107 -69,-164 -49,-35 -84,-63 -135,-98l-404 -297c-48,-36 -85,-64 -133,-100l-270 -197c-45,-33 -89,-63 -135,-98l-134 -99c-175,-146 -618,-451 -808,-594 -79,-59 -978,-734 -1079,-787 90,-135 205,-255 307,-381 106,-131 206,-248 312,-378l465 -569c55,-70 104,-129 159,-196l156 -189c52,-65 102,-124 155,-189l232 -280c132,-157 253,-324 389,-477l856 -1045c28,-31 57,-67 81,-97 49,-64 106,-126 155,-189l1637 -1998c38,-42 53,-48 53,-125 -81,54 -6097,6096 -6097,6097 -9,28 4,34 17,49l255 257c2,1 4,4 5,5l69 66c18,20 24,25 44,44l339 339c2,1 4,4 6,5l1277 1280c10,11 6,7 16,17l117 116c2,2 4,4 5,6 11,11 12,12 23,22l145 144c1,2 4,4 5,6l195 194c3,2 9,9 11,11 2,1 4,4 6,5 2,2 4,4 6,6l560 562c2,1 4,4 6,5l223 222c2,1 4,3 6,5l16 17c5,6 8,9 16,17l134 133c2,2 9,9 12,11l311 311c1,2 4,4 6,6 1,1 4,3 6,5l48 51c16,17 22,20 40,38l222 223c42,38 80,98 128,128 12,7 -7,7 32,11z"/>
   <polygon class="fil0" points="11,13915 0,13915 9,13928 "/>
   <polygon class="fil0" points="13938,15105 13938,15116 13951,15107 "/>
   <polygon class="fil0" points="22,13904 11,13915 "/>
   <polygon class="fil0" points="13927,15094 13915,15083 "/>
   <polygon class="fil0" points="13938,15105 13927,15094 "/>
  </g>
 </g>
</svg>
