{"accessors":[{"name":"Form7_mat__1_positions","componentType":5126,"count":2404,"min":[-7.407869815826416,-5.974860191345215,-0.31995001435279846],"max":[4.5418500900268555,5.974860191345215,11.629799842834473],"type":"VEC3","bufferView":0,"byteOffset":0},{"name":"Form7_mat__1_normals","componentType":5126,"count":2404,"min":[-1,-1,-1],"max":[1,1,1],"type":"VEC3","bufferView":0,"byteOffset":28848},{"name":"Form7_mat__1_0_indices","componentType":5123,"count":17280,"min":[0],"max":[2403],"type":"SCALAR","bufferView":1,"byteOffset":0}],"asset":{"generator":"obj2gltf","version":"2.0"},"buffers":[{"name":"input","byteLength":92256,"uri":"data:application/octet-stream;base64,"}],"bufferViews":[{"name":"bufferView_0","buffer":0,"byteLength":57696,"byteOffset":0,"byteStride":12,"target":34962},{"name":"bufferView_1","buffer":0,"byteLength":34560,"byteOffset":57696,"target":34963}],"materials":[{"name":"mat_2","pbrMetallicRoughness":{"baseColorFactor":[0.5,0.5,0.5,1],"metallicFactor":0,"roughnessFactor":1},"emissiveFactor":[0,0,0],"alphaMode":"OPAQUE","doubleSided":false}],"meshes":[{"name":"Form7_mat__1","primitives":[{"attributes":{"POSITION":0,"NORMAL":1},"indices":2,"material":0,"mode":4}]}],"nodes":[{"name":"Form7_mat_","mesh":0}],"scene":0,"scenes":[{"nodes":[0]}]}
