<svg viewBox="0 0 16 18" xmlns="http://www.w3.org/2000/svg"><path d="M8 18c-.243 0-.477-.062-.676-.178l-6.65-3.828A1.393 1.393 0 0 1 0 12.829V5.167C0 4.701.272 4.232.677 4L7.328.172c.401-.23.945-.229 1.341-.002l6.657 3.832c.403.23.674.699.674 1.165v7.661c0 .463-.27.93-.67 1.163l-6.658 3.832A1.326 1.326 0 0 1 8 18zm-6-5.55l6 3.453 6-3.453V5.546L8 2.093 2 5.546v6.904zm5.926-6.863a.161.161 0 0 1 .148 0l2.852 1.642a.16.16 0 0 1 .074.128v3.283a.164.164 0 0 1-.074.128l-2.852 1.641a.161.161 0 0 1-.148 0l-2.852-1.641A.165.165 0 0 1 5 10.64V7.357a.16.16 0 0 1 .074-.128l2.852-1.642z" fill="#76BFC5"/></svg>