<svg viewBox="0 0 51 14" xmlns="http://www.w3.org/2000/svg"><path d="M10.6 5.8c.1 0 .2.1.1.2v6.4s0 .1-.1.1c0 0-1.4 1-3.7 1-2.8 0-6.1-.9-6.1-6.6C.8 1.2 3.7 0 6.5 0 9 0 9.9.6 10.1.7c.1.1.1.1.1.2l-.5 2c0 .1-.1.2-.2.2-.4-.2-1-.4-2.4-.4-1.7 0-3.4.5-3.4 4.2S5.4 11 6.6 11c1 0 1.4-.1 1.4-.1V8.3H6.4c-.1 0-.2-.1-.2-.2V6c0-.1.1-.2.2-.2h4.2zm4.3 4.7c0 .3 0 2-.1 2.5 0 .2-.1.3-.3.3h-2.1c-.2 0-.3-.1-.3-.3V4.8c0-.1.1-.2.2-.2h2.4c.1 0 .2.1.2.2v5.7zm-1.3-6.7a1.5 1.5 0 1 1 0-3 1.5 1.5 0 0 1 0 3zm8.1.7c.1 0 .2.1.4.2v1.9c0 .1-.1.2-.2.2h-1.8v3.5c0 .5.3.9 1.2.9h.6c.1 0 .2.1.2.2v1.7c0 .1 0 .2-.1.2s-.8.2-1.4.2c-1.3 0-3.2-.3-3.2-3V6.8h-1.2c-.1 0-.2-.1-.2-.2V5.1c0-.1 0-.2.1-.2s1.3-.3 1.3-.3V2.2c0-.1 0-.1.1-.1h2.4c.1 0 .1 0 .1.1v2.3h1.7zM32.3.7v12.4c0 .1-.1.2-.2.2h-2.4c-.1 0-.2-.1-.2-.2V7.8h-3.7v5.3c0 .1-.1.2-.2.2h-2.4c-.1 0-.2-.1-.2-.2V.7c0-.1.1-.2.2-.2h2.4c.1 0 .2.1.2.2v4.6h3.7V.7c0-.1.1-.2.2-.2h2.4c.1 0 .2.1.2.2zm9 3.9c.1 0 .2.1.3.2v8.3c0 .1-.1.2-.2.2h-1.5c-.1 0-.2 0-.2-.1l-.1-.5s-1.3.9-2.8.9c-1.9 0-3.3-.6-3.3-3.1V4.8c0-.1.1-.2.2-.2h2.4c.1 0 .2.1.2.2v5.3c0 .8.3 1.2 1.1 1.2s1.4-.4 1.4-.4V4.8c0-.1.1-.2.2-.2h2.3zm6.4-.3c1.3 0 3.3.5 3.3 4.3s-1.2 4.9-3.4 4.9c-1.8 0-2.8-.9-2.8-.9s-.1.5-.1.6c-.1.1-.1.1-.2.1h-1.6c-.1 0-.2-.1-.2-.2V.7c0-.1.1-.2.2-.2h2.4c.1 0 .2.1.2.2v4.2s.9-.6 2.2-.6zm-.9 7c1.1 0 1.5-.4 1.5-2.5 0-2-.9-2.3-1.7-2.2-.7.1-1.2.4-1.2.4v3.9s.6.4 1.4.4z" fill="#FFF"/></svg>