<?xml version="1.0" encoding="UTF-8"?>
<!DOCTYPE svg PUBLIC "-//W3C//DTD SVG 1.1//EN" "http://www.w3.org/Graphics/SVG/1.1/DTD/svg11.dtd">
<!-- Creator: CorelDRAW X7 -->
<svg xmlns="http://www.w3.org/2000/svg" xml:space="preserve" width="21.6152mm" height="24.959mm" version="1.1" style="shape-rendering:geometricPrecision; text-rendering:geometricPrecision; image-rendering:optimizeQuality; fill-rule:evenodd; clip-rule:evenodd"
viewBox="0 0 130 150"
 xmlns:xlink="http://www.w3.org/1999/xlink">
 <defs>
  <style type="text/css">
   <![CDATA[
    .fil0 {fill:#00A5FE}
    .fil1 {fill:white}
   ]]>
  </style>
 </defs>
 <g id="Layer_x0020_1">
  <metadata id="CorelCorpID_0Corel-Layer"/>
  <g id="_1333553176144">
   <polygon class="fil0" points="65,0 98,19 130,38 130,75 130,113 98,131 65,150 33,131 0,113 0,75 0,38 33,19 "/>
   <g>
    <path class="fil1" d="M38 77c-8,3 -7,12 -7,23 0,8 -1,4 -2,8 -2,6 8,9 9,2 0,-4 -3,-3 -3,-7 0,-3 0,-7 0,-10 3,0 3,0 3,3 0,6 1,10 5,14 5,5 12,4 20,4 8,0 16,1 22,-3 6,-4 6,-8 7,-17l3 -1c0,3 0,8 0,11 -1,2 -4,4 -3,8 4,7 15,-3 6,-7 0,-6 0,-11 0,-17 1,-7 -1,-9 -6,-11 0,-12 0,-17 -6,-25 -10,-14 -31,-14 -42,0 -7,8 -6,13 -6,25zm31 7c-1,3 1,3 2,3 2,0 2,-5 -2,-3zm6 0c-1,2 1,4 2,3 2,-2 0,-4 -2,-3zm5 0c-1,2 1,4 3,3 2,-2 0,-4 -3,-3zm-20 -34c-8,2 -15,8 -14,18 2,9 14,6 25,6 5,0 10,0 12,-4 4,-8 -4,-23 -23,-20z"/>
    <path class="fil1" d="M76 116l-22 0c0,5 6,7 11,7 5,1 11,-2 11,-7z"/>
    <path class="fil1" d="M63 40l3 0c1,-3 0,-3 1,-5 1,-1 2,-1 2,-3 2,-7 -10,-7 -9,0 1,5 3,0 3,8z"/>
    <path class="fil1" d="M51 62c-4,2 -1,8 4,6 4,-2 1,-9 -4,-6z"/>
    <path class="fil1" d="M75 62c-4,3 0,8 4,6 4,-2 0,-9 -4,-6z"/>
   </g>
  </g>
 </g>
</svg>
