<svg id="Layer_1" xmlns="http://www.w3.org/2000/svg" viewBox="0 0 803 452"><style>.st0{fill:#e0f2f3}.st1,.st2{fill:none;stroke:#69c9d2;stroke-width:5;stroke-miterlimit:10}.st2{fill:#fff;stroke-width:2}.st3{opacity:.39}.st3,.st4,.st5{fill:#69c9d2}.st4{opacity:.16}.st5{opacity:.65}.st6{stroke:#69c9d2;stroke-width:2.5;stroke-miterlimit:10}.st6,.st7{fill:#fff}</style><path class="st0" d="M397.34 320.791V131.209a18.637 18.637 0 0 0-9.456-16.219L219.875 19.882a18.636 18.636 0 0 0-18.363 0L33.504 114.989a18.637 18.637 0 0 0-9.456 16.219v189.583a18.637 18.637 0 0 0 9.456 16.219l168.009 95.107a18.636 18.636 0 0 0 18.363 0l168.009-95.107a18.638 18.638 0 0 0 9.455-16.219z"/><path class="st1" d="M371.252 316.011V134.032l-160.994-90.99-160.994 90.99v181.979L210.258 407z"/><ellipse class="st2" cx="51.008" cy="134.435" rx="10.024" ry="9.813"/><ellipse class="st2" cx="370.38" cy="134.435" rx="10.024" ry="9.813"/><ellipse class="st2" cx="210.694" cy="407.926" rx="10.024" ry="9.813"/><ellipse class="st2" cx="210.694" cy="225.444" rx="10.024" ry="9.813"/><path class="st3" d="M369.573 143.9c-3.925 0-6.645-1.82-8.177-4.346l-141.718 80.769c.915 2.17 1.076 4.674.474 6.96-.895 3.965-4.016 7.366-9.377 7.366-.028 0-.054-.004-.081-.004v162.189c4.604.079 7.521 2.68 8.757 5.966l142.48-83.39c-3.795-5.728-1.134-15.537 7.976-15.537.163 0 .315.016.473.023V143.861c-.266.018-.529.039-.807.039z"/><path class="st4" d="M201.44 403.003c1.157-3.278 3.968-5.915 8.412-6.147v-162.25c-6.711-.515-9.534-6.602-8.508-11.847a10.64 10.64 0 0 1 .479-1.89L59.362 139.676c-1.508 2.634-4.275 4.551-8.301 4.551-.308 0-.602-.021-.895-.043V304.22c.133-.004.259-.019.395-.019 8.981 0 11.683 9.504 8.144 15.264l142.735 83.538z"/><path class="st5" d="M361.128 129.162L218.44 47.841c-.1.178-.25.321-.365.489-1.279 3.291-4.249 5.881-8.924 5.881-4.283 0-7.132-2.167-8.565-5.055l-141.215 80.06c1.796 3.147 1.792 7.314-.009 10.46l142.461 81.193c1.218-3.422 4.229-6.154 9.035-6.154 4.379 0 7.264 2.263 8.663 5.248l141.862-80.427c-1.855-3.079-1.938-7.196-.255-10.374z"/><path class="st6" d="M200.669 220.403l-141.32-80.528m302.69 0l-141.321 80.528m-10.024 14.228v163.482"/><ellipse class="st2" cx="51.008" cy="314.467" rx="10.024" ry="9.813"/><ellipse class="st2" cx="370.38" cy="314.467" rx="10.024" ry="9.813"/><ellipse class="st2" cx="209.189" cy="44.074" rx="10.024" ry="9.813"/><path class="st7" d="M492.297 269.877h-16.341V162.538h16.341v107.339zm60.246-107.339c7.025 0 13.134.798 18.326 2.392 5.192 1.596 9.493 3.85 12.904 6.765 3.41 2.916 5.943 6.441 7.598 10.577 1.654 4.137 2.482 8.722 2.482 13.754 0 5.034-.892 9.655-2.673 13.866-1.782 4.212-4.403 7.837-7.865 10.876-3.462 3.04-7.776 5.395-12.942 7.063-5.168 1.67-11.11 2.504-17.83 2.504h-16.951v39.542h-16.265V162.538h33.216zm0 55.239c4.123 0 7.751-.523 10.881-1.569 3.131-1.047 5.752-2.529 7.865-4.448 2.112-1.917 3.703-4.21 4.772-6.876s1.604-5.618 1.604-8.858c0-6.527-2.075-11.661-6.224-15.398s-10.449-5.605-18.898-5.605h-16.951v42.756h16.951zm75.519-42.307v35.954h43.982v12.932h-43.982v45.521h-16.341V162.538h67.959v12.932h-51.618zm124.617 4.559c-.51.848-1.044 1.471-1.604 1.869-.561.399-1.273.598-2.138.598-.917 0-1.961-.411-3.131-1.233-1.172-.822-2.635-1.744-4.391-2.766-1.757-1.021-3.856-1.943-6.3-2.766s-5.371-1.233-8.781-1.233c-3.207 0-6.021.411-8.438 1.233-2.419.822-4.442 1.943-6.07 3.363-1.63 1.42-2.863 3.091-3.704 5.009-.84 1.918-1.26 3.999-1.26 6.241 0 2.891.751 5.282 2.253 7.176 1.501 1.895 3.475 3.513 5.918 4.858s5.217 2.518 8.323 3.514c3.104.997 6.286 2.031 9.545 3.102a98.502 98.502 0 0 1 9.544 3.7c3.104 1.396 5.88 3.152 8.323 5.27 2.443 2.119 4.416 4.71 5.918 7.774 1.501 3.064 2.253 6.814 2.253 11.249 0 4.735-.828 9.17-2.481 13.306-1.655 4.137-4.061 7.749-7.217 10.839s-7.038 5.52-11.645 7.287c-4.607 1.769-9.838 2.654-15.691 2.654-3.513 0-6.924-.337-10.232-1.01-3.31-.673-6.44-1.618-9.392-2.84a47.506 47.506 0 0 1-8.285-4.41 40.661 40.661 0 0 1-6.91-5.793l4.657-7.625a6.188 6.188 0 0 1 1.642-1.494c.637-.398 1.361-.599 2.177-.599 1.069 0 2.303.549 3.703 1.645 1.399 1.097 3.131 2.306 5.192 3.625 2.062 1.321 4.53 2.53 7.407 3.626 2.875 1.097 6.376 1.645 10.499 1.645 3.36 0 6.363-.436 9.011-1.309 2.646-.871 4.873-2.117 6.681-3.737 1.807-1.619 3.194-3.575 4.162-5.867.966-2.292 1.45-4.833 1.45-7.625 0-3.14-.738-5.705-2.214-7.699-1.478-1.992-3.437-3.662-5.88-5.008s-5.219-2.491-8.323-3.438c-3.105-.946-6.287-1.931-9.545-2.952s-6.44-2.205-9.545-3.551c-3.105-1.346-5.879-3.103-8.322-5.27-2.443-2.168-4.404-4.884-5.88-8.148-1.478-3.263-2.215-7.288-2.215-12.071 0-3.837.764-7.55 2.291-11.138s3.754-6.765 6.682-9.53c2.927-2.766 6.528-4.982 10.805-6.652 4.276-1.669 9.163-2.505 14.661-2.505 6.158 0 11.822.96 16.989 2.878 5.166 1.919 9.659 4.672 13.478 8.26l-3.97 7.548z"/></svg>