<svg id="Layer_1" xmlns="http://www.w3.org/2000/svg" viewBox="0 0 1499 452"><style>.st0{fill:#43c2cb}.st1{fill:#fff}</style><path class="st0" d="M200.01 419.451c-106.801.41-193.988-86.978-193.501-194.364C6.99 118.926 93.75 31.911 201.277 32.551c105.988.631 193.037 87.376 192.21 195.085-.812 105.688-86.984 192.156-193.477 191.815zm24.031-211.514l50.367 7.114 4.041-14.467a2448545.5 2448545.5 0 0 1-52.092-7.707c6.023-21.321 11.23-41.714 17.741-61.682 2.143-6.573 6.935-12.741 11.82-17.847 6.406-6.695 15.269-5.21 20.698 2.145 2.272 3.077 4.414 6.336 7.139 8.971 3.476 3.36 8.607 4.997 12.1 1.723 2.293-2.149 2.221-7.203 2.436-11 .086-1.527-1.715-3.327-2.96-4.735-6.07-6.867-14.264-9.3-22.918-9.663-19.308-.811-33.162 9.037-44.044 23.918-10.781 14.743-15.511 32.084-20.656 49.218-1.503 5.004-2.787 10.073-4.294 15.56l-55.392-8.013-1.927 14.704 54.121 8.324-7.027 29.621-51.724-7.226-1.906 14.528 50.13 7.659c0 1.869.202 2.958-.03 3.944-5.293 22.546-10.21 45.192-16.148 67.568-2.832 10.672-7.397 20.969-16.267 28.465-7.301 6.171-15.32 5.143-20.813-2.514-2.478-3.454-4.548-7.548-7.825-9.968-2.391-1.766-7.717-2.832-9.471-1.412-2.602 2.106-4.485 6.769-4.267 10.19.193 3.037 3.11 6.587 5.793 8.653 9.028 6.954 19.661 7.965 30.427 5.845 18.037-3.552 30.759-14.805 38.643-30.718 6.197-12.508 10.837-25.872 15.222-39.168 3.971-12.042 6.662-24.506 10.029-37.205l52.804 7.658 4.203-14.564-54.079-7.953c2.141-10.48 4.048-19.806 6.126-29.966z"/><path class="st1" d="M224.041 207.937l-6.128 29.964 54.079 7.953-4.203 14.564-52.804-7.658c-3.367 12.699-6.058 25.163-10.029 37.205-4.385 13.296-9.025 26.66-15.222 39.168-7.883 15.913-20.606 27.167-38.643 30.718-10.766 2.12-21.399 1.109-30.427-5.845-2.683-2.066-5.6-5.616-5.793-8.653-.218-3.421 1.666-8.084 4.267-10.19 1.754-1.419 7.081-.353 9.471 1.412 3.277 2.42 5.347 6.513 7.825 9.968 5.493 7.657 13.512 8.685 20.813 2.514 8.87-7.497 13.434-17.793 16.267-28.465 5.938-22.375 10.856-45.022 16.148-67.568.232-.987.03-2.075.03-3.944l-50.13-7.659 1.906-14.528 51.724 7.226 7.027-29.621-54.121-8.324 1.927-14.704 55.392 8.013c1.507-5.487 2.791-10.556 4.294-15.56 5.145-17.133 9.876-34.475 20.656-49.218 10.882-14.881 24.736-24.729 44.044-23.918 8.654.363 16.848 2.796 22.918 9.663 1.245 1.408 3.047 3.208 2.96 4.735-.215 3.797-.143 8.851-2.436 11-3.493 3.274-8.624 1.637-12.1-1.723-2.725-2.634-4.868-5.893-7.139-8.971-5.429-7.355-14.292-8.84-20.698-2.145-4.885 5.105-9.677 11.274-11.82 17.847-6.511 19.968-11.718 40.361-17.741 61.682l52.092 7.707-4.041 14.467c-16.997-2.399-33.488-4.728-50.365-7.112zm684.605 50.111H806.818c-.48 1.454-1.063 2.396-1.062 3.337.039 26.958 15.772 56.067 55.859 51.919 11.947-1.236 23.351-4.374 34.251-9.402 1.492-.688 3.065-1.202 5.654-2.205l3.421 16.847c-1.97 1.251-3.62 2.502-5.437 3.421-19.87 10.046-40.926 12.981-62.704 9.181-23.814-4.155-40.265-18.201-48.266-40.771-9.435-26.615-9.053-53.483 3.581-79.138 13.503-27.419 42.151-40.392 71.88-33.558 10.885 2.502 20.232 7.755 27.681 16.135 16.228 18.26 18.62 40.144 16.97 64.234zM806.44 240.456c7.932 1.967 74.676 1.617 79.948-.366.906-7.064-.651-13.962-2.823-20.702-10.087-31.301-47.32-30.674-62.616-14.344-9.237 9.86-13.52 21.716-14.509 35.412zm331.768 92.108c-30.517.125-53.429-15.369-63.699-44.235-9.047-25.426-8.437-51.003 3.239-75.504 14.095-29.579 41.393-39.087 69.986-36.275 38.314 3.767 55.516 34.256 59.242 62.84 1.827 14.016 1.32 27.898-2.287 41.594-8.684 32.977-32.52 51.441-66.481 51.58zm-46.501-79.323c-.015 14.023 1.862 26.513 7.883 38.08 8.518 16.364 22.469 23.4 40.487 23.089 18.053-.312 31.432-8.505 38.256-25.243 9.35-22.934 9.384-46.344.384-69.493-3.407-8.764-9.264-15.773-17.735-20.323-23.684-12.72-52.26-3.014-63.075 21.48-4.718 10.684-6.257 21.976-6.2 32.41zm-479.46-125.94v19.226h-86.655l-.597 72.69h82.573v18.387c-2.612.256-5.211.725-7.811.732-22.124.055-44.248.004-66.372.05-2.845.006-5.688.387-9.247.647v89.87h-21.574s-2.375-193.973-.246-201.601l109.929-.001zm802.351 201.736h20.417c.286-2.641.702-64.719.574-93.536-.047-10.462-.797-20.859-4.393-30.838-4.961-13.765-14.245-22.94-28.607-26.391-24.188-5.812-45.42-.136-63.579 16.906-1.582 1.485-3.153 2.982-5.677 5.37l-3.575-20.652h-17.443v149.007h21.232c.157-3.495.93-67.3 1.22-96.313.08-8.057 3.118-15.068 8.106-21.234 10.338-12.78 24.379-17.019 40.1-16.501 20.37.671 28.072 10.838 30.142 30.461l1.483 103.721zm-369-143.049l-5.798 16.277c-7.155-2.148-13.795-4.54-20.625-6.089-8.189-1.857-16.574-2.155-24.838-.196-15.535 3.683-25.685 13.783-31.114 28.266-7.441 19.85-7.615 40.169-.262 60.081 8.258 22.365 28.622 33.408 52.761 28.844 8.537-1.614 16.814-4.605 26.286-7.27l2.527 15.69c-5.709 5.163-12.079 7.222-18.54 8.833-11.292 2.817-22.823 2.939-34.231 1.188-22.555-3.461-39.091-15.799-48.296-36.519-11.878-26.737-11.869-54.212.288-80.77 13.924-30.42 41.02-40.645 71.046-37.73 7.191.699 27.206 7.622 30.796 9.395zm-312.375 92.229c.019 6.656.46 13.368 1.42 19.95 1.532 10.509 7.218 15.315 17.753 15.728 3.333.131 6.683.021 10.018-.14 3.272-.158 6.535-.52 10.675-.865l1.161 17.079c-15.753 2.379-30.751 4.684-45.347-2.16-7.01-3.287-17.034-8.996-17.579-43.532-.508-30.695-.237-61.404-.237-92.107 0-20.678.044-41.356.067-62.034.003-2.696 0-5.391 0-9.624l21.225-1.279.844 158.984zM645.6 179.866h20.557v149.239h-20.122l-.435-149.239zm600.376.078h20.941v148.97h-20.941v-148.97zM645.19 149.807v-24.879h20.779l.344 24.879H645.19zm600.849-.168v-24.636h20.657v24.636h-20.657z"/></svg>