<?xml version="1.0" encoding="UTF-8"?>
<!DOCTYPE svg PUBLIC "-//W3C//DTD SVG 1.1//EN" "http://www.w3.org/Graphics/SVG/1.1/DTD/svg11.dtd">
<!-- Creator: CorelDRAW X7 -->
<svg xmlns="http://www.w3.org/2000/svg" xml:space="preserve" width="21.6152mm" height="24.959mm" version="1.1" style="shape-rendering:geometricPrecision; text-rendering:geometricPrecision; image-rendering:optimizeQuality; fill-rule:evenodd; clip-rule:evenodd"
viewBox="0 0 158 183"
 xmlns:xlink="http://www.w3.org/1999/xlink">
 <defs>
  <style type="text/css">
   <![CDATA[
    .fil0 {fill:#FF4444}
    .fil1 {fill:white}
   ]]>
  </style>
 </defs>
 <g id="Layer_x0020_1">
  <metadata id="CorelCorpID_0Corel-Layer"/>
  <g id="_2543891661600">
   <polygon class="fil0" points="79,0 119,23 158,46 158,91 158,137 119,160 79,183 40,160 0,137 0,91 0,46 40,23 "/>
   <g>
    <path class="fil1" d="M25 135c0,4 2,3 8,3l97 0c2,0 3,0 3,-3l0 -51c-15,0 -30,0 -44,0 0,8 2,21 -10,22 -12,0 -9,-15 -9,-22l-45 0 0 51zm5 -1l11 0c0,-3 -2,-6 -4,-8 -2,-2 -4,-3 -7,-4l0 12zm87 0l11 0 0 -12c-3,1 -5,2 -7,4 -1,1 -4,5 -4,8z"/>
    <path class="fil1" d="M25 77l0 3c18,0 36,0 54,0l-9 0c3,-10 16,-10 18,0l45 0c0,-13 -3,-21 -10,-30 -4,-4 -4,-6 -8,-6l-72 0c-3,0 -4,2 -7,6 -2,3 -4,4 -6,7 -3,5 -5,13 -5,20z"/>
    <path class="fil1" d="M81 91l-4 0c0,3 -1,7 2,7 3,1 2,-4 2,-7z"/>
   </g>
  </g>
 </g>
</svg>
