<?xml version="1.0" encoding="UTF-8"?>
<!DOCTYPE svg PUBLIC "-//W3C//DTD SVG 1.1//EN" "http://www.w3.org/Graphics/SVG/1.1/DTD/svg11.dtd">
<!-- Creator: CorelDRAW X7 -->
<svg xmlns="http://www.w3.org/2000/svg" xml:space="preserve" width="21.6152mm" height="24.959mm" version="1.1" style="shape-rendering:geometricPrecision; text-rendering:geometricPrecision; image-rendering:optimizeQuality; fill-rule:evenodd; clip-rule:evenodd"
viewBox="0 0 249 287"
 xmlns:xlink="http://www.w3.org/1999/xlink">
 <defs>
  <style type="text/css">
   <![CDATA[
    .fil0 {fill:#f72222}
    .fil1 {fill:white}
   ]]>
  </style>
 </defs>
 <g id="Layer_x0020_1">
  <metadata id="CorelCorpID_0Corel-Layer"/>
  <g id="_2543896615312">
   <polygon class="fil0" points="124,0 187,36 249,72 249,144 249,216 187,252 124,287 62,252 0,216 0,144 0,72 62,36 "/>
   <g>
    <path class="fil1" d="M72 148c-15,4 -12,21 -12,43 0,16 -2,8 -5,16 -4,12 16,17 17,4 1,-8 -4,-6 -5,-14 0,-6 0,-13 0,-20 6,2 6,1 6,8 0,10 1,17 9,25 10,10 22,9 39,9 15,0 31,2 42,-6 12,-8 12,-16 13,-34l5 -2c0,6 1,16 0,21 0,6 -8,8 -4,16 7,14 27,-4 12,-12 0,-12 0,-23 0,-34 0,-12 -3,-17 -13,-21 -1,-22 1,-33 -11,-48 -20,-26 -60,-26 -81,0 -13,16 -11,26 -12,49zm60 13c-2,5 3,6 4,6 4,-1 3,-10 -4,-6zm11 0c-2,4 2,8 5,5 4,-4 0,-7 -5,-5zm11 0c-2,4 1,8 5,5 3,-4 -1,-7 -5,-5zm-40 -64c-15,3 -28,14 -25,33 2,17 26,12 47,12 10,0 19,0 22,-7 8,-17 -7,-46 -44,-38z"/>
    <path class="fil1" d="M145 222l-42 0c1,9 11,14 21,14 10,0 21,-5 21,-14z"/>
    <path class="fil1" d="M121 76l6 0c2,-4 0,-4 2,-8 2,-3 3,-2 4,-6 3,-14 -20,-15 -17,0 1,8 5,0 5,14z"/>
    <path class="fil1" d="M98 118c-8,5 -2,17 7,12 7,-4 1,-18 -7,-12z"/>
    <path class="fil1" d="M144 118c-9,6 0,17 7,12 8,-5 1,-17 -7,-12z"/>
   </g>
  </g>
 </g>
</svg>
