<?xml version="1.0" encoding="UTF-8"?>
<!DOCTYPE svg PUBLIC "-//W3C//DTD SVG 1.1//EN" "http://www.w3.org/Graphics/SVG/1.1/DTD/svg11.dtd">
<!-- Creator: CorelDRAW X7 -->
<svg xmlns="http://www.w3.org/2000/svg" xml:space="preserve" width="21.6152mm" height="24.959mm" version="1.1" style="shape-rendering:geometricPrecision; text-rendering:geometricPrecision; image-rendering:optimizeQuality; fill-rule:evenodd; clip-rule:evenodd"
viewBox="0 0 511 590"
 xmlns:xlink="http://www.w3.org/1999/xlink">
 <defs>
  <style type="text/css">
   <![CDATA[
    .fil0 {fill:#1F1FFF}
    .fil1 {fill:white}
   ]]>
  </style>
 </defs>
 <g id="Layer_x0020_1">
  <metadata id="CorelCorpID_0Corel-Layer"/>
  <g id="_1299004502992">
   <polygon class="fil0" points="256,0 383,74 511,148 511,295 511,443 383,516 256,590 128,516 0,443 0,295 0,148 128,74 "/>
   <g>
    <path class="fil1" d="M120 440l-1 -1 8 9c74,1 200,0 265,0l7 -9c-1,0 -1,0 -2,0 7,-19 3,-50 3,-74 0,-18 3,-63 0,-79 -4,-23 -36,-17 -61,-17l-158 0c-76,0 -65,-8 -65,94 0,22 -3,59 4,77zm121 -38c12,0 10,-5 14,-17 5,-13 26,-65 19,-69 -9,-5 -16,23 -21,39 -4,11 -15,37 -12,47zm62 -45c-12,16 -19,11 -17,24 10,2 11,-2 17,-7 7,-6 9,-6 15,-15 -3,-10 -25,-25 -26,-25 -9,-2 -8,6 -3,11 5,6 10,9 14,12zm-72 24c1,-11 -1,-7 -17,-23 3,-3 5,-5 9,-9 5,-3 10,-5 8,-11 -3,-12 -17,5 -21,8 -8,7 -18,11 -5,21 8,6 15,16 26,14z"/>
    <path class="fil1" d="M240 62c-102,24 -64,172 33,149 98,-22 63,-171 -33,-149zm-42 63c-13,68 74,97 108,44 18,-29 12,-69 -30,-54 -13,5 -18,14 -36,16 -18,2 -36,-7 -42,-6z"/>
    <path class="fil1" d="M129 261l253 0c2,-35 -40,-54 -70,-52 -10,1 -46,35 -95,9 -13,-6 -12,-12 -39,-7 -25,6 -50,23 -49,50z"/>
   </g>
  </g>
 </g>
</svg>
