<?xml version="1.0" encoding="UTF-8"?>
<!DOCTYPE svg PUBLIC "-//W3C//DTD SVG 1.1//EN" "http://www.w3.org/Graphics/SVG/1.1/DTD/svg11.dtd">
<!-- Creator: CorelDRAW X7 -->
<svg xmlns="http://www.w3.org/2000/svg" xml:space="preserve" width="21.6152mm" height="24.959mm" version="1.1" style="shape-rendering:geometricPrecision; text-rendering:geometricPrecision; image-rendering:optimizeQuality; fill-rule:evenodd; clip-rule:evenodd"
viewBox="0 0 524 605"
 xmlns:xlink="http://www.w3.org/1999/xlink">
 <defs>
  <style type="text/css">
   <![CDATA[
    .fil0 {fill:#f72222}
    .fil1 {fill:white}
   ]]>
  </style>
 </defs>
 <g id="Layer_x0020_1">
  <metadata id="CorelCorpID_0Corel-Layer"/>
  <g id="_2543897121888">
   <polygon class="fil0" points="262,0 393,76 524,151 524,302 524,454 393,529 262,605 131,529 0,454 0,302 0,151 131,76 "/>
   <g>
    <path class="fil1" d="M257 395c20,78 22,53 0,90 -4,-4 -7,-10 -11,-16 -6,-10 -6,-12 -2,-24 4,-17 8,-33 13,-50l-31 -25c-11,-7 -32,3 -43,8 -28,13 -49,28 -61,52 -21,41 0,50 35,63 55,20 142,20 198,0 33,-11 58,-20 37,-61 -21,-41 -89,-71 -103,-63 -4,3 -11,9 -16,13 -3,2 -5,4 -8,6l-5 4c0,0 0,1 -1,1l-2 2zm44 53l42 1 1 -12 -43 -1 0 12z"/>
    <path class="fil1" d="M220 322l20 0 -15 -65c-2,-19 14,-5 20,-2 8,-8 2,-12 13,-16 7,4 5,8 10,15 10,-3 21,-16 20,1l-16 67 19 0c7,-10 4,-15 9,-26 5,-14 32,-34 33,-77 1,-92 -147,-97 -152,-4 -3,42 24,65 31,79 4,8 6,20 8,28z"/>
    <path class="fil1" d="M250 268l-12 -5 11 49c2,10 1,10 11,10 2,-2 1,0 3,-5l6 -24c2,-9 5,-20 6,-30 -4,1 -6,4 -11,5l-7 -10c1,0 0,0 0,1l-2 2c0,0 -1,1 -1,1 -3,4 0,2 -4,6z"/>
    <path class="fil1" d="M288 345l-63 0c3,13 11,10 26,19 1,1 -2,2 5,2 10,1 -1,-1 18,-8 9,-3 12,-5 14,-13z"/>
    <path class="fil1" d="M233 338l50 1c12,-2 5,1 7,-5 -2,-6 3,-5 -9,-5l-58 0c0,12 -3,9 10,9z"/>
    <path class="fil1" d="M114 226c2,1 34,6 39,-3 -2,-3 3,-4 -12,-4 -21,0 -27,-3 -27,7z"/>
    <path class="fil1" d="M344 270c2,11 28,21 34,20 1,-7 3,-4 -4,-8 -3,-2 -7,-4 -10,-5 -4,-3 -16,-10 -20,-7z"/>
    <path class="fil1" d="M133 159c3,7 -3,1 15,11 8,4 12,8 18,7 3,-9 -4,-8 -14,-14 -6,-3 -17,-12 -19,-4z"/>
    <path class="fil1" d="M358 225c6,4 32,5 39,0 -1,-4 4,-4 -6,-5 -8,-1 -32,-2 -33,5z"/>
    <path class="fil1" d="M134 289c3,1 -4,3 4,1 2,0 28,-9 30,-20 -6,-1 -36,10 -34,19z"/>
    <path class="fil1" d="M345 177c7,1 31,-11 34,-18 -6,-5 -16,2 -28,9 -7,4 -7,2 -6,9z"/>
    <path class="fil1" d="M206 141c0,-8 -8,-18 -13,-26 -5,-7 1,-4 -9,-5 0,9 4,12 8,19 6,9 4,13 14,12z"/>
    <path class="fil1" d="M256 129c7,-3 5,0 5,-27 0,-11 1,-7 -6,-10 -2,4 -1,-2 -2,8l0 24c1,5 1,3 3,5z"/>
    <path class="fil1" d="M307 141c7,2 21,-23 20,-30 -10,0 -21,25 -21,25 -2,10 -1,2 1,5z"/>
   </g>
  </g>
 </g>
</svg>
