<?xml version="1.0" encoding="UTF-8"?>
<!DOCTYPE svg PUBLIC "-//W3C//DTD SVG 1.1//EN" "http://www.w3.org/Graphics/SVG/1.1/DTD/svg11.dtd">
<!-- Creator: CorelDRAW X7 -->
<svg xmlns="http://www.w3.org/2000/svg" xml:space="preserve" width="21.6152mm" height="24.959mm" version="1.1" style="shape-rendering:geometricPrecision; text-rendering:geometricPrecision; image-rendering:optimizeQuality; fill-rule:evenodd; clip-rule:evenodd"
viewBox="0 0 711 821"
 xmlns:xlink="http://www.w3.org/1999/xlink">
 <defs>
  <style type="text/css">
   <![CDATA[
    .fil0 {fill:#6666FF}
    .fil1 {fill:white}
   ]]>
  </style>
 </defs>
 <g id="Layer_x0020_1">
  <metadata id="CorelCorpID_0Corel-Layer"/>
  <g id="_1333551815968">
   <polygon class="fil0" points="355,0 533,103 711,205 711,410 711,616 533,718 355,821 178,718 0,616 0,410 0,205 178,103 "/>
   <g>
    <path class="fil1" d="M348 537c29,105 30,70 1,122 -5,-6 -10,-15 -15,-23 -9,-13 -8,-16 -3,-32 6,-23 10,-45 17,-67l-42 -35c-14,-10 -42,5 -57,12 -38,17 -67,37 -84,69 -29,56 1,69 47,85 76,28 194,28 270,1 45,-15 78,-27 50,-83 -28,-55 -121,-96 -140,-85 -5,3 -15,12 -21,18 -4,3 -8,5 -12,8l-6 5c0,0 -1,1 -1,2l-4 3zm61 71l57 1 0 -16 -57 -1 0 16z"/>
    <path class="fil1" d="M299 437l27 0 -20 -88c-3,-26 19,-7 27,-3 11,-11 3,-16 17,-21 9,5 7,10 14,20 13,-4 28,-22 27,1l-21 91 24 0c10,-13 7,-21 13,-36 7,-18 43,-46 44,-104 3,-125 -198,-131 -206,-5 -3,57 34,88 42,107 6,11 9,27 12,38z"/>
    <path class="fil1" d="M339 363l-16 -6 14 67c3,13 2,13 16,13 3,-3 1,1 4,-7l8 -32c3,-13 6,-28 9,-41 -6,2 -9,5 -16,6l-9 -13c0,0 0,0 0,1l-3 3c0,1 -1,2 -1,2 -4,5 -1,3 -6,7z"/>
    <path class="fil1" d="M391 468l-85 0c4,18 14,13 34,26 2,1 -1,2 7,3 14,1 -1,-1 25,-11 11,-4 16,-7 19,-18z"/>
    <path class="fil1" d="M316 459l68 0c16,-1 7,2 10,-6 -3,-8 3,-6 -13,-7l-79 1c1,16 -4,12 14,12z"/>
    <path class="fil1" d="M155 307c3,1 46,8 53,-4 -2,-4 4,-5 -17,-6 -28,0 -36,-3 -36,10z"/>
    <path class="fil1" d="M467 366c2,15 38,29 45,27 2,-9 5,-4 -5,-11 -3,-2 -9,-5 -13,-7 -6,-3 -22,-12 -27,-9z"/>
    <path class="fil1" d="M180 216c4,10 -3,1 21,15 10,5 16,11 25,9 3,-12 -6,-11 -20,-19 -8,-4 -23,-16 -26,-5z"/>
    <path class="fil1" d="M486 306c8,5 44,6 53,0 -2,-6 5,-6 -8,-8 -11,-1 -44,-3 -45,8z"/>
    <path class="fil1" d="M182 393c4,1 -6,3 5,1 3,-1 38,-13 41,-28 -9,-1 -49,14 -46,27z"/>
    <path class="fil1" d="M468 241c10,1 42,-15 46,-25 -8,-7 -21,3 -38,12 -9,5 -9,3 -8,13z"/>
    <path class="fil1" d="M280 191c-1,-10 -11,-24 -18,-35 -7,-10 1,-6 -13,-7 1,13 6,16 12,25 8,13 5,18 19,17z"/>
    <path class="fil1" d="M347 175c10,-4 7,1 7,-37 0,-15 1,-9 -7,-13 -4,5 -3,-3 -4,10l0 34c2,6 1,3 4,6z"/>
    <path class="fil1" d="M417 192c9,2 27,-32 27,-42 -13,1 -29,35 -29,35 -3,13 -1,2 2,7z"/>
   </g>
  </g>
 </g>
</svg>
