<svg id="Layer_1" xmlns="http://www.w3.org/2000/svg" viewBox="0 0 400 452"><style>.st0{fill:#43c2cb}.st1{fill:#fff}</style><path class="st0" d="M200.01 419.451c-106.801.41-193.988-86.978-193.501-194.364C6.99 118.926 93.75 31.911 201.277 32.551c105.988.631 193.037 87.376 192.21 195.085-.812 105.688-86.984 192.156-193.477 191.815zm24.031-211.514l50.367 7.114 4.041-14.467a2448545.5 2448545.5 0 0 1-52.092-7.707c6.023-21.321 11.23-41.714 17.741-61.682 2.143-6.573 6.935-12.741 11.82-17.847 6.406-6.695 15.269-5.21 20.698 2.145 2.272 3.077 4.414 6.336 7.139 8.971 3.476 3.36 8.607 4.997 12.1 1.723 2.293-2.149 2.221-7.203 2.436-11 .086-1.527-1.715-3.327-2.96-4.735-6.07-6.867-14.264-9.3-22.918-9.663-19.308-.811-33.162 9.037-44.044 23.918-10.781 14.743-15.511 32.084-20.656 49.218-1.503 5.004-2.787 10.073-4.294 15.56l-55.392-8.013-1.927 14.704 54.121 8.324-7.027 29.621-51.724-7.226-1.906 14.528 50.13 7.659c0 1.869.202 2.958-.03 3.944-5.293 22.546-10.21 45.192-16.148 67.568-2.832 10.672-7.397 20.969-16.267 28.465-7.301 6.171-15.32 5.143-20.813-2.514-2.478-3.454-4.548-7.548-7.825-9.968-2.391-1.766-7.717-2.832-9.471-1.412-2.602 2.106-4.485 6.769-4.267 10.19.193 3.037 3.11 6.587 5.793 8.653 9.028 6.954 19.661 7.965 30.427 5.845 18.037-3.552 30.759-14.805 38.643-30.718 6.197-12.508 10.837-25.872 15.222-39.168 3.971-12.042 6.662-24.506 10.029-37.205l52.804 7.658 4.203-14.564-54.079-7.953c2.141-10.48 4.048-19.806 6.126-29.966z"/><path class="st1" d="M224.041 207.937l-6.128 29.964 54.079 7.953-4.203 14.564-52.804-7.658c-3.367 12.699-6.058 25.163-10.029 37.205-4.385 13.296-9.025 26.66-15.222 39.168-7.883 15.913-20.606 27.167-38.643 30.718-10.766 2.12-21.399 1.109-30.427-5.845-2.683-2.066-5.6-5.616-5.793-8.653-.218-3.421 1.666-8.084 4.267-10.19 1.754-1.419 7.081-.353 9.471 1.412 3.277 2.42 5.347 6.513 7.825 9.968 5.493 7.657 13.512 8.685 20.813 2.514 8.87-7.497 13.434-17.793 16.267-28.465 5.938-22.375 10.856-45.022 16.148-67.568.232-.987.03-2.075.03-3.944l-50.13-7.659 1.906-14.528 51.724 7.226 7.027-29.621-54.121-8.324 1.927-14.704 55.392 8.013c1.507-5.487 2.791-10.556 4.294-15.56 5.145-17.133 9.876-34.475 20.656-49.218 10.882-14.881 24.736-24.729 44.044-23.918 8.654.363 16.848 2.796 22.918 9.663 1.245 1.408 3.047 3.208 2.96 4.735-.215 3.797-.143 8.851-2.436 11-3.493 3.274-8.624 1.637-12.1-1.723-2.725-2.634-4.868-5.893-7.139-8.971-5.429-7.355-14.292-8.84-20.698-2.145-4.885 5.105-9.677 11.274-11.82 17.847-6.511 19.968-11.718 40.361-17.741 61.682l52.092 7.707-4.041 14.467c-16.997-2.399-33.488-4.728-50.365-7.112z"/></svg>