<?xml version="1.0" encoding="UTF-8"?>
<!DOCTYPE svg PUBLIC "-//W3C//DTD SVG 1.1//EN" "http://www.w3.org/Graphics/SVG/1.1/DTD/svg11.dtd">
<!-- Creator: CorelDRAW X7 -->
<svg xmlns="http://www.w3.org/2000/svg" xml:space="preserve" width="21.6152mm" height="24.959mm" version="1.1" style="shape-rendering:geometricPrecision; text-rendering:geometricPrecision; image-rendering:optimizeQuality; fill-rule:evenodd; clip-rule:evenodd"
viewBox="0 0 935 1080"
 xmlns:xlink="http://www.w3.org/1999/xlink">
 <defs>
  <style type="text/css">
   <![CDATA[
    .fil0 {fill:#41E8FF}
    .fil1 {fill:white}
    .fil2 {fill:white;fill-rule:nonzero}
   ]]>
  </style>
 </defs>
 <g id="Layer_x0020_1">
  <metadata id="CorelCorpID_0Corel-Layer"/>
  <g id="_1299001640720">
   <polygon class="fil0" points="468,0 702,135 935,270 935,540 935,810 702,945 468,1080 234,945 0,810 0,540 0,270 234,135 "/>
   <g>
    <path class="fil1" d="M367 685l-1 14 391 0 2 -444 -415 0c-14,2 -30,1 -47,0l-80 0c-2,1 -4,1 -6,1l0 159 29 -7 1 -123 488 0 1 385 -363 0 0 15z"/>
    <path class="fil1" d="M397 629c-16,0 -32,1 -48,2 -62,3 -46,-25 -72,29 -6,13 -13,28 -20,37l-30 -69c-61,-3 -54,19 -45,91 6,41 14,69 23,106l103 0c12,-54 27,-101 27,-161 24,-6 62,2 79,-9 6,-4 15,-18 20,-24 10,-10 16,-15 24,-24l-21 -20c-19,15 -26,25 -40,42z"/>
    <path class="fil1" d="M236 442c-37,9 -69,46 -56,96 10,36 48,68 96,55 100,-26 64,-179 -40,-151z"/>
    <polygon class="fil2" points="403,360 403,382 434,382 434,395 403,395 403,429 387,429 387,347 435,347 435,360 "/>
    <path id="1" class="fil2" d="M515 387c0,8 -1,14 -3,20 -1,5 -4,10 -7,13 -3,4 -7,6 -11,8 -4,2 -8,2 -13,2 -11,0 -19,-3 -24,-10 -6,-8 -8,-18 -8,-32 0,-7 0,-14 2,-19 2,-6 4,-10 7,-14 3,-3 7,-6 11,-7 4,-2 9,-3 13,-3 11,0 19,4 25,11 5,7 8,18 8,31zm-16 1c0,-10 -2,-17 -4,-22 -3,-5 -7,-7 -13,-7 -3,0 -6,1 -8,2 -2,1 -4,3 -5,5 -1,3 -3,6 -3,9 -1,4 -1,8 -1,12 0,10 1,17 4,22 2,5 7,7 13,7 3,0 5,0 7,-1 3,-2 4,-3 6,-6 1,-2 2,-5 3,-9 0,-3 1,-7 1,-12z"/>
    <path id="2" class="fil2" d="M582 404c0,5 -1,8 -3,12 -2,3 -4,6 -7,8 -3,2 -6,4 -10,5 -5,1 -9,1 -14,1 -4,0 -9,0 -13,0 -4,-1 -8,-2 -12,-3l0 -15c2,1 4,1 7,2 2,0 4,1 6,1 2,1 4,1 6,1 2,1 4,1 6,1 3,0 6,-1 8,-1 2,-1 4,-1 5,-2 1,-1 2,-2 3,-3 0,-2 1,-3 1,-4 0,-2 -1,-4 -2,-5 -1,-2 -3,-3 -5,-4 -2,-1 -4,-2 -6,-3 -3,-1 -5,-2 -8,-3 -2,-1 -5,-2 -7,-3 -2,-1 -5,-3 -6,-4 -2,-2 -4,-4 -5,-7 -1,-2 -2,-5 -2,-9 0,-3 1,-6 2,-9 1,-3 3,-6 6,-8 2,-2 5,-4 9,-5 4,-1 9,-2 15,-2 1,0 3,0 5,0 2,0 3,1 5,1 2,0 3,0 5,1 2,0 3,0 5,1l0 14c-2,-1 -3,-1 -5,-1 -1,-1 -3,-1 -5,-2 -2,0 -3,0 -5,0 -2,0 -3,-1 -5,-1 -3,0 -5,1 -7,1 -2,1 -3,1 -4,2 -2,1 -3,2 -3,3 -1,1 -1,2 -1,4 0,1 1,3 2,4 1,1 2,2 4,3 2,1 4,2 7,3 2,1 5,2 7,3 3,1 5,2 8,3 2,2 4,3 6,5 2,2 4,4 5,6 1,3 2,6 2,9z"/>
    <path id="3" class="fil2" d="M653 404c0,5 -1,8 -3,12 -1,3 -4,6 -7,8 -3,2 -6,4 -10,5 -5,1 -9,1 -14,1 -4,0 -8,0 -12,0 -5,-1 -9,-2 -12,-3l0 -15c1,1 3,1 6,2 2,0 4,1 6,1 2,1 4,1 6,1 2,1 4,1 6,1 3,0 6,-1 8,-1 2,-1 4,-1 5,-2 1,-1 2,-2 3,-3 0,-2 1,-3 1,-4 0,-2 -1,-4 -2,-5 -1,-2 -3,-3 -5,-4 -2,-1 -4,-2 -6,-3 -3,-1 -5,-2 -8,-3 -2,-1 -4,-2 -7,-3 -2,-1 -4,-3 -6,-4 -2,-2 -4,-4 -5,-7 -1,-2 -2,-5 -2,-9 0,-3 1,-6 2,-9 1,-3 3,-6 6,-8 2,-2 5,-4 9,-5 4,-1 9,-2 15,-2 1,0 3,0 5,0 2,0 3,1 5,1 2,0 4,0 5,1 2,0 3,0 5,1l0 14c-2,-1 -3,-1 -5,-1 -1,-1 -3,-1 -5,-2 -1,0 -3,0 -5,0 -2,0 -3,-1 -5,-1 -3,0 -5,1 -7,1 -2,1 -3,1 -4,2 -2,1 -3,2 -3,3 -1,1 -1,2 -1,4 0,1 1,3 2,4 1,1 3,2 4,3 2,1 5,2 7,3 2,1 5,2 7,3 3,1 5,2 8,3 2,2 4,3 6,5 2,2 4,4 5,6 1,3 2,6 2,9z"/>
    <path class="fil2" d="M411 533l0 -13 29 0 0 44c-3,1 -7,3 -11,4 -5,0 -9,1 -14,1 -6,0 -11,-1 -15,-3 -5,-2 -9,-4 -12,-8 -3,-3 -6,-7 -7,-13 -2,-5 -3,-11 -3,-18 0,-7 1,-13 3,-18 2,-5 4,-10 8,-14 3,-4 7,-7 12,-8 5,-2 11,-3 17,-3 4,0 8,0 11,0 4,1 8,2 11,3l0 15c-3,-1 -6,-2 -10,-3 -4,-1 -8,-2 -12,-2 -3,0 -7,1 -10,2 -3,2 -5,4 -7,6 -2,3 -4,6 -5,9 -1,4 -1,8 -1,13 0,4 0,8 1,11 1,4 2,7 4,9 1,3 4,5 7,6 2,1 6,2 10,2 1,0 2,0 2,0 1,0 2,0 2,0 1,0 2,-1 2,-1 1,0 1,0 2,0l0 -21 -14 0z"/>
    <path id="1" class="fil2" d="M511 542c0,5 -1,9 -3,12 -2,4 -4,6 -7,8 -3,3 -6,4 -11,5 -4,1 -8,2 -13,2 -4,0 -9,0 -13,-1 -4,0 -8,-1 -12,-2l0 -16c2,1 4,2 6,2 3,1 5,1 7,2 2,0 4,1 6,1 2,0 4,0 6,0 3,0 6,0 8,-1 2,0 3,-1 5,-2 1,-1 2,-2 3,-3 0,-1 0,-2 0,-4 0,-2 0,-4 -1,-5 -1,-1 -3,-3 -5,-4 -2,-1 -4,-2 -6,-2 -3,-1 -5,-2 -8,-3 -2,-1 -5,-2 -7,-3 -2,-2 -5,-3 -7,-5 -1,-2 -3,-4 -4,-6 -1,-3 -2,-6 -2,-10 0,-3 1,-6 2,-9 1,-3 3,-5 5,-7 3,-3 6,-4 10,-6 4,-1 9,-1 15,-1 1,0 3,0 5,0 1,0 3,0 5,0 2,1 3,1 5,1 2,0 3,1 4,1l0 14c-1,0 -2,-1 -4,-1 -2,0 -3,-1 -5,-1 -2,0 -3,-1 -5,-1 -2,0 -3,0 -5,0 -3,0 -5,0 -7,1 -2,0 -3,1 -5,1 -1,1 -2,2 -2,3 -1,1 -1,3 -1,4 0,2 1,3 2,4 1,2 2,3 4,4 2,1 4,2 7,3 2,0 5,1 7,2 3,1 5,2 8,4 2,1 4,3 6,4 2,2 4,4 5,7 1,2 2,5 2,8z"/>
    <path id="2" class="fil2" d="M586 526c0,7 -1,14 -3,19 -1,6 -4,10 -7,14 -3,3 -6,6 -11,7 -4,2 -8,3 -13,3 -11,0 -19,-4 -24,-11 -6,-7 -8,-18 -8,-31 0,-8 0,-14 2,-20 2,-5 4,-10 7,-13 3,-4 7,-6 11,-8 4,-2 9,-2 13,-2 11,0 19,3 25,10 5,8 8,18 8,32zm-16 1c0,-10 -2,-17 -4,-22 -3,-5 -7,-7 -13,-7 -3,0 -6,0 -8,1 -2,2 -4,3 -5,6 -1,2 -2,5 -3,9 -1,3 -1,7 -1,12 0,10 1,17 4,22 3,5 7,7 13,7 3,0 5,-1 7,-2 3,-1 4,-3 6,-5 1,-3 2,-6 3,-9 0,-4 1,-8 1,-12z"/>
    <path id="3" class="fil2" d="M652 564c-4,2 -8,3 -11,4 -3,0 -7,1 -11,1 -6,0 -11,-1 -15,-3 -5,-2 -9,-4 -12,-8 -3,-3 -5,-8 -7,-13 -2,-5 -2,-11 -2,-17 0,-7 0,-14 2,-19 2,-5 4,-10 8,-14 3,-3 7,-6 12,-8 4,-2 10,-3 15,-3 2,0 4,0 6,0 1,0 3,0 5,0 1,1 3,1 5,1 1,1 3,1 5,2l0 15c-4,-2 -7,-3 -11,-3 -3,-1 -6,-1 -8,-1 -4,0 -8,0 -10,2 -3,1 -5,3 -7,6 -2,2 -3,5 -4,9 -1,3 -1,7 -1,11 0,5 0,9 1,12 1,4 2,7 4,9 2,3 4,4 7,6 3,1 6,2 10,2 1,0 3,0 4,-1 2,0 4,0 5,-1 2,0 4,-1 5,-1 2,-1 3,-2 5,-2l0 14z"/>
   </g>
  </g>
 </g>
</svg>
