<?xml version="1.0" encoding="UTF-8"?>
<!DOCTYPE svg PUBLIC "-//W3C//DTD SVG 1.1//EN" "http://www.w3.org/Graphics/SVG/1.1/DTD/svg11.dtd">
<!-- Creator: CorelDRAW X7 -->
<svg xmlns="http://www.w3.org/2000/svg" xml:space="preserve" width="21.6152mm" height="24.959mm" version="1.1" style="shape-rendering:geometricPrecision; text-rendering:geometricPrecision; image-rendering:optimizeQuality; fill-rule:evenodd; clip-rule:evenodd"
viewBox="0 0 986 1138"
 xmlns:xlink="http://www.w3.org/1999/xlink">
 <defs>
  <style type="text/css">
   <![CDATA[
    .fil0 {fill:#ed1717}
    .fil1 {fill:white}
    .fil2 {fill:white;fill-rule:nonzero}
   ]]>
  </style>
 </defs>
 <g id="Layer_x0020_1">
  <metadata id="CorelCorpID_0Corel-Layer"/>
  <g id="_2543897150720">
   <polygon class="fil0" points="493,0 739,142 986,285 986,569 986,854 739,996 493,1138 246,996 0,854 0,569 0,285 246,142 "/>
   <g>
    <path class="fil1" d="M386 722l-1 14 413 0 2 -467 -438 0c-15,2 -31,1 -49,0l-84 0c-2,0 -5,1 -7,1l0 168 31 -9 1 -129 514 1 1 405 -383 0 0 16z"/>
    <path class="fil1" d="M419 663c-18,0 -34,1 -52,2 -65,3 -48,-27 -75,31 -6,14 -14,29 -22,39l-30 -73c-65,-3 -58,20 -48,95 6,44 14,74 24,112l109 0c13,-57 28,-106 28,-170 25,-6 66,3 84,-9 5,-4 15,-19 21,-26 10,-10 16,-15 24,-24l-22 -22c-20,16 -27,27 -41,45z"/>
    <path class="fil1" d="M249 465c-40,11 -73,49 -59,101 10,39 51,73 101,59 105,-28 68,-188 -42,-160z"/>
    <polygon class="fil2" points="424,379 424,403 457,403 457,416 424,416 424,452 407,452 407,365 459,365 459,379 "/>
    <path id="1" class="fil2" d="M543 408c0,8 -1,15 -3,21 -2,5 -5,10 -8,14 -3,3 -7,6 -11,8 -4,2 -9,3 -14,3 -11,0 -20,-4 -26,-12 -6,-7 -8,-19 -8,-33 0,-8 1,-15 2,-20 2,-6 5,-11 8,-15 3,-3 7,-6 11,-8 5,-1 9,-2 14,-2 12,0 20,3 26,11 6,8 9,19 9,33zm-18 1c0,-10 -1,-18 -4,-23 -3,-5 -7,-8 -13,-8 -4,0 -6,1 -8,2 -3,2 -5,4 -6,6 -1,3 -2,6 -3,9 -1,4 -1,8 -1,13 0,10 1,18 4,23 3,5 7,8 14,8 3,0 5,-1 8,-2 2,-1 4,-3 5,-6 2,-2 3,-6 3,-9 1,-4 1,-8 1,-13z"/>
    <path id="2" class="fil2" d="M613 426c0,4 -1,9 -3,12 -2,4 -4,6 -7,9 -3,2 -7,4 -11,5 -5,1 -9,2 -15,2 -4,0 -9,-1 -13,-1 -4,-1 -8,-2 -12,-3l0 -16c2,1 4,1 6,2 2,1 4,1 7,2 2,0 4,0 6,1 2,0 5,0 7,0 3,0 5,0 8,-1 2,0 4,-1 5,-2 1,-1 2,-2 3,-3 1,-2 1,-3 1,-5 0,-2 -1,-3 -2,-5 -1,-1 -3,-3 -5,-4 -2,-1 -4,-2 -7,-3 -2,-1 -5,-2 -7,-3 -3,-1 -6,-2 -8,-3 -3,-1 -5,-3 -7,-5 -2,-2 -4,-4 -5,-7 -1,-2 -2,-5 -2,-9 0,-4 1,-7 2,-10 1,-3 3,-6 6,-8 3,-2 6,-4 10,-5 4,-2 10,-2 15,-2 2,0 4,0 6,0 2,0 4,0 5,0 2,1 4,1 6,1 1,1 3,1 4,1l0 15c-1,0 -3,-1 -4,-1 -2,-1 -4,-1 -5,-1 -2,-1 -4,-1 -6,-1 -2,0 -3,0 -5,0 -3,0 -5,0 -7,0 -2,1 -4,1 -5,2 -2,1 -2,2 -3,3 -1,2 -1,3 -1,4 0,2 1,4 2,5 1,1 3,2 5,4 2,1 4,2 7,2 2,1 5,2 7,3 3,1 6,3 8,4 3,1 5,3 7,5 2,2 4,4 5,7 1,2 2,5 2,9z"/>
    <path id="3" class="fil2" d="M688 426c0,4 -1,9 -3,12 -2,4 -4,6 -7,9 -3,2 -7,4 -11,5 -5,1 -10,2 -15,2 -4,0 -9,-1 -13,-1 -4,-1 -8,-2 -13,-3l0 -16c2,1 5,1 7,2 2,1 4,1 6,2 3,0 5,0 7,1 2,0 5,0 7,0 3,0 5,0 8,-1 2,0 3,-1 5,-2 1,-1 2,-2 3,-3 0,-2 1,-3 1,-5 0,-2 -1,-3 -2,-5 -1,-1 -3,-3 -5,-4 -2,-1 -4,-2 -7,-3 -2,-1 -5,-2 -7,-3 -3,-1 -6,-2 -8,-3 -3,-1 -5,-3 -7,-5 -2,-2 -4,-4 -5,-7 -1,-2 -2,-5 -2,-9 0,-4 1,-7 2,-10 1,-3 3,-6 6,-8 3,-2 6,-4 10,-5 4,-2 9,-2 15,-2 2,0 4,0 6,0 2,0 3,0 5,0 2,1 4,1 6,1 1,1 3,1 4,1l0 15c-1,0 -3,-1 -4,-1 -2,-1 -4,-1 -6,-1 -1,-1 -3,-1 -5,-1 -2,0 -4,0 -5,0 -3,0 -5,0 -7,0 -2,1 -4,1 -5,2 -2,1 -3,2 -3,3 -1,2 -1,3 -1,4 0,2 1,4 2,5 1,1 3,2 5,4 2,1 4,2 6,2 3,1 6,2 8,3 3,1 6,3 8,4 3,1 5,3 7,5 2,2 4,4 5,7 1,2 2,5 2,9z"/>
    <path class="fil2" d="M433 561l0 -13 31 0 0 46c-4,2 -8,3 -12,4 -5,1 -10,1 -15,1 -6,0 -11,-1 -16,-2 -5,-2 -9,-5 -12,-9 -4,-3 -6,-8 -8,-13 -2,-6 -3,-12 -3,-19 0,-8 1,-14 3,-20 2,-5 5,-10 8,-14 4,-4 8,-7 14,-9 5,-2 11,-4 18,-4 4,0 8,1 11,1 4,1 8,2 12,3l0 16c-4,-1 -7,-2 -11,-3 -4,-1 -8,-2 -12,-2 -4,0 -8,1 -11,2 -3,2 -6,4 -8,6 -2,3 -3,6 -5,10 -1,4 -1,8 -1,13 0,4 0,9 1,12 1,4 2,7 4,10 2,2 4,4 7,6 3,1 7,2 11,2 1,0 2,0 3,0 1,0 1,0 2,-1 1,0 1,0 2,0 1,0 1,0 2,-1l0 -22 -15 0z"/>
    <path id="1" class="fil2" d="M538 572c0,4 -1,8 -3,12 -1,3 -4,6 -7,9 -3,2 -7,4 -11,5 -5,1 -9,1 -14,1 -5,0 -9,0 -14,0 -4,-1 -8,-2 -12,-3l0 -16c2,1 4,1 6,2 2,0 4,1 7,1 2,1 4,1 6,2 3,0 5,0 7,0 3,0 6,0 8,-1 2,0 4,-1 5,-2 1,-1 2,-2 3,-3 1,-2 1,-3 1,-5 0,-2 -1,-4 -2,-5 -1,-1 -3,-3 -5,-4 -2,-1 -4,-2 -6,-3 -3,-1 -6,-2 -8,-3 -3,-1 -5,-2 -8,-3 -3,-1 -5,-3 -7,-5 -2,-2 -3,-4 -5,-7 -1,-2 -2,-6 -2,-9 0,-4 1,-7 2,-10 2,-3 4,-6 6,-8 3,-2 6,-4 10,-5 5,-2 10,-3 16,-3 1,0 3,1 5,1 2,0 4,0 6,0 1,1 3,1 5,1 2,1 3,1 5,1l0 15c-2,0 -3,-1 -5,-1 -2,-1 -4,-1 -5,-1 -2,-1 -4,-1 -6,-1 -2,0 -3,0 -5,0 -3,0 -5,0 -7,0 -2,1 -4,1 -5,2 -1,1 -2,2 -3,3 -1,1 -1,3 -1,4 0,2 1,4 2,5 1,1 3,2 5,3 2,1 4,2 7,3 2,1 5,2 8,3 2,1 5,2 7,4 3,1 5,3 7,5 2,2 4,4 5,6 1,3 2,6 2,10z"/>
    <path id="2" class="fil2" d="M617 554c0,8 0,15 -2,20 -2,6 -5,11 -8,15 -3,3 -7,6 -11,8 -5,2 -9,2 -14,2 -12,0 -20,-3 -26,-11 -6,-8 -9,-19 -9,-33 0,-8 1,-15 3,-21 2,-5 5,-10 8,-14 3,-3 7,-6 11,-8 4,-2 9,-3 14,-3 11,0 20,4 26,12 6,7 8,19 8,33zm-17 1c0,-10 -1,-18 -4,-23 -3,-5 -7,-8 -14,-8 -3,0 -5,1 -8,2 -2,1 -4,3 -5,6 -2,2 -3,6 -3,9 -1,4 -1,8 -1,13 0,10 1,18 4,23 3,5 7,8 13,8 4,0 6,-1 9,-2 2,-2 4,-4 5,-6 1,-3 3,-6 3,-9 1,-4 1,-8 1,-13z"/>
    <path id="3" class="fil2" d="M687 594c-4,2 -8,3 -12,4 -3,1 -7,1 -11,1 -6,0 -12,-1 -16,-3 -5,-1 -9,-4 -13,-8 -3,-3 -5,-8 -7,-13 -2,-6 -3,-12 -3,-19 0,-8 1,-14 3,-20 2,-5 5,-10 8,-14 4,-4 8,-7 13,-9 5,-2 10,-3 16,-3 2,0 4,0 6,0 2,0 3,0 5,0 2,1 4,1 5,1 2,1 4,1 6,2l0 16c-4,-2 -8,-3 -11,-4 -4,0 -7,-1 -9,-1 -5,0 -8,1 -11,2 -3,2 -5,4 -7,7 -2,2 -3,6 -4,9 -1,4 -2,8 -2,12 0,5 1,9 2,13 1,4 2,7 4,9 2,3 4,5 7,6 3,2 7,2 11,2 1,0 3,0 5,0 1,0 3,-1 5,-1 1,-1 3,-1 5,-2 2,0 3,-1 5,-2l0 15z"/>
   </g>
  </g>
 </g>
</svg>
