<svg id="Layer_1" xmlns="http://www.w3.org/2000/svg" viewBox="0 0 1018.049 452"><style>.st0{opacity:.9}.st1{fill:#bdc831}.st2{fill:#a1a938}.st3{fill:#999b38}.st4{fill:#cd2b66}.st5{fill:#a31d4d}.st6{fill:#b72555}.st7{fill:#c9d92d}.st8{fill:#c2d02f}.st9{fill:#b9be33}.st10{fill:#33b4d7}.st11{fill:#209ac5}.st12{fill:#158daf}.st13{fill:#95d6e2}.st14{fill:#74ccdd}.st15{fill:#3caebb}.st16{fill:#ef549a}.st17{fill:#d01b68}.st18{fill:#ec1069}.st19{fill:#a25aa4}.st20{fill:#772a85}.st21{fill:#8e3e96}.st22{fill:#f6af1a}.st23{fill:#f29020}.st24{fill:#faa220}.st25{fill:#f5dd07}.st26{fill:#f8bb1c}.st27{fill:#e9ae21}.st28{fill:#32848c}.st29{fill:#23636d}.st30{fill:#1d4b57}.st31{fill:#843792}.st32{fill:#662977}.st33{fill:#4e205b}.st34{fill:#fff}</style><g class="st0"><g class="st0"><path class="st1" d="M204.282 233.001l.003.001.524-.302 61.774-35.543-62.307-36.259v.001l-.002-.001h-.001l-62.314 35.834 62.314 36.264z"/><path class="st2" d="M204.273 305.099v-.002l.003.002v-72.093l-62.322-36.269v.001l-.002-.001v72.093l.029.017z"/><path class="st3" d="M266.597 197.166l-61.79 35.534-.525.301-.008.005v72.093l.013.007.002.001 62.31-35.833h.001v-72.107l-.003.002z"/></g><g class="st0"><path class="st4" d="M266.609 269.264h.001l.003.001.524-.302 61.774-35.543-62.307-36.259v.001l-.002-.001h-.001l-62.314 35.834 62.314 36.265z"/><path class="st5" d="M266.601 341.362v-.001l.003.001v-72.093l-62.322-36.268-.002-.001v72.093l.029.017z"/><path class="st6" d="M328.925 233.429l-61.79 35.534-.526.301-.007.005v72.093l.013.007.002.001 62.31-35.833.001.001V233.43l-.003.002z"/></g><g class="st0"><path class="st4" d="M328.933 305.538h.001l.003.001.524-.302 61.774-35.543-62.307-36.259v.001l-.002-.001h-.001l-62.314 35.834 62.314 36.265z"/><path class="st5" d="M328.925 377.636v-.001l.003.001v-72.093l-62.322-36.268-.002-.001v72.093l.029.017z"/><path class="st6" d="M391.249 269.703l-61.79 35.534-.526.301-.007.005v72.093l.013.007.002.001 62.31-35.833h.001v-72.107l-.003.002z"/></g><g class="st0"><path class="st7" d="M141.971 268.833l.001-.001.002.002.525-.302 61.773-35.543-62.306-36.26v.001h-.001l-.001-.001h-.001l-62.314 35.835 62.314 36.264z"/><path class="st8" d="M141.963 340.93v-.001l.003.002v-72.093l-62.323-36.269v.001l-.002-.001v72.093l.029.017z"/><path class="st9" d="M204.286 232.998l-61.789 35.533-.526.302-.007.005v72.092l.012.008.001-.001.002.001 62.31-35.833v.001-72.107l-.003.002z"/></g><g class="st0"><path class="st4" d="M204.299 305.096l.001-.001.002.002.525-.302 61.773-35.543-62.306-36.259h-.004l-62.313 35.834 62.313 36.264z"/><path class="st5" d="M204.29 377.194v-.002l.003.002v-72.093l-62.322-36.269v.001l-.002-.001v72.093l.029.017z"/><path class="st6" d="M266.614 269.261l-61.789 35.534-.526.301-.007.005v72.093l.012.007h.002l62.311-35.832v-72.107l-.003.002z"/></g><g class="st0"><path class="st10" d="M266.623 341.37l.001-.001.002.002.525-.302 61.773-35.543-62.306-36.259h-.004l-62.313 35.834 62.313 36.264z"/><path class="st11" d="M266.614 413.468v-.002l.003.002v-72.093l-62.322-36.269v.001l-.002-.001v72.093l.029.017z"/><path class="st12" d="M328.938 305.535l-61.789 35.533-.526.302-.007.005v72.093l.012.007h.002l62.311-35.832v-72.107l-.003.002z"/></g><g class="st0"><path class="st13" d="M79.66 304.667l.001-.001.002.002.525-.302 61.773-35.543-62.306-36.26-.001.001-.001-.001h-.002l-62.313 35.835 62.313 36.264z"/><path class="st14" d="M79.651 376.765v-.002l.003.002v-72.093l-62.322-36.269v.001l-.002-.001v72.093l.029.017z"/><path class="st15" d="M141.975 268.832l-61.789 35.533-.526.302-.007.005v72.093l.012.007h.002l62.311-35.832v-72.107l-.003.002z"/></g><g class="st0"><path class="st13" d="M141.988 340.93h.001l.002.001.525-.302 61.773-35.543-62.307-36.259v.001l-.002-.001h-.001l-62.313 35.834 62.313 36.264z"/><path class="st14" d="M141.979 413.028v-.001l.003.001v-72.093L79.66 304.666v.001l-.002-.001v72.093l.029.017z"/><path class="st15" d="M204.303 305.095l-61.79 35.534-.525.301-.008.005v72.093l.013.007.002.001 62.31-35.833h.001v-72.107l-.003.002z"/></g><g class="st0"><path class="st10" d="M204.312 377.204h.001l.002.001.525-.302 61.773-35.543-62.306-36.259h-.001v.001l-.002-.001h-.001l-62.313 35.834 62.313 36.264z"/><path class="st11" d="M204.303 449.302v-.002l.003.002v-72.093l-62.322-36.269v.001l-.002-.001v72.093l.029.017z"/><path class="st12" d="M266.627 341.369l-61.789 35.534-.526.301-.008.005v72.093l.013.007.002.001 62.311-35.833V341.37l-.003.002z"/></g></g><g class="st0"><path class="st1" d="M204.311 153.898l.001-.001.002.002.525-.302 61.788-35.518-62.292-36.285v.001h-.001l-.001-.001h-.001l-62.329 35.809 62.299 36.29z"/><path class="st2" d="M204.273 225.995v-.001l.003.002.029-72.093v-.001l-62.307-36.293-.002-.001-.029 72.093.029.017z"/><path class="st3" d="M266.641 118.088l-61.804 35.508-.526.302-.007.004-.03 72.093.013.007.002.001 62.325-35.808.001.001v-.009l.029-72.098-.003.002z"/></g><g class="st0"><path class="st16" d="M266.624 190.186h.001l.002.001.525-.302 61.788-35.518-62.292-36.284h-.003l-62.328 35.809 62.298 36.289z"/><path class="st17" d="M266.586 262.284v-.002l.003.002.03-72.092v-.001l-62.308-36.294v.001l-.002-.002-.029 72.094.029.017z"/><path class="st18" d="M328.954 154.376l-61.804 35.509-.526.301-.007.005-.03 72.093.013.007h.002l62.325-35.807.001.001v-.009l.029-72.099-.003.002z"/></g><g class="st0"><path class="st19" d="M328.933 226.485h.001l.003.001.524-.301 61.788-35.519-62.292-36.284v.001l-.002-.001h-.001l-62.328 35.809 62.299 36.29z"/><path class="st20" d="M328.895 298.583v-.001l.004.001.029-72.092v-.001l-62.308-36.294v.001l-.002-.001-.029 72.093.029.017z"/><path class="st21" d="M391.263 190.676l-61.804 35.508-.526.301-.007.005-.029 72.093.012.007h.001l.002.001 62.324-35.808.001.001v-.009l.029-72.098-.003.001z"/></g><g class="st0"><path class="st7" d="M141.986 189.704l.001-.001.002.002.525-.302 61.788-35.518L142.01 117.6v.001h-.001l-.001-.001h-.001l-62.329 35.81 62.299 36.289z"/><path class="st8" d="M141.948 261.802v-.002l.003.002.029-72.093-62.307-36.294-.002-.001-.029 72.094.029.017z"/><path class="st9" d="M204.315 153.894l-61.803 35.509-.526.301-.007.005-.03 72.093.013.007v-.001l.002.001 62.325-35.807v.001-.009l.03-72.099-.004.002z"/></g><g class="st0"><path class="st22" d="M204.299 225.993l.001-.001.002.001.525-.301 61.788-35.518-62.292-36.285v.001h-.001l-.001-.001h-.001l-62.329 35.809 62.299 36.29z"/><path class="st23" d="M204.261 298.09v-.001l.003.002.029-72.093v-.001l-62.307-36.294v.001l-.002-.001-.029 72.093.029.017z"/><path class="st24" d="M266.629 190.183l-61.804 35.508-.526.302-.007.004-.03 72.093.013.007.002.001 62.325-35.808.001.001v-.009l.029-72.098-.003.002z"/></g><g class="st0"><path class="st19" d="M266.608 262.292l.001-.001.002.002.525-.302 61.788-35.518-62.292-36.285v.001l-.002-.001h-.001l-62.328 35.81 62.299 36.289z"/><path class="st20" d="M266.57 334.389v-.001l.003.002.03-72.093-62.308-36.294-.002-.001-.029 72.093.029.018z"/><path class="st21" d="M328.938 226.482l-61.804 35.508-.526.302-.007.005-.029 72.092.012.008.001-.001.001.001 62.325-35.807h.001v-.008l.029-72.099-.003.002z"/></g><g class="st0"><path class="st25" d="M79.66 225.513l.001-.001.002.002.525-.302 61.788-35.518-62.292-36.285v.001l-.002-.001h-.001l-62.328 35.81 62.299 36.289z"/><path class="st26" d="M79.622 297.61v-.001l.003.002.03-72.093-62.308-36.294-.002-.001-.029 72.093.029.018z"/><path class="st27" d="M141.99 189.703l-61.804 35.508-.526.302-.007.005-.03 72.092.013.008v-.001l.002.001 62.325-35.807h.001v-.009l.029-72.098-.003.002z"/></g><g class="st0"><path class="st22" d="M141.973 261.801h.001l.002.001.525-.301 61.788-35.519-62.292-36.284v.001l-.002-.001h-.001l-62.328 35.809 62.299 36.289z"/><path class="st23" d="M141.935 333.899v-.001l.003.001.03-72.092v-.001L79.66 225.512v.001l-.002-.001-.029 72.093.029.017z"/><path class="st24" d="M204.303 225.992L142.499 261.5l-.526.301-.007.005-.029 72.093.012.007h.001l.001.001 62.325-35.808.001.001v-.009l.029-72.098-.003.001z"/></g><g class="st0"><path class="st28" d="M204.282 298.101l.001-.001.003.002.524-.302 61.788-35.518-62.291-36.285-.001.001-.002-.001h-.001l-62.328 35.809 62.299 36.29z"/><path class="st29" d="M204.245 370.198v-.001l.003.002.029-72.093v-.001l-62.308-36.293-.002-.001-.029 72.093.029.017z"/><path class="st30" d="M266.612 262.291l-61.804 35.508-.526.302-.007.004-.029 72.093.012.007h.001l.002.001 62.324-35.808.001.001v-.009l.029-72.098-.003.002z"/></g><g class="st0"><path class="st1" d="M204.282 74.794v-.001l.003.002.524-.302 61.774-35.543-62.307-36.26v.001l-.002-.001h-.001l-62.314 35.835 62.314 36.264z"/><path class="st2" d="M204.273 146.892v-.002l.003.002V74.799L141.954 38.53v.001l-.002-.001v72.093l.029.017z"/><path class="st3" d="M266.597 38.959l-61.79 35.533-.525.302-.008.005v72.093l.013.007v-.001l.002.001 62.31-35.832h.001V38.96l-.003.002z"/></g><g class="st0"><path class="st16" d="M266.609 111.057h.001l.003.001.524-.302 61.774-35.543-62.307-36.259v.001l-.002-.001h-.001l-62.314 35.834 62.314 36.264z"/><path class="st17" d="M266.601 183.155v-.001l.003.001v-72.093l-62.322-36.269v.001l-.002-.001v72.093l.029.017z"/><path class="st18" d="M328.925 75.222l-61.79 35.534-.526.301-.007.005v72.093l.013.007.002.001 62.31-35.833h.001V75.223l-.003.002z"/></g><g class="st0"><path class="st19" d="M328.933 147.331h.001l.003.001.524-.302 61.774-35.543-62.307-36.259h-.003l-62.314 35.834 62.314 36.264z"/><path class="st20" d="M328.925 219.429v-.002l.003.002v-72.093l-62.322-36.269v.001l-.002-.001v72.093l.029.017z"/><path class="st21" d="M391.249 111.496l-61.79 35.534-.526.301-.007.005v72.093l.013.007.002.001 62.31-35.833h.001v-72.107l-.003.002z"/></g><g class="st0"><path class="st7" d="M141.971 110.626l.001-.001.002.002.525-.302 61.773-35.544-62.306-36.259v.001h-.001l-.001-.001h-.001L79.649 74.357l62.314 36.264z"/><path class="st8" d="M141.963 182.723v-.001l.003.002v-72.093L79.643 74.362v.001l-.002-.002v72.094l.029.017z"/><path class="st9" d="M204.286 74.791l-61.789 35.533-.526.302-.007.005v72.092l.012.008.001-.001.002.001 62.31-35.833v.001-72.107l-.003.002z"/></g><g class="st0"><path class="st7" d="M204.299 146.889l.001-.001.002.002.525-.302 61.773-35.543-62.306-36.26-.001.001-.001-.001h-.002l-62.313 35.835 62.313 36.264z"/><path class="st8" d="M204.29 218.986v-.001l.003.002v-72.093l-62.322-36.269v.001l-.002-.001v72.093l.029.017z"/><path class="st9" d="M266.614 111.054l-61.789 35.533-.526.302-.007.005v72.092l.012.008.001-.001.001.001 62.311-35.833v.001-72.107l-.003.002z"/></g><g class="st0"><path class="st31" d="M266.623 183.163l.001-.001.002.002.523-.305 61.601-35.842-62.482-35.957v.001l-.002-.001h-.001l-62.139 36.136 62.488 35.962z"/><path class="st32" d="M266.964 255.26v-.002l.003.002-.35-72.092-62.497-35.966-.002-.001.35 72.092.029.017z"/><path class="st33" d="M328.764 147.026l-61.617 35.833-.524.304-.007.005.349 72.092.012.007.001-.001.002.001 62.136-36.134v.001-.009l-.349-72.098-.003.002z"/></g><g class="st0"><path class="st25" d="M79.66 146.46l.001-.001.002.002.525-.302 61.773-35.543-62.306-36.26-.001.001-.001-.001h-.002l-62.313 35.835 62.313 36.264z"/><path class="st26" d="M79.651 218.557v-.001l.003.002v-72.093l-62.322-36.269v.001l-.002-.001v72.093l.029.017z"/><path class="st27" d="M141.975 110.625l-61.789 35.533-.526.302-.007.005v72.092l.012.008.001-.001.001.001 62.311-35.833v.001-72.107l-.003.002z"/></g><g class="st0"><path class="st22" d="M141.988 182.723l.001-.001.002.002.525-.302 61.773-35.543-62.307-36.259h-.003l-62.313 35.834 62.313 36.264z"/><path class="st23" d="M141.979 254.821v-.002l.003.002v-72.093L79.66 146.459v.001l-.002-.001v72.093l.029.017z"/><path class="st24" d="M204.303 146.888l-61.79 35.533-.525.302-.008.005v72.093l.013.007h.002l62.31-35.832h.001v-72.107l-.003.002z"/></g><g class="st0"><path class="st22" d="M204.312 218.997l.001-.001.002.002.525-.302 61.773-35.543-62.306-36.26-.001.001-.002-.001h-.001l-62.313 35.835 62.313 36.264z"/><path class="st23" d="M204.303 291.095v-.002l.003.002v-72.093l-62.322-36.269v.001l-.002-.001v72.093l.029.017z"/><path class="st24" d="M266.627 183.162l-61.789 35.533-.526.302-.008.005v72.093l.013.007h.002l62.311-35.832v-72.107l-.003.002z"/></g><path class="st34" d="M476.287 155.252v110.509H454.53V155.252h21.757zm43.156 10.592c0 15.019-25.893 15.019-25.893 0s25.893-15.019 25.893 0zm-23.915 21.66v78.258h21.937v-78.258h-21.937zm63.653-32.252v43.16c5.215-8.063 19.779-12.49 29.13-12.49 25.893 0 45.132 13.913 45.132 40.789 0 25.611-19.6 40.789-45.672 40.789-10.788 0-21.757-3.162-28.59-12.49l-1.438 10.751h-20.498V155.252h21.936zm1.438 71.46c0 14.07 11.867 22.924 25.713 22.924 14.025 0 25.174-9.327 25.174-22.924 0-14.07-11.148-22.766-25.174-22.766-13.846 0-25.713 9.169-25.713 22.766zm91.708 71.617V187.662h8.631v18.497c7.013-11.857 21.218-19.604 38.479-19.604 24.094.79 43.154 15.019 43.154 40.156 0 26.244-20.139 40.473-45.133 40.473-15.104 0-29.129-6.482-36.681-19.446v50.591h-8.45zm81.454-71.617c0-21.976-16.184-32.726-36.322-32.726-20.678 0-35.962 13.754-35.962 32.884s15.644 32.884 35.962 32.884c20.139 0 36.322-11.067 36.322-33.042zm28.774-42.212c0-23.556 25.533-30.829 48.188-30.829 23.195 0 48.369 8.379 48.549 32.251 0 22.607-25.893 31.777-48.188 31.777-18.341.158-39.738 3.953-39.738 22.924v16.917h86.668v8.221h-96.198v-24.979c0-24.505 25.713-30.829 48.908-30.829 16.363 0 39.559-5.375 39.559-24.03 0-19.446-22.297-24.821-39.559-24.821-16.722 0-38.659 5.059-38.659 23.398h-9.53zm120.476 113.829V187.662h8.631v18.497c7.013-11.857 21.218-19.604 38.479-19.604 24.094.79 43.154 15.019 43.154 40.156 0 26.244-20.139 40.473-45.133 40.473-15.104 0-29.129-6.482-36.681-19.446v50.591h-8.45zm81.453-71.617c0-21.976-16.183-32.726-36.321-32.726-20.678 0-35.962 13.754-35.962 32.884s15.644 32.884 35.962 32.884c20.139 0 36.321-11.067 36.321-33.042z"/></svg>