<?xml version="1.0" encoding="UTF-8"?>
<!DOCTYPE svg PUBLIC "-//W3C//DTD SVG 1.1//EN" "http://www.w3.org/Graphics/SVG/1.1/DTD/svg11.dtd">
<!-- Creator: CorelDRAW X7 -->
<svg xmlns="http://www.w3.org/2000/svg" xml:space="preserve" width="21.6152mm" height="24.959mm" version="1.1" style="shape-rendering:geometricPrecision; text-rendering:geometricPrecision; image-rendering:optimizeQuality; fill-rule:evenodd; clip-rule:evenodd"
viewBox="0 0 267 308"
 xmlns:xlink="http://www.w3.org/1999/xlink">
 <defs>
  <style type="text/css">
   <![CDATA[
    .fil0 {fill:#F52727}
    .fil1 {fill:white}
   ]]>
  </style>
 </defs>
 <g id="Layer_x0020_1">
  <metadata id="CorelCorpID_0Corel-Layer"/>
  <g id="_2543891681792">
   <polygon class="fil0" points="133,0 200,38 267,77 267,154 267,231 200,269 133,308 67,269 0,231 0,154 0,77 67,38 "/>
   <g>
    <path class="fil1" d="M62 229l0 0 4 5c39,0 104,0 138,0l4 -5c0,0 -1,0 -1,0 4,-10 2,-26 2,-38 0,-10 1,-33 0,-42 -2,-12 -19,-9 -32,-9l-82 0c-40,0 -35,-4 -35,50 0,11 -1,30 2,39zm64 -19c6,0 5,-3 7,-9 2,-7 13,-34 10,-36 -5,-3 -8,12 -11,20 -2,6 -8,20 -6,25zm32 -24c-6,9 -10,6 -9,13 5,1 6,-1 9,-4 4,-3 5,-3 8,-7 -2,-6 -13,-14 -13,-14 -6,-1 -5,3 -2,6 2,3 5,5 7,6zm-38 13c1,-6 0,-4 -8,-12 1,-2 2,-3 4,-5 3,-2 5,-2 5,-6 -2,-6 -9,3 -11,5 -5,3 -10,5 -3,11 4,3 8,8 13,7z"/>
    <path class="fil1" d="M125 33c-53,12 -33,89 17,77 52,-11 33,-89 -17,-77zm-22 32c-6,36 39,51 57,23 9,-15 6,-36 -16,-28 -7,3 -9,7 -19,8 -9,1 -18,-3 -22,-3z"/>
    <path class="fil1" d="M67 136l132 0c1,-18 -21,-28 -36,-27 -5,1 -24,18 -50,5 -6,-4 -6,-7 -20,-4 -13,3 -26,12 -26,26z"/>
   </g>
  </g>
 </g>
</svg>
