<svg id="Layer_1" xmlns="http://www.w3.org/2000/svg" xmlns:xlink="http://www.w3.org/1999/xlink" viewBox="0 0 400 452"><style>.st0{fill:#e0f1f3}.st1{fill:#6cc5ce}.st2{fill:#fff}.st3{opacity:.39}.st3,.st4,.st5{fill:#6cc5ce;enable-background:new}.st4{opacity:.16}.st5{opacity:.65}.st6{fill:none}</style><path class="st0" d="M388.8 322.6V129.5c0-10.1-5.1-19.4-13.6-24.4L213.7 8.7c-8.5-5-18.9-5-27.4 0L24.8 105.1c-8.5 5-13.6 14.4-13.6 24.4v193c0 10.1 5.1 19.4 13.6 24.4l161.5 96.4c8.5 5 18.9 5 27.4 0l161.5-96.4c8.5-4.9 13.6-14.3 13.6-24.3z"/><path class="st1" d="M199.5 425.3l-167.9-100V124.8l167.9-100L367.4 125v200.2L199.5 425.3zM41.7 319.2l157.8 94.1 157.8-94.1V130.9L199.5 36.7 41.7 130.9v188.3z"/><ellipse class="st2" cx="38.4" cy="128.3" rx="10.1" ry="10.4"/><path class="st1" d="M38.4 140.9c-6.7 0-12.2-5.6-12.2-12.6s5.4-12.6 12.2-12.6 12.2 5.6 12.2 12.6-5.4 12.6-12.2 12.6zm0-20.9c-4.5 0-8.1 3.8-8.1 8.3 0 4.5 3.7 8.3 8.1 8.3s8.1-3.8 8.1-8.3c0-4.5-3.5-8.3-8.1-8.3z"/><ellipse class="st2" cx="361.6" cy="128.3" rx="10.1" ry="10.4"/><path class="st1" d="M361.6 140.9c-6.7 0-12.2-5.6-12.2-12.6s5.4-12.6 12.2-12.6c6.7 0 12.2 5.6 12.2 12.6-.1 7-5.5 12.6-12.2 12.6zm0-20.9c-4.5 0-8.1 3.8-8.1 8.3 0 4.5 3.7 8.3 8.1 8.3 4.5 0 8.1-3.8 8.1-8.3-.1-4.5-3.6-8.3-8.1-8.3z"/><ellipse class="st2" cx="200.1" cy="420.3" rx="10.1" ry="10.4"/><path class="st1" d="M199.9 432.8c-6.7 0-12.2-5.6-12.2-12.6s5.4-12.6 12.2-12.6 12.2 5.6 12.2 12.6c.1 7-5.4 12.6-12.2 12.6zm0-20.9c-4.5 0-8.1 3.8-8.1 8.3 0 4.5 3.7 8.3 8.1 8.3 4.5 0 8.1-3.8 8.1-8.3 0-4.5-3.5-8.3-8.1-8.3z"/><ellipse class="st2" cx="200.1" cy="225.5" rx="10.1" ry="10.4"/><path class="st1" d="M199.9 238c-6.7 0-12.2-5.6-12.2-12.6s5.4-12.6 12.2-12.6 12.2 5.6 12.2 12.6c.1 7-5.4 12.6-12.2 12.6zm0-20.9c-4.5 0-8.1 3.8-8.1 8.3 0 4.5 3.7 8.3 8.1 8.3 4.5 0 8.1-3.8 8.1-8.3s-3.5-8.3-8.1-8.3z"/><path class="st3" d="M360.7 138.4c-4 0-6.7-2-8.2-4.7L209.2 220c.9 2.3 1 5 .4 7.4-.9 4.2-4.1 7.9-9.5 7.9h-.1v173.1c4.7.2 7.6 2.9 8.8 6.4l144.2-89c-3.8-6.1-1.2-16.6 8.1-16.6h.4V138.4h-.8z"/><path class="st4" d="M190.7 415c1.2-3.5 4-6.4 8.5-6.5V235.3c-6.7-.6-9.7-7.1-8.6-12.7.1-.8.3-1.4.4-2L46.9 133.9c-1.5 2.9-4.4 4.8-8.4 4.8h-.9v170.9h.4c9.1 0 11.9 10.1 8.2 16.3L190.7 415z"/><path class="st5" d="M352.2 122.7L207.8 35.8c-.1.2-.3.3-.4.5-1.3 3.5-4.2 6.2-9.1 6.2-4.4 0-7.2-2.3-8.6-5.4L46.9 122.7c1.8 3.3 1.8 7.9 0 11.2l144.2 86.7c1.2-3.6 4.2-6.5 9.1-6.5 4.4 0 7.3 2.4 8.8 5.6l143.5-86c-1.9-3.3-1.9-7.7-.3-11z"/><path class="st6" d="M189.8 220.2l-142.9-86"/><path class="st1" d="M45.6 136.4l2.5-4.4 143 85.9-2.5 4.5z"/><path class="st6" d="M353.1 134.2l-142.9 86"/><path class="st1" d="M208.9 217.8l142.9-86 2.5 4.5-142.9 86z"/><path class="st6" d="M200.1 235.3v174.5"/><path class="st1" d="M197.4 235.3h5.1v174.5h-5.1z"/><ellipse class="st2" cx="38.4" cy="320.5" rx="10.1" ry="10.4"/><path class="st1" d="M38.4 333.1c-6.7 0-12.2-5.6-12.2-12.6S31.7 308 38.4 308s12.2 5.6 12.2 12.6c0 6.9-5.4 12.5-12.2 12.5zm0-20.9c-4.5 0-8.1 3.8-8.1 8.3 0 4.5 3.7 8.3 8.1 8.3s8.1-3.8 8.1-8.3c0-4.5-3.5-8.3-8.1-8.3z"/><ellipse class="st2" cx="361.6" cy="320.5" rx="10.1" ry="10.4"/><path class="st1" d="M361.6 333.1c-6.7 0-12.2-5.6-12.2-12.6s5.4-12.6 12.2-12.6c6.7 0 12.2 5.6 12.2 12.6-.1 7-5.5 12.6-12.2 12.6zm0-20.9c-4.5 0-8.1 3.8-8.1 8.3 0 4.5 3.7 8.3 8.1 8.3 4.5 0 8.1-3.8 8.1-8.3s-3.6-8.3-8.1-8.3z"/><ellipse class="st2" cx="198.5" cy="31.9" rx="10.1" ry="10.4"/><path class="st1" d="M198.5 44.5c-6.7 0-12.2-5.6-12.2-12.6s5.4-12.6 12.2-12.6 12.2 5.6 12.2 12.6-5.5 12.6-12.2 12.6zm0-21.1c-4.5 0-8.1 3.8-8.1 8.3s3.7 8.3 8.1 8.3c4.5 0 8.1-3.8 8.1-8.3s-3.6-8.3-8.1-8.3z"/><image width="299" height="135" xlink:href="2EB8F80C57BBA58.png" transform="translate(51.496 180.496)" overflow="visible" opacity=".35"/><path class="st2" d="M73.9 301.9H57.2V187.3h16.7v114.6zm61-114.6c7.2 0 13.5.9 18.8 2.6 5.3 1.7 9.7 4.1 13.2 7.3s6.2 6.8 7.8 11.4c1.8 4.4 2.5 9.4 2.5 14.7 0 5.4-.9 10.3-2.8 14.8-1.8 4.5-4.5 8.3-8.1 11.7-3.5 3.2-7.9 5.8-13.3 7.6-5.3 1.8-11.4 2.7-18.3 2.7h-17v42.2H101V187.6h34v-.3zm0 59.1c4.2 0 7.9-.6 11.1-1.7 3.2-1.1 5.9-2.7 8.1-4.7 2.2-2.1 3.8-4.5 4.8-7.4 1-2.9 1.6-6.1 1.6-9.4 0-7-2.2-12.4-6.4-16.5-4.2-3.9-10.7-6.1-19.3-6.1h-17.1v45.7h17.2zm73.1-45.3v38.4h45.1v13.8H208v48.6h-16.7V187.3H261v13.8h-53zm123.4 5c-.6.9-1 1.5-1.6 2s-1.3.6-2.2.6-2.1-.5-3.2-1.4-2.6-1.8-4.5-3c-1.8-1.1-4-2.1-6.4-3-2.5-.9-5.6-1.4-8.9-1.4-3.2 0-6.2.5-8.6 1.4s-4.5 2.1-6.2 3.6c-1.6 1.5-2.9 3.3-3.8 5.3-.9 2.1-1.3 4.2-1.3 6.7 0 3 .7 5.6 2.3 7.7 1.5 2 3.5 3.8 6 5.1 2.5 1.4 5.4 2.7 8.5 3.8 3.2 1.1 6.4 2.1 9.8 3.3s6.6 2.4 9.8 3.9c3.2 1.5 6 3.3 8.5 5.6s4.5 5 6 8.3c1.5 3.3 2.3 7.3 2.3 12 0 5-.9 9.8-2.5 14.2-1.8 4.4-4.1 8.3-7.5 11.5-3.2 3.3-7.2 5.9-11.9 7.7-4.7 1.8-10.1 2.9-16.1 2.9-3.7 0-7-.3-10.6-1.1-3.4-.8-6.6-1.7-9.7-3-3.1-1.4-5.9-2.9-8.5-4.7-2.6-1.8-5-3.9-7-6.2l4.8-8.2c.4-.6 1-1.2 1.6-1.7s1.5-.6 2.2-.6c1 0 2.3.6 3.8 1.8 1.5 1.2 3.2 2.4 5.3 3.9 2.1 1.4 4.7 2.7 7.6 3.9s6.6 1.8 10.7 1.8c3.5 0 6.6-.5 9.2-1.4 2.8-.9 5-2.3 6.9-3.9s3.2-3.8 4.2-6.2c1-2.4 1.5-5.1 1.5-8.2 0-3.3-.7-6.1-2.2-8.2-1.5-2.1-3.5-3.9-6-5.3s-5.4-2.7-8.5-3.6c-3.2-1.1-6.4-2.1-9.8-3.2-3.4-1.1-6.6-2.4-9.8-3.8s-6-3.3-8.5-5.6-4.5-5.1-6-8.6-2.2-7.7-2.2-12.9c0-4.1.7-8 2.3-12 1.6-3.8 3.8-7.3 6.9-10.1s6.7-5.3 11.1-7.1 9.4-2.7 15.1-2.7c6.3 0 12.2 1.1 17.4 3 5.3 2.1 10 5 13.8 8.8l-4.1 8.3z"/></svg>