<svg id="Layer_1" xmlns="http://www.w3.org/2000/svg" viewBox="0 0 1226 452"><style>.st0{fill:#fff}.st1{fill:#0565d8}.st2{fill:#055aad}.st3{fill:#50a5f9}.st4{fill:#2b94fc}.st5{fill:#127bf9}</style><path class="st0" d="M585.418 174.347v87.778h-10.413v-64.501c0-.857.03-1.776.092-2.757.062-.979.132-1.979.215-3.001l-30.138 54.884c-.94 1.838-2.369 2.758-4.288 2.758h-1.715c-1.92 0-3.35-.92-4.288-2.758l-30.75-55.129c.245 2.165.367 4.165.367 6.003v64.501h-10.413v-87.778h8.76c1.061 0 1.877.102 2.45.306.571.205 1.122.776 1.653 1.715l30.321 54.026c.49.98.97 2.002 1.439 3.062.47 1.062.908 2.145 1.317 3.248a85.952 85.952 0 0 1 1.286-3.277 33.08 33.08 0 0 1 1.471-3.094l29.77-53.966c.49-.939 1.031-1.51 1.623-1.715.592-.204 1.419-.306 2.481-.306h8.76zm69.771 25.727v62.051h-6.493c-1.553 0-2.533-.754-2.94-2.266l-.857-6.678c-2.695 2.982-5.718 5.381-9.066 7.197-3.349 1.818-7.188 2.727-11.516 2.727-3.39 0-6.381-.562-8.974-1.684-2.594-1.123-4.769-2.705-6.524-4.748-1.756-2.041-3.073-4.512-3.95-7.412-.879-2.898-1.317-6.104-1.317-9.617v-39.571h10.903v39.571c0 4.697 1.072 8.33 3.216 10.904 2.145 2.572 5.421 3.859 9.832 3.859 3.226 0 6.237-.766 9.035-2.299 2.797-1.531 5.38-3.645 7.748-6.34v-45.696h10.903zm28.545-28.178v90.229h-10.903v-90.229h10.903zm75.22 90.229h-10.903v-52.924h-31.976v37.243c0 2.615.633 4.555 1.899 5.82 1.266 1.266 2.899 1.898 4.9 1.898 1.143 0 2.134-.152 2.971-.459s1.562-.643 2.175-1.012c.612-.367 1.133-.703 1.562-1.01s.807-.459 1.134-.459c.571 0 1.081.348 1.531 1.041l3.186 5.207c-1.879 1.756-4.146 3.135-6.8 4.135-2.655 1-5.391 1.5-8.208 1.5-4.9 0-8.668-1.367-11.302-4.104s-3.951-6.678-3.951-11.822V209.2h-7.473c-.654 0-1.205-.193-1.654-.582-.449-.388-.674-.989-.674-1.807v-4.35l10.169-1.348 2.511-19.111c.123-.612.398-1.112.827-1.501.429-.388.99-.582 1.685-.582h5.513v21.379h42.879v60.827zm2.695-81.959a6.932 6.932 0 0 1-.643 2.971 8.163 8.163 0 0 1-4.196 4.074c-.94.408-1.94.612-3.002.612a7.237 7.237 0 0 1-2.971-.612 7.938 7.938 0 0 1-4.073-4.074 7.215 7.215 0 0 1-.612-2.971c0-1.062.203-2.072.612-3.032a8.143 8.143 0 0 1 1.653-2.512 7.721 7.721 0 0 1 2.42-1.685 7.234 7.234 0 0 1 2.971-.612c1.062 0 2.062.205 3.002.612a7.995 7.995 0 0 1 2.48 1.685 8.359 8.359 0 0 1 1.716 2.512c.43.96.643 1.97.643 3.032zm19.235 81.959v-52.741l-6.86-.796c-.857-.204-1.562-.521-2.113-.949-.552-.429-.827-1.051-.827-1.868v-4.472h9.801v-6.004c0-3.553.5-6.707 1.501-9.464 1-2.756 2.429-5.084 4.288-6.983 1.857-1.899 4.094-3.338 6.707-4.318s5.554-1.47 8.821-1.47c2.776 0 5.329.409 7.656 1.225l-.245 5.452c-.082.98-.623 1.512-1.623 1.593-1.001.082-2.338.123-4.012.123-1.879 0-3.584.244-5.115.734s-2.849 1.286-3.951 2.39c-1.103 1.103-1.95 2.552-2.542 4.349-.592 1.798-.888 4.022-.888 6.677v5.697h17.887v7.901h-17.52v52.924h-10.965zm63.031-63.032c4.533 0 8.616.757 12.251 2.267 3.635 1.512 6.738 3.655 9.311 6.432 2.573 2.778 4.543 6.137 5.911 10.077 1.368 3.941 2.053 8.34 2.053 13.2 0 4.9-.685 9.311-2.053 13.232-1.368 3.92-3.338 7.27-5.911 10.045-2.572 2.777-5.676 4.912-9.311 6.402s-7.718 2.234-12.251 2.234c-4.574 0-8.688-.744-12.343-2.234-3.655-1.49-6.769-3.625-9.342-6.402-2.572-2.775-4.543-6.125-5.911-10.045-1.368-3.922-2.052-8.332-2.052-13.232 0-4.859.684-9.258 2.052-13.2 1.368-3.94 3.339-7.299 5.911-10.077 2.573-2.776 5.687-4.92 9.342-6.432 3.655-1.51 7.769-2.267 12.343-2.267zm0 55.376c6.126 0 10.698-2.053 13.722-6.156 3.021-4.104 4.532-9.832 4.532-17.182 0-7.391-1.511-13.15-4.532-17.275-3.023-4.124-7.596-6.187-13.722-6.187-3.104 0-5.81.531-8.116 1.593a15.08 15.08 0 0 0-5.758 4.594c-1.531 2.002-2.676 4.462-3.431 7.382-.756 2.92-1.133 6.217-1.133 9.893 0 7.35 1.521 13.078 4.563 17.182 3.042 4.103 7.667 6.156 13.875 6.156zm53.658-41.961c1.96-4.246 4.369-7.564 7.229-9.954 2.857-2.389 6.349-3.583 10.475-3.583 1.306 0 2.562.144 3.767.429 1.204.286 2.276.735 3.216 1.348l-.796 8.147c-.245 1.021-.857 1.531-1.838 1.531-.572 0-1.409-.123-2.512-.368s-2.349-.367-3.736-.367c-1.96 0-3.706.286-5.237.857-1.531.572-2.9 1.42-4.104 2.542-1.204 1.124-2.287 2.512-3.246 4.166-.96 1.653-1.828 3.543-2.604 5.666v39.203h-10.965v-62.051h6.248c1.185 0 2.001.225 2.45.674.449.45.756 1.226.919 2.328l.734 9.432zm34.241 49.617v-62.051h6.555c1.552 0 2.512.756 2.879 2.267l.796 6.37c2.287-2.817 4.859-5.124 7.719-6.922 2.857-1.796 6.166-2.695 9.923-2.695 4.166 0 7.544 1.164 10.138 3.492 2.594 2.327 4.462 5.473 5.605 9.434.897-2.246 2.052-4.186 3.461-5.819 1.409-1.633 2.991-2.98 4.747-4.043 1.756-1.062 3.624-1.838 5.604-2.328s3.991-.735 6.034-.735c3.267 0 6.176.521 8.729 1.562 2.552 1.041 4.717 2.563 6.493 4.563 1.776 2.001 3.134 4.462 4.073 7.381.939 2.921 1.409 6.259 1.409 10.016v39.509h-10.965v-39.509c0-4.859-1.062-8.545-3.185-11.057-2.124-2.512-5.188-3.768-9.188-3.768-1.798 0-3.502.317-5.115.95a12.34 12.34 0 0 0-4.257 2.787c-1.226 1.225-2.196 2.767-2.91 4.625-.715 1.858-1.071 4.012-1.071 6.462v39.509h-10.965v-39.509c0-4.981-1.001-8.698-3.002-11.148s-4.921-3.676-8.76-3.676c-2.695 0-5.187.726-7.473 2.175-2.288 1.45-4.391 3.421-6.31 5.911v46.248h-10.964zm99.172-53.292c3.431-3.308 7.126-5.778 11.088-7.412 3.96-1.633 8.351-2.45 13.17-2.45 3.471 0 6.554.572 9.249 1.715 2.695 1.145 4.962 2.736 6.8 4.778s3.226 4.513 4.165 7.412 1.409 6.085 1.409 9.556v39.693h-4.839c-1.062 0-1.879-.172-2.451-.52s-1.021-1.031-1.347-2.053l-1.226-5.881a60.411 60.411 0 0 1-4.778 4.012 27.33 27.33 0 0 1-4.9 2.941 26.66 26.66 0 0 1-5.482 1.838c-1.939.428-4.094.643-6.462.643-2.41 0-4.677-.336-6.8-1.01s-3.972-1.686-5.543-3.033c-1.573-1.348-2.818-3.053-3.737-5.115-.918-2.061-1.378-4.502-1.378-7.32 0-2.449.674-4.807 2.021-7.074 1.348-2.266 3.532-4.277 6.555-6.033 3.021-1.756 6.962-3.195 11.822-4.318 4.859-1.123 10.821-1.766 17.887-1.93v-4.839c0-4.818-1.042-8.463-3.124-10.935-2.083-2.47-5.126-3.706-9.128-3.706-2.694 0-4.951.337-6.769 1.011s-3.39 1.431-4.717 2.267a84.82 84.82 0 0 0-3.43 2.267c-.96.674-1.909 1.011-2.849 1.011-.735 0-1.368-.193-1.898-.582a5.34 5.34 0 0 1-1.348-1.439l-1.96-3.494zm35.223 25.36c-5.023.164-9.302.561-12.833 1.193-3.533.635-6.412 1.461-8.638 2.482-2.226 1.02-3.839 2.225-4.839 3.613a7.77 7.77 0 0 0-1.501 4.656c0 1.633.266 3.041.797 4.227.53 1.184 1.256 2.154 2.174 2.908.919.756 2.001 1.309 3.247 1.654 1.245.348 2.582.521 4.012.521 1.919 0 3.676-.193 5.269-.582s3.093-.949 4.502-1.686c1.409-.734 2.757-1.611 4.043-2.633s2.542-2.186 3.768-3.492v-12.861zm45.514 28.912c-4.9 0-8.668-1.367-11.302-4.104s-3.951-6.678-3.951-11.822V209.2h-7.473c-.654 0-1.205-.193-1.654-.582-.449-.388-.674-.989-.674-1.807v-4.35l10.169-1.286 2.511-19.173c.123-.612.398-1.112.827-1.501.429-.388.99-.582 1.685-.582h5.513v21.379h17.948v7.901h-17.948v37.243c0 2.615.633 4.555 1.899 5.82 1.266 1.266 2.899 1.898 4.9 1.898 1.143 0 2.134-.152 2.971-.459s1.562-.643 2.175-1.012c.612-.367 1.133-.703 1.562-1.01s.807-.459 1.134-.459c.571 0 1.081.348 1.531 1.041l3.186 5.207c-1.879 1.756-4.146 3.135-6.8 4.135a23.074 23.074 0 0 1-8.209 1.502zm61.008-52.802c-.489.899-1.246 1.348-2.267 1.348-.612 0-1.307-.224-2.082-.674a49.244 49.244 0 0 0-2.849-1.501c-1.124-.551-2.461-1.061-4.012-1.531-1.553-.469-3.391-.704-5.514-.704-1.837 0-3.491.235-4.961.704-1.471.471-2.727 1.113-3.768 1.93s-1.838 1.767-2.389 2.849a7.64 7.64 0 0 0-.827 3.522c0 1.592.459 2.92 1.378 3.981.919 1.062 2.134 1.981 3.645 2.756 1.511.776 3.226 1.461 5.146 2.053 1.919.592 3.89 1.224 5.911 1.898s3.991 1.42 5.911 2.236c1.919.818 3.635 1.838 5.146 3.062s2.726 2.727 3.645 4.502c.919 1.777 1.379 3.912 1.379 6.402 0 2.859-.512 5.504-1.531 7.932-1.021 2.43-2.533 4.533-4.533 6.311-2.002 1.775-4.452 3.176-7.351 4.195-2.9 1.02-6.248 1.531-10.046 1.531-4.329 0-8.25-.705-11.761-2.113-3.513-1.408-6.493-3.217-8.943-5.422l2.572-4.164c.326-.531.714-.939 1.164-1.225.449-.287 1.021-.43 1.715-.43.735 0 1.511.285 2.328.857a48.259 48.259 0 0 0 2.971 1.898c1.164.695 2.582 1.328 4.257 1.9s3.757.857 6.248.857c2.123 0 3.982-.277 5.574-.828 1.593-.551 2.92-1.295 3.982-2.236 1.061-.938 1.847-2.02 2.357-3.246.511-1.225.767-2.531.767-3.92 0-1.715-.46-3.133-1.379-4.258-.919-1.121-2.134-2.082-3.645-2.879-1.512-.795-3.237-1.49-5.176-2.082a371.19 371.19 0 0 1-5.942-1.869 66.818 66.818 0 0 1-5.941-2.234c-1.94-.838-3.666-1.889-5.176-3.156-1.512-1.264-2.727-2.827-3.645-4.685-.919-1.857-1.379-4.113-1.379-6.769 0-2.368.49-4.646 1.471-6.83.979-2.185 2.408-4.104 4.287-5.758 1.878-1.654 4.186-2.972 6.922-3.951 2.735-.98 5.859-1.471 9.372-1.471 4.083 0 7.749.644 10.996 1.93 3.246 1.287 6.054 3.054 8.422 5.299l-2.449 3.983z"/><path class="st1" d="M200 200.415v165.02l98.597 56.925V257.34z"/><path class="st2" d="M101.403 257.34v165.02L200 365.435v-165.02z"/><path class="st3" d="M298.597 29.64L200 86.565 101.403 29.64 2.806 86.565l98.597 56.925L200 200.415l98.597-56.925 98.597-56.925z"/><path class="st4" d="M101.403 143.49L2.806 86.565v278.87l98.597 56.925V257.34L200 314.265v-113.85z"/><path class="st5" d="M298.597 143.49L200 200.415v113.85l98.597-56.925v165.02l98.597-56.925V86.565z"/></svg>