<svg xmlns="http://www.w3.org/2000/svg" width="940" height="330" viewBox="0 0 940 330"><g transform="translate(0 -722.362)"><rect style="isolation:auto;mix-blend-mode:normal" width="938.837" height="329.861" x="1.753" y="722.338" rx="0" ry="0" color="#000" overflow="visible"/><text style="line-height:125%;-inkscape-font-specification:'Source Sans Pro, Normal';text-align:start" x="9.825" y="759" font-weight="400" font-size="19.56" font-family="Source Sans Pro" letter-spacing="0" word-spacing="0" fill="#fff"><tspan x="9.825" y="759" font-size="39.12">Proof-of-Replication</tspan></text><text style="line-height:125%;-inkscape-font-specification:'Source Sans Pro, Heavy';text-align:center" x="80.313" y="848.216" font-weight="900" font-size="22.82" font-family="Source Sans Pro" letter-spacing="0" word-spacing="0" text-anchor="middle" fill="#2ee89c"><tspan x="80.313" y="848.216" style="line-height:125%;-inkscape-font-specification:'Source Sans Pro, Heavy';text-align:center">Prover</tspan></text><text style="line-height:125%;-inkscape-font-specification:'Source Sans Pro, Heavy';text-align:center" x="66.05" y="970.654" font-weight="900" font-size="22.82" font-family="Source Sans Pro" letter-spacing="0" word-spacing="0" text-anchor="middle" fill="#fe6b57"><tspan x="66.05" y="970.654" style="line-height:125%;-inkscape-font-specification:'Source Sans Pro, Heavy';text-align:center">Attacker</tspan></text><path d="M130.65 1013.982l763.619-.106" fill="#e0e0e0" fill-rule="evenodd" stroke="#e0e0e0" stroke-width="3"/><text style="line-height:125%;-inkscape-font-specification:'Source Sans Pro, Heavy';text-align:center" x="86.754" y="1022.22" font-weight="900" font-size="22.82" font-family="Source Sans Pro" letter-spacing="0" word-spacing="0" text-anchor="middle" fill="#e0e0e0"><tspan x="86.754" y="1022.22" style="line-height:125%;-inkscape-font-specification:'Source Sans Pro';text-align:center" font-weight="400">Time</tspan></text><path d="M162.404 902.595l16.01-50.696m-16.01 50.917l16.01 50.696" fill="#fff" fill-rule="evenodd" stroke="#fff" stroke-width="2"/><text style="line-height:125%;-inkscape-font-specification:'Source Sans Pro, Heavy';text-align:center" x="71.377" y="911.173" font-weight="900" font-size="22.82" font-family="Source Sans Pro" letter-spacing="0" word-spacing="0" text-anchor="middle" fill="#748cf9"><tspan x="71.377" y="911.173" style="line-height:125%;-inkscape-font-specification:'Source Sans Pro, Heavy';text-align:center">Verifier</tspan></text><text style="line-height:125%;-inkscape-font-specification:'Source Sans Pro, Heavy';text-align:center" x="260.572" y="872.793" font-weight="900" font-size="22.82" font-family="Source Sans Pro" letter-spacing="0" word-spacing="0" text-anchor="middle" fill="#fff"><tspan x="260.572" y="872.793" style="line-height:125%;-inkscape-font-specification:'Source Sans Pro';text-align:center" font-weight="400" font-size="19.56">Send file</tspan><tspan x="260.572" y="897.244" style="line-height:125%;-inkscape-font-specification:'Source Sans Pro';text-align:center" font-weight="400" font-size="19.56">to honest prover</tspan><tspan x="260.572" y="921.694" style="line-height:125%;-inkscape-font-specification:'Source Sans Pro';text-align:center" font-weight="400" font-size="19.56">and attacker</tspan></text><path d="M506.265 903.823l16.422-51.9m-16.546 49.455l16.01 50.696" fill="#fff" fill-rule="evenodd" stroke="#fff" stroke-width="2"/><text style="line-height:125%;-inkscape-font-specification:'Source Sans Pro, Heavy';text-align:center" x="462.429" y="895.889" font-weight="900" font-size="22.82" font-family="Source Sans Pro" letter-spacing="0" word-spacing="0" text-anchor="middle" fill="#fff"><tspan x="462.429" y="895.889" style="line-height:125%;-inkscape-font-specification:'Source Sans Pro';text-align:center" font-weight="400" font-size="19.56">Challenge</tspan></text><path d="M535.674 839.657l17.861 56.263" fill="#fff" fill-rule="evenodd" stroke="#fff" stroke-width="2"/><text style="line-height:125%;-inkscape-font-specification:'Source Sans Pro, Heavy';text-align:center" x="330.604" y="833.189" font-weight="900" font-size="22.82" font-family="Source Sans Pro" letter-spacing="0" word-spacing="0" text-anchor="middle" fill="#fff"><tspan x="330.604" y="833.189" style="line-height:125%;-inkscape-font-specification:'Source Sans Pro';text-align:center" font-weight="400" font-size="19.56">Honest prover seals</tspan></text><text style="line-height:125%;-inkscape-font-specification:'Source Sans Pro, Heavy';text-align:center" x="681.018" y="981.553" font-weight="900" font-size="22.82" font-family="Source Sans Pro" letter-spacing="0" word-spacing="0" text-anchor="middle" fill="#fff"><tspan x="681.018" y="981.553" style="line-height:125%;-inkscape-font-specification:'Source Sans Pro';text-align:center" font-weight="400" font-size="19.56">Attacker must first seal, then prove</tspan></text><text style="line-height:125%;-inkscape-font-specification:'Source Sans Pro, Heavy';text-align:center" x="531.654" y="833.385" font-weight="900" font-size="22.82" font-family="Source Sans Pro" letter-spacing="0" word-spacing="0" text-anchor="middle" fill="#fff"><tspan x="531.654" y="833.385" style="line-height:125%;-inkscape-font-specification:'Source Sans Pro';text-align:center" font-weight="400" font-size="19.56">Prove</tspan></text><text style="line-height:125%;-inkscape-font-specification:'Source Sans Pro, Heavy';text-align:center" x="575.481" y="866.221" font-weight="900" font-size="22.82" font-family="Source Sans Pro" letter-spacing="0" word-spacing="0" text-anchor="middle" fill="#fff"><tspan x="575.481" y="866.221" style="line-height:125%;-inkscape-font-specification:'Source Sans Pro';text-align:center" font-weight="400" font-size="19.56"><tspan dx="0 -3.0347782e-09" style="line-height:125%;-inkscape-font-specification:'Source Sans Pro';text-align:center">Verify</tspan></tspan></text><text style="line-height:125%;-inkscape-font-specification:'Source Sans Pro, Heavy';text-align:center" x="632.901" y="896.376" font-weight="900" font-size="22.82" font-family="Source Sans Pro" letter-spacing="0" word-spacing="0" text-anchor="middle" fill="#fff"><tspan x="632.901" y="896.376" style="line-height:125%;-inkscape-font-specification:'Source Sans Pro';text-align:center" font-weight="400" font-size="19.56"><tspan dx="0 -3.0347782e-09" style="line-height:125%;-inkscape-font-specification:'Source Sans Pro';text-align:center">Verify</tspan></tspan><tspan x="632.901" y="920.826" style="line-height:125%;-inkscape-font-specification:'Source Sans Pro';text-align:center" font-weight="400" font-size="19.56">timeout</tspan></text><path d="M130.65 839.978h768.105" fill="none" stroke="#2ee89c" stroke-width="3"/><path d="M130.65 902.935h768.105" fill="none" stroke="#748cf9" stroke-width="3"/><path d="M182.595 839.881h297.173m46.404.091h9.497" fill="none" stroke="#fff" stroke-width="3"/><path d="M161.68 884.943v34.442m344.264-34.442v34.442m89.833-34.515v34.442" fill="none" stroke="#fff" stroke-width="2"/><path style="isolation:auto;mix-blend-mode:normal" d="M172.505 946.743l4.763 3.007 1.331-7.525 2.264 18.55zm344.675-.051l4.763 3.007 1.331-7.525 2.264 18.55zm29.67-59.935l4.763 3.007 1.332-7.525 2.263 18.55zm-373.075-30.992l4.763-3.007 1.332 7.525 2.263-18.55zm344.34 0l4.763-3.007 1.331 7.525 2.264-18.55z" color="#000" overflow="visible" fill="#fff"/><path d="M556.372 896.516a2746451.171 2746451.171 0 0 0 5.747 16.692l25.037-27.363-6.704-4.378-16.448 23.768-1.335-10.739-6.297 2.02z" fill="#2ee89c" fill-rule="evenodd"/><path d="M835.735 962.721l16.422-51.9" fill="#fff" fill-rule="evenodd" stroke="#fff" stroke-width="2"/><path style="isolation:auto;mix-blend-mode:normal" d="M845.722 919.088l4.763-3.007 1.332 7.525 2.263-18.55z" color="#000" overflow="visible" fill="#fff"/><path d="M130.65 962.85h768.105" fill="none" stroke="#fe6b57" stroke-width="3"/><path d="M527.349 962.771h297.173" fill="none" stroke="#fff" stroke-width="3"/><path d="M856.456 898.062l4.954 4.91-6.574 6.634 3.03 2.767 7.273-5.748 7.098 7.078 3.677-3.942-5.801-7.067 9.05-7.153-5.077-5.36-7.55 7.705-4.291-5.434-5.79 5.61z" fill="#fe6b57" fill-rule="evenodd"/><path d="M827.852 962.818h9.496M1.753 771.796H940.59" fill="none" stroke="#fff" stroke-width="3"/><path style="isolation:auto;mix-blend-mode:normal" d="M883.457 1008.306l8.648 5.57-8.648 5.79 21.295-5.79z" color="#000" overflow="visible" fill="#e0e0e0"/></g></svg>